<?xml version="1.0" encoding="UTF-8" standalone="no"?>
<!-- Created with Inkscape (http://www.inkscape.org/) -->

<svg
   xmlns:dc="http://purl.org/dc/elements/1.1/"
   xmlns:cc="http://creativecommons.org/ns#"
   xmlns:rdf="http://www.w3.org/1999/02/22-rdf-syntax-ns#"
   xmlns:svg="http://www.w3.org/2000/svg"
   xmlns="http://www.w3.org/2000/svg"
   xmlns:sodipodi="http://sodipodi.sourceforge.net/DTD/sodipodi-0.dtd"
   xmlns:inkscape="http://www.inkscape.org/namespaces/inkscape"
   width="744.09448819"
   height="1052.3622047"
   id="svg2"
   version="1.1"
   inkscape:version="0.48.4 r9939"
   sodipodi:docname="II-V-I.svg">
  <defs
     id="defs4" />
  <sodipodi:namedview
     id="base"
     pagecolor="#ffffff"
     bordercolor="#666666"
     borderopacity="1.0"
     inkscape:pageopacity="0.0"
     inkscape:pageshadow="2"
     inkscape:zoom="1.4142136"
     inkscape:cx="307.70837"
     inkscape:cy="869.88767"
     inkscape:document-units="px"
     inkscape:current-layer="layer1"
     showgrid="false"
     inkscape:window-width="1280"
     inkscape:window-height="977"
     inkscape:window-x="-4"
     inkscape:window-y="22"
     inkscape:window-maximized="1" />
  <metadata
     id="metadata7">
    <rdf:RDF>
      <cc:Work
         rdf:about="">
        <dc:format>image/svg+xml</dc:format>
        <dc:type
           rdf:resource="http://purl.org/dc/dcmitype/StillImage" />
        <dc:title />
      </cc:Work>
    </rdf:RDF>
  </metadata>
  <g
     inkscape:label="Layer 1"
     inkscape:groupmode="layer"
     id="layer1">
    <path
       inkscape:connector-curvature="0"
       id="path3020"
       d="m 63,139.36218 563,0"
       style="fill:none;stroke:#000000;stroke-width:1px;stroke-linecap:butt;stroke-linejoin:miter;stroke-opacity:1" />
    <path
       inkscape:connector-curvature="0"
       id="path3022"
       d="m 63,161.11218 563,0"
       style="fill:none;stroke:#000000;stroke-width:1px;stroke-linecap:butt;stroke-linejoin:miter;stroke-opacity:1" />
    <path
       inkscape:connector-curvature="0"
       id="path3024"
       d="m 63,182.86218 563,0"
       style="fill:none;stroke:#000000;stroke-width:1px;stroke-linecap:butt;stroke-linejoin:miter;stroke-opacity:1" />
    <path
       inkscape:connector-curvature="0"
       id="path3026"
       d="m 63,204.61218 563,0"
       style="fill:none;stroke:#000000;stroke-width:1px;stroke-linecap:butt;stroke-linejoin:miter;stroke-opacity:1" />
    <path
       inkscape:connector-curvature="0"
       id="path3028"
       d="m 63,226.36218 563,0"
       style="fill:none;stroke:#000000;stroke-width:1px;stroke-linecap:butt;stroke-linejoin:miter;stroke-opacity:1" />
    <path
       transform="matrix(0.7218847,0,0,0.85,274.61091,-54.695673)"
       d="m 196.36068,305.36218 a 16.18034,10 0 1 1 -32.36068,0 16.18034,10 0 1 1 32.36068,0 z"
       sodipodi:ry="10"
       sodipodi:rx="16.18034"
       sodipodi:cy="305.36218"
       sodipodi:cx="180.18034"
       id="path3032"
       style="fill:#ff0000;stroke:none"
       sodipodi:type="arc" />
    <path
       transform="matrix(0.7218847,0,0,0.85,274.61091,-76.695673)"
       d="m 196.36068,305.36218 a 16.18034,10 0 1 1 -32.36068,0 16.18034,10 0 1 1 32.36068,0 z"
       sodipodi:ry="10"
       sodipodi:rx="16.18034"
       sodipodi:cy="305.36218"
       sodipodi:cx="180.18034"
       id="path3034"
       style="fill:#c8ab37;stroke:none"
       sodipodi:type="arc" />
    <path
       sodipodi:type="arc"
       style="fill:#0066ff;stroke:none"
       id="path3030"
       sodipodi:cx="180.18034"
       sodipodi:cy="305.36218"
       sodipodi:rx="16.18034"
       sodipodi:ry="10"
       d="m 196.36068,305.36218 a 16.18034,10 0 1 1 -32.36068,0 16.18034,10 0 1 1 32.36068,0 z"
       transform="matrix(0.7218847,0,0,0.85,275.61091,-98.695673)" />
    <path
       sodipodi:type="arc"
       style="fill:#ff0000;stroke:none"
       id="path3036"
       sodipodi:cx="180.18034"
       sodipodi:cy="305.36218"
       sodipodi:rx="16.18034"
       sodipodi:ry="10"
       d="m 196.36068,305.36218 a 16.18034,10 0 1 1 -32.36068,0 16.18034,10 0 1 1 32.36068,0 z"
       transform="matrix(0.7218847,0,0,0.85,109.61091,-65.695673)" />
    <path
       sodipodi:type="arc"
       style="fill:#c8ab37;stroke:none"
       id="path3038"
       sodipodi:cx="180.18034"
       sodipodi:cy="305.36218"
       sodipodi:rx="16.18034"
       sodipodi:ry="10"
       d="m 196.36068,305.36218 a 16.18034,10 0 1 1 -32.36068,0 16.18034,10 0 1 1 32.36068,0 z"
       transform="matrix(0.7218847,0,0,0.85,109.61091,-87.695673)" />
    <path
       transform="matrix(0.7218847,0,0,0.85,110.61091,-109.69567)"
       d="m 196.36068,305.36218 a 16.18034,10 0 1 1 -32.36068,0 16.18034,10 0 1 1 32.36068,0 z"
       sodipodi:ry="10"
       sodipodi:rx="16.18034"
       sodipodi:cy="305.36218"
       sodipodi:cx="180.18034"
       id="path3040"
       style="fill:#0066ff;stroke:none"
       sodipodi:type="arc" />
    <path
       transform="matrix(0.7218847,0,0,0.85,193.61091,-44.695673)"
       d="m 196.36068,305.36218 a 16.18034,10 0 1 1 -32.36068,0 16.18034,10 0 1 1 32.36068,0 z"
       sodipodi:ry="10"
       sodipodi:rx="16.18034"
       sodipodi:cy="305.36218"
       sodipodi:cx="180.18034"
       id="path3042"
       style="fill:#c8ab37;stroke:none"
       sodipodi:type="arc" />
    <path
       transform="matrix(0.7218847,0,0,0.85,193.61091,-66.695673)"
       d="m 196.36068,305.36218 a 16.18034,10 0 1 1 -32.36068,0 16.18034,10 0 1 1 32.36068,0 z"
       sodipodi:ry="10"
       sodipodi:rx="16.18034"
       sodipodi:cy="305.36218"
       sodipodi:cx="180.18034"
       id="path3044"
       style="fill:#0066ff;stroke:none"
       sodipodi:type="arc" />
    <path
       sodipodi:type="arc"
       style="fill:#ff0000;stroke:none"
       id="path3046"
       sodipodi:cx="180.18034"
       sodipodi:cy="305.36218"
       sodipodi:rx="16.18034"
       sodipodi:ry="10"
       d="m 196.36068,305.36218 a 16.18034,10 0 1 1 -32.36068,0 16.18034,10 0 1 1 32.36068,0 z"
       transform="matrix(0.7218847,0,0,0.85,194.61091,-98.69567)" />
    <path
       sodipodi:type="arc"
       style="fill:#ffffff;stroke:#000000;stroke-width:3.82981568;stroke-miterlimit:4;stroke-dasharray:none"
       id="path3048"
       sodipodi:cx="180.18034"
       sodipodi:cy="305.36218"
       sodipodi:rx="16.18034"
       sodipodi:ry="10"
       d="m 196.36068,305.36218 a 16.18034,10 0 1 1 -32.36068,0 16.18034,10 0 1 1 32.36068,0 z"
       transform="matrix(0.7218847,0,0,0.85,-12.38909,-54.695673)" />
    <path
       sodipodi:type="arc"
       style="fill:#ffffff;stroke:#000000;stroke-width:3.82981568;stroke-miterlimit:4;stroke-dasharray:none"
       id="path3050"
       sodipodi:cx="180.18034"
       sodipodi:cy="305.36218"
       sodipodi:rx="16.18034"
       sodipodi:ry="10"
       d="m 196.36068,305.36218 a 16.18034,10 0 1 1 -32.36068,0 16.18034,10 0 1 1 32.36068,0 z"
       transform="matrix(0.7218847,0,0,0.85,-12.38909,-76.695673)" />
    <path
       transform="matrix(0.7218847,0,0,0.85,-11.38909,-98.695673)"
       d="m 196.36068,305.36218 a 16.18034,10 0 1 1 -32.36068,0 16.18034,10 0 1 1 32.36068,0 z"
       sodipodi:ry="10"
       sodipodi:rx="16.18034"
       sodipodi:cy="305.36218"
       sodipodi:cx="180.18034"
       id="path3052"
       style="fill:#ffffff;stroke:#000000;stroke-width:3.82981568;stroke-miterlimit:4;stroke-dasharray:none"
       sodipodi:type="arc" />
    <path
       sodipodi:type="arc"
       style="fill:#2ca02c;stroke:none"
       id="path3822"
       sodipodi:cx="180.18034"
       sodipodi:cy="305.36218"
       sodipodi:rx="16.18034"
       sodipodi:ry="10"
       d="m 196.36068,305.36218 a 16.18034,10 0 1 1 -32.36068,0 16.18034,10 0 1 1 32.36068,0 z"
       transform="matrix(0.7218847,0,0,0.85,130.61091,-55.69567)" />
    <path
       transform="matrix(0.7218847,0,0,0.85,214.61091,-86.69567)"
       d="m 196.36068,305.36218 a 16.18034,10 0 1 1 -32.36068,0 16.18034,10 0 1 1 32.36068,0 z"
       sodipodi:ry="10"
       sodipodi:rx="16.18034"
       sodipodi:cy="305.36218"
       sodipodi:cx="180.18034"
       id="path3824"
       style="fill:#2ca02c;stroke:none"
       sodipodi:type="arc" />
    <path
       transform="matrix(0.7218847,0,0,0.85,293.61091,-42.695673)"
       d="m 196.36068,305.36218 a 16.18034,10 0 1 1 -32.36068,0 16.18034,10 0 1 1 32.36068,0 z"
       sodipodi:ry="10"
       sodipodi:rx="16.18034"
       sodipodi:cy="305.36218"
       sodipodi:cx="180.18034"
       id="path3826"
       style="fill:#2ca02c;stroke:none"
       sodipodi:type="arc" />
    <path
       style="fill:#808080;fill-opacity:1;stroke:none"
       d="m 264.09375,298.75 0,2.82787 -43.09375,0 0,1.84426 43.09375,0 0,2.82787 6.59375,-1.875 6.625,-1.875 -6.625,-1.875 -6.59375,-1.875 z"
       id="path3877"
       inkscape:connector-curvature="0" />
    <path
       sodipodi:nodetypes="cccccccccc"
       style="fill:#808080;fill-opacity:1;stroke:none"
       d="m 313.84375,311.75 0,2.82787 -36.34375,0 0,1.84426 36.34375,0 0,2.82787 6.59375,-1.875 6.625,-1.875 -6.625,-1.875 z"
       id="path3879"
       inkscape:connector-curvature="0" />
    <path
       inkscape:connector-curvature="0"
       id="path3851"
       d="m 257.09375,286 0,2.82787 -36.34375,0 0,1.84426 36.34375,0 0,2.82787 6.59375,-1.875 6.625,-1.875 -6.625,-1.875 z"
       style="fill:#808080;fill-opacity:1;stroke:none"
       sodipodi:nodetypes="cccccccccc" />
    <path
       inkscape:connector-curvature="0"
       id="path3881"
       d="m 363.59375,298.5 0,2.82787 -21.84375,0 0,1.84426 21.84375,0 0,2.82787 6.59375,-1.875 6.625,-1.875 -6.625,-1.875 z"
       style="fill:#808080;fill-opacity:1;stroke:none"
       sodipodi:nodetypes="cccccccccc" />
    <path
       sodipodi:nodetypes="cccccccccc"
       style="fill:#808080;fill-opacity:1;stroke:none"
       d="m 298.32791,208.1432 -0.39737,2.79981 -21.62702,-3.06948 -0.25915,1.82597 21.62701,3.06947 -0.39737,2.79981 6.7918,-0.92984 6.82274,-0.92546 -6.29579,-2.78733 z"
       id="path3849"
       inkscape:connector-curvature="0" />
    <path
       inkscape:connector-curvature="0"
       id="path3845"
       d="m 380.75945,173.67515 -0.56079,2.77172 -21.40993,-4.3318 -0.36573,1.80763 21.40993,4.33179 -0.56079,2.77171 6.83462,-0.53017 6.86525,-0.52396 -6.12159,-3.15156 z"
       style="fill:#808080;fill-opacity:1;stroke:none"
       sodipodi:nodetypes="cccccccccc" />
    <path
       inkscape:connector-curvature="0"
       id="path3855"
       d="m 378.26692,205.61669 0.26593,2.81533 -42.90277,4.05261 0.17344,1.83608 42.90277,-4.0526 0.26594,2.81533 6.38821,-2.48679 6.4193,-2.4897 -6.77196,-1.24366 -6.74086,-1.2466 z"
       style="fill:#808080;fill-opacity:1;stroke:none" />
    <path
       inkscape:connector-curvature="0"
       id="path3857"
       d="m 408.73158,292.225 -0.41359,2.79746 -42.63036,-6.30264 -0.26973,1.82442 42.63036,6.30265 -0.41359,2.79746 6.79708,-0.89048 6.82799,-0.8859 -6.27954,-2.82377 -6.24862,-2.8192 z"
       style="fill:#808080;fill-opacity:1;stroke:none" />
    <text
       sodipodi:linespacing="125%"
       id="text3867"
       y="130.11218"
       x="234.75"
       style="font-size:40px;font-style:normal;font-weight:normal;line-height:125%;letter-spacing:0px;word-spacing:0px;fill:#000000;fill-opacity:1;stroke:none;font-family:Sans"
       xml:space="preserve"><tspan
         y="130.11218"
         x="234.75"
         id="tspan3869"
         sodipodi:role="line">II</tspan></text>
    <text
       sodipodi:linespacing="125%"
       id="text3871"
       y="130.11218"
       x="315.625"
       style="font-size:40px;font-style:normal;font-weight:normal;line-height:125%;letter-spacing:0px;word-spacing:0px;fill:#000000;fill-opacity:1;stroke:none;font-family:Sans"
       xml:space="preserve"><tspan
         y="130.11218"
         x="315.625"
         id="tspan3873"
         sodipodi:role="line">V</tspan></text>
    <text
       xml:space="preserve"
       style="font-size:40px;font-style:normal;font-weight:normal;line-height:125%;letter-spacing:0px;word-spacing:0px;fill:#000000;fill-opacity:1;stroke:none;font-family:Sans"
       x="396.5"
       y="130.11218"
       id="text3863"
       sodipodi:linespacing="125%"><tspan
         sodipodi:role="line"
         id="tspan3865"
         x="396.5"
         y="130.11218">I</tspan></text>
    <path
       style="fill:#808080;fill-opacity:1;stroke:none"
       d="m 322.98158,295.225 -0.41359,2.79746 -42.63036,-6.30264 -0.26973,1.82442 42.63036,6.30265 -0.41359,2.79746 6.79708,-0.89048 6.82799,-0.8859 -6.27954,-2.82377 -6.24862,-2.8192 z"
       id="path3883"
       inkscape:connector-curvature="0" />
    <path
       inkscape:connector-curvature="0"
       id="path3875"
       d="m 296.46591,163.72708 0.2934,2.81261 -42.86116,4.47119 0.19135,1.8343 42.86117,-4.47118 0.2934,2.8126 6.36362,-2.54902 6.39471,-2.55225 -6.78379,-1.1775 -6.7527,-1.18075 z"
       style="fill:#808080;fill-opacity:1;stroke:none" />
  </g>
</svg>
