<?xml version="1.0" encoding="UTF-8" standalone="no"?>
<!-- Created with Inkscape (http://www.inkscape.org/) -->

<svg
   xmlns:dc="http://purl.org/dc/elements/1.1/"
   xmlns:cc="http://creativecommons.org/ns#"
   xmlns:rdf="http://www.w3.org/1999/02/22-rdf-syntax-ns#"
   xmlns:svg="http://www.w3.org/2000/svg"
   xmlns="http://www.w3.org/2000/svg"
   xmlns:sodipodi="http://sodipodi.sourceforge.net/DTD/sodipodi-0.dtd"
   xmlns:inkscape="http://www.inkscape.org/namespaces/inkscape"
   width="744.09448819"
   height="1052.3622047"
   id="svg2"
   version="1.1"
   inkscape:version="0.48.0 r9654"
   sodipodi:docname="Scale.svg">
  <defs
     id="defs4" />
  <sodipodi:namedview
     id="base"
     pagecolor="#ffffff"
     bordercolor="#666666"
     borderopacity="1.0"
     inkscape:pageopacity="0.0"
     inkscape:pageshadow="2"
     inkscape:zoom="1"
     inkscape:cx="384.15623"
     inkscape:cy="722.28932"
     inkscape:document-units="px"
     inkscape:current-layer="layer1"
     showgrid="false"
     inkscape:window-width="1024"
     inkscape:window-height="747"
     inkscape:window-x="-4"
     inkscape:window-y="-4"
     inkscape:window-maximized="1" />
  <metadata
     id="metadata7">
    <rdf:RDF>
      <cc:Work
         rdf:about="">
        <dc:format>image/svg+xml</dc:format>
        <dc:type
           rdf:resource="http://purl.org/dc/dcmitype/StillImage" />
        <dc:title></dc:title>
      </cc:Work>
    </rdf:RDF>
  </metadata>
  <g
     inkscape:label="Layer 1"
     inkscape:groupmode="layer"
     id="layer1">
    <path
       sodipodi:type="star"
       style="color:#000000;fill:#ffffff;fill-opacity:1;fill-rule:evenodd;stroke:#000000;stroke-width:1;stroke-linecap:butt;stroke-linejoin:round;stroke-miterlimit:4;stroke-opacity:1;stroke-dasharray:3, 3;stroke-dashoffset:0;marker:none;visibility:visible;display:inline;overflow:visible"
       id="path4875"
       sodipodi:sides="7"
       sodipodi:cx="361.63461"
       sodipodi:cy="454.35187"
       sodipodi:r1="190.72365"
       sodipodi:r2="93.777592"
       sodipodi:arg1="1.0471976"
       sodipodi:arg2="1.4959966"
       inkscape:flatsided="false"
       inkscape:rounded="0"
       inkscape:randomized="0"
       d="m 456.99643,619.5234 -88.35381,-71.65616 -76.68719,84.02426 0.93534,-113.75467 -113.50649,-7.56819 89.52016,-70.1936 -64.85309,-93.46164 110.69447,26.22469 32.63601,-108.97657 48.51359,102.89525 105.54953,-42.42992 -50.19902,102.08359 98.9821,56.06732 -111.11073,24.40091 z"
       inkscape:transform-center-x="1.5868805"
       inkscape:transform-center-y="-7.8900924"
       transform="matrix(0.70710678,-0.70710678,0.70710678,0.70710678,-229.93052,287.58451)" />
    <text
       sodipodi:linespacing="100%"
       id="text4881"
       y="147.2249"
       x="349.49246"
       style="font-size:24px;font-style:normal;font-variant:normal;font-weight:bold;font-stretch:normal;text-align:start;line-height:100%;letter-spacing:0px;word-spacing:0px;writing-mode:lr-tb;text-anchor:start;fill:#000000;fill-opacity:1;stroke:none;font-family:Times New Roman;-inkscape-font-specification:'Times New Roman, Bold'"
       xml:space="preserve"><tspan
         y="147.2249"
         x="349.49246"
         id="tspan4883"
         sodipodi:role="line">1</tspan></text>
    <text
       sodipodi:linespacing="100%"
       id="text4885"
       y="240.2249"
       x="516.49243"
       style="font-size:24px;font-style:normal;font-variant:normal;font-weight:bold;font-stretch:normal;text-align:start;line-height:100%;letter-spacing:0px;word-spacing:0px;writing-mode:lr-tb;text-anchor:start;fill:#000000;fill-opacity:1;stroke:none;font-family:Times New Roman;-inkscape-font-specification:'Times New Roman, Bold'"
       xml:space="preserve"><tspan
         y="240.2249"
         x="516.49243"
         id="tspan4887"
         sodipodi:role="line">2</tspan></text>
    <text
       sodipodi:linespacing="100%"
       id="text4889"
       y="410.22491"
       x="546.49243"
       style="font-size:24px;font-style:normal;font-variant:normal;font-weight:bold;font-stretch:normal;text-align:start;line-height:100%;letter-spacing:0px;word-spacing:0px;writing-mode:lr-tb;text-anchor:start;fill:#000000;fill-opacity:1;stroke:none;font-family:Times New Roman;-inkscape-font-specification:'Times New Roman, Bold'"
       xml:space="preserve"><tspan
         y="410.22491"
         x="546.49243"
         id="tspan4891"
         sodipodi:role="line">3</tspan></text>
    <text
       sodipodi:linespacing="100%"
       id="text4893"
       y="538.22491"
       x="436.49246"
       style="font-size:24px;font-style:normal;font-variant:normal;font-weight:bold;font-stretch:normal;text-align:start;line-height:100%;letter-spacing:0px;word-spacing:0px;writing-mode:lr-tb;text-anchor:start;fill:#000000;fill-opacity:1;stroke:none;font-family:Times New Roman;-inkscape-font-specification:'Times New Roman, Bold'"
       xml:space="preserve"><tspan
         y="538.22491"
         x="436.49246"
         id="tspan4895"
         sodipodi:role="line">4</tspan></text>
    <text
       sodipodi:linespacing="100%"
       id="text4897"
       y="534.22491"
       x="226.49246"
       style="font-size:24px;font-style:normal;font-variant:normal;font-weight:bold;font-stretch:normal;text-align:start;line-height:100%;letter-spacing:0px;word-spacing:0px;writing-mode:lr-tb;text-anchor:start;fill:#000000;fill-opacity:1;stroke:none;font-family:Times New Roman;-inkscape-font-specification:'Times New Roman, Bold'"
       xml:space="preserve"><tspan
         y="534.22491"
         x="226.49246"
         id="tspan4899"
         sodipodi:role="line">5</tspan></text>
    <text
       sodipodi:linespacing="100%"
       id="text4901"
       y="388.22491"
       x="124.49246"
       style="font-size:24px;font-style:normal;font-variant:normal;font-weight:bold;font-stretch:normal;text-align:start;line-height:100%;letter-spacing:0px;word-spacing:0px;writing-mode:lr-tb;text-anchor:start;fill:#000000;fill-opacity:1;stroke:none;font-family:Times New Roman;-inkscape-font-specification:'Times New Roman, Bold'"
       xml:space="preserve"><tspan
         y="388.22491"
         x="124.49246"
         id="tspan4903"
         sodipodi:role="line">6</tspan></text>
    <text
       xml:space="preserve"
       style="font-size:24px;font-style:normal;font-variant:normal;font-weight:bold;font-stretch:normal;text-align:start;line-height:100%;letter-spacing:0px;word-spacing:0px;writing-mode:lr-tb;text-anchor:start;fill:#000000;fill-opacity:1;stroke:none;font-family:Times New Roman;-inkscape-font-specification:'Times New Roman, Bold'"
       x="176.49246"
       y="226.2249"
       id="text4877"
       sodipodi:linespacing="100%"><tspan
         sodipodi:role="line"
         id="tspan4879"
         x="176.49246"
         y="226.2249">7</tspan></text>
    <path
       d="m 91,139.36218 a 14,14 0 1 1 -28,0 14,14 0 1 1 28,0 z"
       sodipodi:ry="14"
       sodipodi:rx="14"
       sodipodi:cy="139.36218"
       sodipodi:cx="77"
       id="path4907"
       style="color:#000000;fill:#ffaaaa;fill-opacity:1;fill-rule:evenodd;stroke:none;stroke-width:1;marker:none;visibility:visible;display:inline;overflow:visible"
       sodipodi:type="arc"
       transform="translate(276,29)" />
    <path
       d="m 91,139.36218 a 14,14 0 1 1 -28,0 14,14 0 1 1 28,0 z"
       sodipodi:ry="14"
       sodipodi:rx="14"
       sodipodi:cy="139.36218"
       sodipodi:cx="77"
       id="path4909"
       style="color:#000000;fill:#ffaaaa;fill-opacity:1;fill-rule:evenodd;stroke:none;stroke-width:1;marker:none;visibility:visible;display:inline;overflow:visible"
       sodipodi:type="arc"
       transform="translate(451,261)" />
    <path
       sodipodi:type="arc"
       style="color:#000000;fill:#ffaaaa;fill-opacity:1;fill-rule:evenodd;stroke:none;stroke-width:1;marker:none;visibility:visible;display:inline;overflow:visible"
       id="path4905"
       sodipodi:cx="77"
       sodipodi:cy="139.36218"
       sodipodi:rx="14"
       sodipodi:ry="14"
       d="m 91,139.36218 a 14,14 0 1 1 -28,0 14,14 0 1 1 28,0 z"
       transform="translate(183,379)" />
    <path
       sodipodi:type="arc"
       style="color:#000000;fill:#8dd35f;fill-opacity:1;fill-rule:evenodd;stroke:none;stroke-width:1;marker:none;visibility:visible;display:inline;overflow:visible"
       id="path4913"
       sodipodi:cx="77"
       sodipodi:cy="139.36218"
       sodipodi:rx="14"
       sodipodi:ry="14"
       d="m 91,139.36218 a 14,14 0 1 1 -28,0 14,14 0 1 1 28,0 z"
       transform="translate(420,101)" />
    <path
       sodipodi:type="arc"
       style="color:#000000;fill:#8dd35f;fill-opacity:1;fill-rule:evenodd;stroke:none;stroke-width:1;marker:none;visibility:visible;display:inline;overflow:visible"
       id="path4915"
       sodipodi:cx="77"
       sodipodi:cy="139.36218"
       sodipodi:rx="14"
       sodipodi:ry="14"
       d="m 91,139.36218 a 14,14 0 1 1 -28,0 14,14 0 1 1 28,0 z"
       transform="translate(194,357)" />
    <path
       transform="translate(136,99)"
       d="m 91,139.36218 a 14,14 0 1 1 -28,0 14,14 0 1 1 28,0 z"
       sodipodi:ry="14"
       sodipodi:rx="14"
       sodipodi:cy="139.36218"
       sodipodi:cx="77"
       id="path4911"
       style="color:#000000;fill:#8dd35f;fill-opacity:1;fill-rule:evenodd;stroke:none;stroke-width:1;marker:none;visibility:visible;display:inline;overflow:visible"
       sodipodi:type="arc" />
    <path
       transform="translate(89,247)"
       d="m 91,139.36218 a 14,14 0 1 1 -28,0 14,14 0 1 1 28,0 z"
       sodipodi:ry="14"
       sodipodi:rx="14"
       sodipodi:cy="139.36218"
       sodipodi:cx="77"
       id="path4919"
       style="color:#000000;fill:#5f8dd3;fill-opacity:1;fill-rule:evenodd;stroke:none;stroke-width:1;marker:none;visibility:visible;display:inline;overflow:visible"
       sodipodi:type="arc" />
    <path
       transform="translate(343,382)"
       d="m 91,139.36218 a 14,14 0 1 1 -28,0 14,14 0 1 1 28,0 z"
       sodipodi:ry="14"
       sodipodi:rx="14"
       sodipodi:cy="139.36218"
       sodipodi:cx="77"
       id="path4921"
       style="color:#000000;fill:#5f8dd3;fill-opacity:1;fill-rule:evenodd;stroke:none;stroke-width:1;marker:none;visibility:visible;display:inline;overflow:visible"
       sodipodi:type="arc" />
    <path
       sodipodi:type="arc"
       style="color:#000000;fill:#5f8dd3;fill-opacity:1;fill-rule:evenodd;stroke:none;stroke-width:1;marker:none;visibility:visible;display:inline;overflow:visible"
       id="path4917"
       sodipodi:cx="77"
       sodipodi:cy="139.36218"
       sodipodi:rx="14"
       sodipodi:ry="14"
       d="m 91,139.36218 a 14,14 0 1 1 -28,0 14,14 0 1 1 28,0 z"
       transform="translate(276,56)" />
    <path
       sodipodi:type="arc"
       style="color:#000000;fill:#5f8dd3;fill-opacity:1;fill-rule:evenodd;stroke:none;stroke-width:1;marker:none;visibility:visible;display:inline;overflow:visible"
       id="path4927"
       sodipodi:cx="77"
       sodipodi:cy="139.36218"
       sodipodi:rx="14"
       sodipodi:ry="14"
       d="m 91,139.36218 a 14,14 0 1 1 -28,0 14,14 0 1 1 28,0 z"
       transform="matrix(1.2857143,0,0,1.2857143,368,84.182234)" />
    <path
       sodipodi:type="arc"
       style="color:#000000;fill:#5f8dd3;fill-opacity:1;fill-rule:evenodd;stroke:none;stroke-width:1;marker:none;visibility:visible;display:inline;overflow:visible"
       id="path4929"
       sodipodi:cx="77"
       sodipodi:cy="139.36218"
       sodipodi:rx="14"
       sodipodi:ry="14"
       d="m 91,139.36218 a 14,14 0 1 1 -28,0 14,14 0 1 1 28,0 z"
       transform="matrix(1.2857143,0,0,1.2857143,309,313.18223)" />
    <path
       sodipodi:type="arc"
       style="color:#000000;fill:#5f8dd3;fill-opacity:1;fill-rule:evenodd;stroke:none;stroke-width:1;marker:none;visibility:visible;display:inline;overflow:visible"
       id="path4931"
       sodipodi:cx="77"
       sodipodi:cy="139.36218"
       sodipodi:rx="14"
       sodipodi:ry="14"
       d="m 91,139.36218 a 14,14 0 1 1 -28,0 14,14 0 1 1 28,0 z"
       transform="matrix(1.2857143,0,0,1.2857143,98,201.18223)" />
    <path
       sodipodi:type="arc"
       style="color:#000000;fill:#5f8dd3;fill-opacity:1;fill-rule:evenodd;stroke:none;stroke-width:1;marker:none;visibility:visible;display:inline;overflow:visible"
       id="path4933"
       sodipodi:cx="77"
       sodipodi:cy="139.36218"
       sodipodi:rx="14"
       sodipodi:ry="14"
       d="m 91,139.36218 a 14,14 0 1 1 -28,0 14,14 0 1 1 28,0 z"
       transform="matrix(0.7857143,0,0,0.7857143,170.5,265.86332)" />
    <path
       sodipodi:type="arc"
       style="color:#000000;fill:#5f8dd3;fill-opacity:1;fill-rule:evenodd;stroke:none;stroke-width:1;marker:none;visibility:visible;display:inline;overflow:visible"
       id="path4935"
       sodipodi:cx="77"
       sodipodi:cy="139.36218"
       sodipodi:rx="14"
       sodipodi:ry="14"
       d="m 91,139.36218 a 14,14 0 1 1 -28,0 14,14 0 1 1 28,0 z"
       transform="matrix(0.7857143,0,0,0.7857143,293.5,112.86332)" />
    <path
       transform="matrix(0.7857143,0,0,0.7857143,434.5,284.86332)"
       d="m 91,139.36218 a 14,14 0 1 1 -28,0 14,14 0 1 1 28,0 z"
       sodipodi:ry="14"
       sodipodi:rx="14"
       sodipodi:cy="139.36218"
       sodipodi:cx="77"
       id="path4925"
       style="color:#000000;fill:#5f8dd3;fill-opacity:1;fill-rule:evenodd;stroke:none;stroke-width:1;marker:none;visibility:visible;display:inline;overflow:visible"
       sodipodi:type="arc" />
    <path
       transform="matrix(1.6428571,0,0,1.6428571,117.5,35.410025)"
       d="m 91,139.36218 a 14,14 0 1 1 -28,0 14,14 0 1 1 28,0 z"
       sodipodi:ry="14"
       sodipodi:rx="14"
       sodipodi:cy="139.36218"
       sodipodi:cx="77"
       id="path4939"
       style="color:#000000;fill:#8dd35f;fill-opacity:1;fill-rule:evenodd;stroke:none;stroke-width:1;marker:none;visibility:visible;display:inline;overflow:visible"
       sodipodi:type="arc" />
    <path
       transform="matrix(1.6428571,0,0,1.6428571,307.5,58.410025)"
       d="m 91,139.36218 a 14,14 0 1 1 -28,0 14,14 0 1 1 28,0 z"
       sodipodi:ry="14"
       sodipodi:rx="14"
       sodipodi:cy="139.36218"
       sodipodi:cx="77"
       id="path4941"
       style="color:#000000;fill:#8dd35f;fill-opacity:1;fill-rule:evenodd;stroke:none;stroke-width:1;marker:none;visibility:visible;display:inline;overflow:visible"
       sodipodi:type="arc" />
    <path
       sodipodi:type="arc"
       style="color:#000000;fill:#8dd35f;fill-opacity:1;fill-rule:evenodd;stroke:none;stroke-width:1;marker:none;visibility:visible;display:inline;overflow:visible"
       id="path4937"
       sodipodi:cx="77"
       sodipodi:cy="139.36218"
       sodipodi:rx="14"
       sodipodi:ry="14"
       d="m 91,139.36218 a 14,14 0 1 1 -28,0 14,14 0 1 1 28,0 z"
       transform="matrix(1.6428571,0,0,1.6428571,263.5,228.41003)" />
    <path
       sodipodi:type="arc"
       style="color:#000000;fill:#8dd35f;fill-opacity:1;fill-rule:evenodd;stroke:none;stroke-width:1;marker:none;visibility:visible;display:inline;overflow:visible"
       id="path4945"
       sodipodi:cx="77"
       sodipodi:cy="139.36218"
       sodipodi:rx="14"
       sodipodi:ry="14"
       d="m 91,139.36218 a 14,14 0 1 1 -28,0 14,14 0 1 1 28,0 z"
       transform="matrix(0.78571424,0,0,0.78571424,408.5,276.86333)" />
    <path
       sodipodi:type="arc"
       style="color:#000000;fill:#8dd35f;fill-opacity:1;fill-rule:evenodd;stroke:none;stroke-width:1;marker:none;visibility:visible;display:inline;overflow:visible"
       id="path4947"
       sodipodi:cx="77"
       sodipodi:cy="139.36218"
       sodipodi:rx="14"
       sodipodi:ry="14"
       d="m 91,139.36218 a 14,14 0 1 1 -28,0 14,14 0 1 1 28,0 z"
       transform="matrix(0.78571424,0,0,0.78571424,225.5,358.86333)" />
    <path
       transform="matrix(0.78571424,0,0,0.78571424,213.5,172.86333)"
       d="m 91,139.36218 a 14,14 0 1 1 -28,0 14,14 0 1 1 28,0 z"
       sodipodi:ry="14"
       sodipodi:rx="14"
       sodipodi:cy="139.36218"
       sodipodi:cx="77"
       id="path4943"
       style="color:#000000;fill:#8dd35f;fill-opacity:1;fill-rule:evenodd;stroke:none;stroke-width:1;marker:none;visibility:visible;display:inline;overflow:visible"
       sodipodi:type="arc" />
  </g>
</svg>
