<?xml version="1.0" encoding="UTF-8" standalone="no"?>
<!-- Created with Inkscape (http://www.inkscape.org/) -->

<svg
   xmlns:dc="http://purl.org/dc/elements/1.1/"
   xmlns:cc="http://creativecommons.org/ns#"
   xmlns:rdf="http://www.w3.org/1999/02/22-rdf-syntax-ns#"
   xmlns:svg="http://www.w3.org/2000/svg"
   xmlns="http://www.w3.org/2000/svg"
   xmlns:sodipodi="http://sodipodi.sourceforge.net/DTD/sodipodi-0.dtd"
   xmlns:inkscape="http://www.inkscape.org/namespaces/inkscape"
   width="744.09448819"
   height="1052.3622047"
   id="svg2"
   sodipodi:version="0.32"
   inkscape:version="0.48.0 r9654"
   sodipodi:docname="instruments.svg"
   inkscape:output_extension="org.inkscape.output.svg.inkscape"
   version="1.1">
  <defs
     id="defs4">
    <inkscape:perspective
       sodipodi:type="inkscape:persp3d"
       inkscape:vp_x="0 : 526.18109 : 1"
       inkscape:vp_y="6.1230318e-14 : 1000 : 0"
       inkscape:vp_z="744.09448 : 526.18109 : 1"
       inkscape:persp3d-origin="372.04724 : 350.78739 : 1"
       id="perspective10" />
  </defs>
  <sodipodi:namedview
     id="base"
     pagecolor="#ffffff"
     bordercolor="#666666"
     borderopacity="1.0"
     gridtolerance="10000"
     guidetolerance="10"
     objecttolerance="10"
     inkscape:pageopacity="0.0"
     inkscape:pageshadow="2"
     inkscape:zoom="0.9899495"
     inkscape:cx="295.42522"
     inkscape:cy="773.13515"
     inkscape:document-units="px"
     inkscape:current-layer="layer2"
     showgrid="false"
     inkscape:window-width="1024"
     inkscape:window-height="747"
     inkscape:window-x="-4"
     inkscape:window-y="-4"
     inkscape:window-maximized="1" />
  <metadata
     id="metadata7">
    <rdf:RDF>
      <cc:Work
         rdf:about="">
        <dc:format>image/svg+xml</dc:format>
        <dc:type
           rdf:resource="http://purl.org/dc/dcmitype/StillImage" />
        <dc:title />
      </cc:Work>
    </rdf:RDF>
  </metadata>
  <g
     inkscape:label="Layer 1"
     inkscape:groupmode="layer"
     id="layer1">
    <rect
       style="opacity:1;color:#000000;fill:#ffffff;fill-opacity:1;fill-rule:evenodd;stroke:none;stroke-width:1;marker:none;visibility:visible;display:inline;overflow:visible"
       id="rect4456"
       width="570.73615"
       height="333.35031"
       x="62.629459"
       y="117.97108"
       inkscape:export-filename="H:\assembla\Unfuddle\_RaSVN\bourree\trunk\trunk\Sound\Ensemble\g5135.png"
       inkscape:export-xdpi="75.596146"
       inkscape:export-ydpi="75.596146" />
    <text
       xml:space="preserve"
       style="font-size:16px;font-style:normal;font-variant:normal;font-weight:normal;font-stretch:normal;text-align:center;line-height:100%;writing-mode:lr-tb;text-anchor:middle;fill:#000000;fill-opacity:1;stroke:none;font-family:Arial;-inkscape-font-specification:Arial"
       x="354.72665"
       y="144.61574"
       id="text2386"
       sodipodi:linespacing="100%"
       inkscape:export-filename="H:\assembla\Unfuddle\_RaSVN\bourree\trunk\trunk\Sound\Ensemble\g5135.png"
       inkscape:export-xdpi="75.596146"
       inkscape:export-ydpi="75.596146"><tspan
         sodipodi:role="line"
         id="tspan3160"
         x="354.72665"
         y="144.61574">Диапазоны инструментов ансамбля</tspan></text>
    <g
       id="g4226"
       transform="translate(0,120)"
       inkscape:export-filename="H:\assembla\Unfuddle\_RaSVN\bourree\trunk\trunk\Sound\Ensemble\g5135.png"
       inkscape:export-xdpi="75.596146"
       inkscape:export-ydpi="75.596146">
      <g
         transform="translate(-5.7142857,22.142857)"
         id="g4206">
        <path
           style="fill:none;stroke:#000000;stroke-width:1px;stroke-linecap:butt;stroke-linejoin:miter;stroke-opacity:1"
           d="m 82.527932,136.72454 546.492528,0"
           id="path3515"
           inkscape:connector-curvature="0"
           inkscape:export-filename="H:\assembla\Unfuddle\_RaSVN\bourree\trunk\trunk\Sound\Recorder\g5135.png"
           inkscape:export-xdpi="74.056747"
           inkscape:export-ydpi="74.056747" />
        <path
           style="fill:none;stroke:#000000;stroke-width:1px;stroke-linecap:butt;stroke-linejoin:miter;stroke-opacity:1"
           d="m 82.527932,146.57354 546.492528,0"
           id="path3517"
           inkscape:connector-curvature="0"
           inkscape:export-filename="H:\assembla\Unfuddle\_RaSVN\bourree\trunk\trunk\Sound\Recorder\g5135.png"
           inkscape:export-xdpi="74.056747"
           inkscape:export-ydpi="74.056747" />
        <path
           style="fill:none;stroke:#000000;stroke-width:1px;stroke-linecap:butt;stroke-linejoin:miter;stroke-opacity:1"
           d="m 82.527932,156.42251 546.492528,0"
           id="path3519"
           inkscape:connector-curvature="0"
           inkscape:export-filename="H:\assembla\Unfuddle\_RaSVN\bourree\trunk\trunk\Sound\Recorder\g5135.png"
           inkscape:export-xdpi="74.056747"
           inkscape:export-ydpi="74.056747" />
        <path
           style="fill:none;stroke:#000000;stroke-width:1px;stroke-linecap:butt;stroke-linejoin:miter;stroke-opacity:1"
           d="m 82.527932,166.27151 546.492528,0"
           id="path3521"
           inkscape:connector-curvature="0"
           inkscape:export-filename="H:\assembla\Unfuddle\_RaSVN\bourree\trunk\trunk\Sound\Recorder\g5135.png"
           inkscape:export-xdpi="74.056747"
           inkscape:export-ydpi="74.056747" />
        <path
           style="fill:none;stroke:#000000;stroke-width:1px;stroke-linecap:butt;stroke-linejoin:miter;stroke-opacity:1"
           d="m 82.527932,176.12049 546.492528,0"
           id="path3523"
           inkscape:connector-curvature="0"
           inkscape:export-filename="H:\assembla\Unfuddle\_RaSVN\bourree\trunk\trunk\Sound\Recorder\g5135.png"
           inkscape:export-xdpi="74.056747"
           inkscape:export-ydpi="74.056747" />
      </g>
      <path
         inkscape:export-ydpi="74.056747"
         inkscape:export-xdpi="74.056747"
         inkscape:export-filename="H:\assembla\Unfuddle\_RaSVN\bourree\trunk\trunk\Sound\Recorder\g5135.png"
         inkscape:connector-curvature="0"
         style="font-size:43.51511002px;font-style:normal;font-variant:normal;font-weight:normal;font-stretch:normal;text-align:start;line-height:100%;writing-mode:lr-tb;text-anchor:start;fill:#000000;fill-opacity:1;stroke:none;font-family:Odnoglas;-inkscape-font-specification:Odnoglas"
         d="m 105.43601,137.67291 c -0.17354,6e-5 -0.3589,0.0736 -0.5625,0.21875 -2.20446,1.97255 -3.90187,4.77801 -5.0625,8.375 -0.8995,2.72683 -1.34377,5.42458 -1.34375,8.09375 l 0,0.5 0,0.78125 c 0.0292,0.57993 0.067,1.16973 0.125,1.75 0.058,0.58037 0.13196,1.17015 0.21875,1.75 0.0876,0.81276 0.21564,1.62525 0.375,2.4375 0.15934,0.81231 0.35885,1.62572 0.5625,2.4375 -0.31962,0.31963 -0.63092,0.61633 -0.90625,0.90625 -0.27535,0.28997 -0.55134,0.55136 -0.8125,0.8125 l -0.78125,0.78125 c -0.63833,0.66756 -1.17526,1.2569 -1.625,1.75 -0.44975,0.49316 -0.834637,0.90007 -1.124997,1.21875 -2.00171,2.32133 -3.48047,4.42477 -4.4375,6.28125 -0.17442,0.28952 -0.32152,0.5534 -0.4375,0.84375 l -0.34375,0.8125 c -0.37715,0.92783 -0.65518,1.83841 -0.84375,2.78125 -0.18858,0.94288 -0.24592,1.9171 -0.1875,2.875 l 0.03125,1.125 c 0.02832,1.15978 0.17341,2.26785 0.40625,3.3125 l 0.21875,0.78125 c 0.31959,1.18899 0.76588,2.29908 1.375,3.34375 0.60909,1.04468 1.3838,2.04093 2.3125,2.96875 1.91404,1.94416 4.025287,3.67689 6.499997,3.78125 1.40743,0.3944 3.6344,0.33744 5.1875,0.21875 0.67648,-0.0517 2.21875,-0.4375 2.21875,-0.4375 l 0,0.0312 c 0.007,-0.003 0.0249,0.003 0.0312,0 l 0.0312,0.1875 0.15625,0.78125 0.0312,0 1.25,6 c 0.14428,0.57987 0.23739,1.13389 0.28125,1.65625 0.0438,0.52233 0.0625,1.0381 0.0625,1.53125 -3e-5,1.82728 -0.51785,3.30605 -1.5625,4.4375 -1.0447,1.13142 -2.55878,1.79928 -4.53125,2.03125 -1.10223,-10e-6 -2.02901,-0.18538 -2.8125,-0.5625 -0.98626,-0.46393 -1.5,-1.13177 -1.5,-2.03125 0.37713,0.20361 0.81935,0.28123 1.3125,0.28125 0.92868,-2e-5 1.77693,-0.37072 2.53125,-1.125 0.72506,-0.72508 1.09373,-1.57829 1.09375,-2.59375 -2e-5,-1.56702 -0.51785,-2.7104 -1.5625,-3.40625 -0.78263,-0.52235 -1.77686,-0.78126 -2.9375,-0.78125 -1.16067,-10e-6 -2.12569,0.55606 -2.9375,1.6875 -0.783517,1.10221 -1.187517,2.39766 -1.187497,3.90625 0.17351,1.82728 1.057987,3.30111 2.624997,4.375 1.53778,1.1022 3.35397,1.65622 5.5,1.65625 2.32128,-0.20275 4.16579,-1.01365 5.5,-2.40625 1.2766,-1.3634 1.90623,-3.17173 1.90625,-5.40625 -0.0292,-0.14431 -0.0313,-0.29638 -0.0312,-0.5 -3e-5,-0.17353 -4e-5,-0.35888 0,-0.5625 -0.0292,-0.20274 -0.0625,-0.38608 -0.0625,-0.53125 -2e-5,-0.1452 -0.003,-0.29027 -0.0312,-0.40625 l -1.4375,-7.25 -0.1875,-0.78125 -0.125,-0.78125 c 2.11765,-1.04379 3.81708,-2.44696 5.09375,-4.1875 1.04376,-1.50858 1.63604,-3.21005 1.78125,-5.125 l 0.0625,-0.78125 c -4e-5,-2.90117 -0.88654,-5.3762 -2.65625,-7.40625 -1.21822,-1.33504 -2.54987,-2.22359 -4,-2.6875 l -4.5,-0.8125 -1.375,-6.8125 c 0.4931,-0.49397 0.95648,-1.01135 1.40625,-1.5625 0.44972,-0.55108 0.87486,-1.13885 1.28125,-1.71875 l 0.46875,-0.78125 c 0.63829,-1.04464 1.22763,-2.15473 1.75,-3.34375 0.40545,-1.04464 0.79324,-2.13314 1.15625,-3.25 0.36295,-1.11679 0.64099,-2.28177 0.84375,-3.5 l 0.0937,-0.78125 c 0.0283,-0.2027 0.0479,-0.40512 0.0625,-0.59375 0.0146,-0.18853 0.0333,-0.39302 0.0625,-0.625 l 0.125,-2.3125 c 0.0867,-1.56696 0.0107,-3.08556 -0.25,-4.59375 -0.26075,-1.50808 -0.629,-3.02261 -1.09375,-4.53125 -0.92784,-3.0171 -1.85256,-4.53119 -2.78125,-4.53125 z m 0.34375,5.875 c 0.75427,6e-5 1.31033,0.70325 1.6875,2.125 0.34879,1.4502 0.53121,3.18294 0.53125,5.15625 -3e-5,1.39265 -0.25895,2.72633 -0.78125,4.03125 l -0.3125,0.78125 c -0.14522,0.34797 -0.31145,0.69754 -0.5,1.03125 -0.1886,0.33381 -0.39306,0.65008 -0.625,0.96875 -0.55069,0.81276 -1.23361,1.64439 -2.03125,2.5 -0.7977,0.8557 -1.70738,1.75884 -2.78125,2.6875 -0.49313,-2.11764 -0.75002,-3.93091 -0.75,-5.46875 -2e-5,-0.26112 -2e-5,-0.52003 0,-0.78125 -2e-5,-0.29034 0.002,-0.61875 0.0312,-0.9375 l 0.125,-0.78125 c 0.0867,-0.75425 0.2489,-1.5294 0.4375,-2.3125 0.18855,-0.78302 0.39507,-1.59552 0.65625,-2.4375 0.95789,-3.04544 2.1033,-5.11649 3.4375,-6.21875 0.26114,-0.23278 0.55628,-0.34369 0.875,-0.34375 z m -4.65625,27.34375 1.25,6.09375 c -1.74143,0.40637 -3.559,1.84422 -4.71875,3.46875 -1.27665,1.76977 -1.9375,3.65251 -1.9375,5.625 -10e-6,0.26118 0.0166,0.48682 0.0312,0.71875 0.0146,0.23196 0.0342,0.48682 0.0625,0.71875 l 0.1875,0.78125 c 0.26026,0.98626 0.70248,1.911 1.3125,2.78125 1.04377,1.50859 2.34214,2.35977 3.9375,2.5625 0.29037,0 0.43748,-0.11179 0.4375,-0.34375 -2e-5,-0.11597 -0.11386,-0.22573 -0.375,-0.3125 -0.98626,-0.26116 -1.79718,-0.89078 -2.40625,-1.90625 -0.26118,-0.4639 -0.44856,-0.92525 -0.59375,-1.375 -0.14521,-0.44973 -0.25293,-0.91311 -0.28125,-1.40625 l 0.0625,-0.78125 0.0625,-0.53125 c 0.49311,-1.7113 1.41288,-2.96851 2.71875,-3.78125 0.7826,-0.4931 1.66998,-0.82151 2.65625,-0.9375 l 0.9375,5.25 0.1875,0.78125 1.59375,8.46875 c -0.20364,0.0575 -0.42432,0.11492 -0.65625,0.1875 -0.23198,0.0726 -0.45557,0.16031 -0.6875,0.21875 -0.49314,0.0868 -1.01096,0.125 -1.5625,0.125 -3.42266,0 -6.2322,-0.96005 -8.437497,-2.875 -1.94329,-1.62455 -3.08957,-3.65938 -3.4375,-6.125 l -0.03125,-0.78125 c -0.02922,-0.14518 -0.06252,-0.29228 -0.0625,-0.4375 -1e-5,-0.17351 -2e-5,-0.3548 0,-0.5 -1e-5,-2.20442 0.48251,-4.27457 1.46875,-6.21875 0.89912,-1.85027 1.73001,-3.11373 3.718747,-5.125 0.49311,-0.55153 1.10652,-1.19532 1.875,-1.90625 0.76844,-0.71089 1.67203,-1.50968 2.6875,-2.4375 z m 3.65625,11.21875 c 2.03,2e-5 3.72944,0.66583 5.09375,2 0.98621,0.92871 1.61381,2.0721 1.875,3.40625 l 0.125,0.78125 c 0.0292,0.11599 0.0312,0.22779 0.0312,0.34375 -3e-5,0.11599 -4e-5,0.22779 0,0.34375 -3e-5,1.683 -0.37277,3.15885 -1.15625,4.40625 -0.75432,1.27663 -1.78792,2.24164 -3.09375,2.9375 l -1.65625,-8.03125 -0.125,-0.78125 -1.09375,-5.40625 z"
         id="path3525" />
      <g
         transform="translate(-5.7142857,-2.142857)"
         id="g4199">
        <path
           inkscape:export-ydpi="74.056747"
           inkscape:export-xdpi="74.056747"
           inkscape:export-filename="H:\assembla\Unfuddle\_RaSVN\bourree\trunk\trunk\Sound\Recorder\g5135.png"
           inkscape:connector-curvature="0"
           id="path4187"
           d="m 82.527932,236.72454 546.492528,0"
           style="fill:none;stroke:#000000;stroke-width:1px;stroke-linecap:butt;stroke-linejoin:miter;stroke-opacity:1" />
        <path
           inkscape:export-ydpi="74.056747"
           inkscape:export-xdpi="74.056747"
           inkscape:export-filename="H:\assembla\Unfuddle\_RaSVN\bourree\trunk\trunk\Sound\Recorder\g5135.png"
           inkscape:connector-curvature="0"
           id="path4189"
           d="m 82.527932,246.57354 546.492528,0"
           style="fill:none;stroke:#000000;stroke-width:1px;stroke-linecap:butt;stroke-linejoin:miter;stroke-opacity:1" />
        <path
           inkscape:export-ydpi="74.056747"
           inkscape:export-xdpi="74.056747"
           inkscape:export-filename="H:\assembla\Unfuddle\_RaSVN\bourree\trunk\trunk\Sound\Recorder\g5135.png"
           inkscape:connector-curvature="0"
           id="path4191"
           d="m 82.527932,256.42251 546.492528,0"
           style="fill:none;stroke:#000000;stroke-width:1px;stroke-linecap:butt;stroke-linejoin:miter;stroke-opacity:1" />
        <path
           inkscape:export-ydpi="74.056747"
           inkscape:export-xdpi="74.056747"
           inkscape:export-filename="H:\assembla\Unfuddle\_RaSVN\bourree\trunk\trunk\Sound\Recorder\g5135.png"
           inkscape:connector-curvature="0"
           id="path4193"
           d="m 82.527932,266.27151 546.492528,0"
           style="fill:none;stroke:#000000;stroke-width:1px;stroke-linecap:butt;stroke-linejoin:miter;stroke-opacity:1" />
        <path
           inkscape:export-ydpi="74.056747"
           inkscape:export-xdpi="74.056747"
           inkscape:export-filename="H:\assembla\Unfuddle\_RaSVN\bourree\trunk\trunk\Sound\Recorder\g5135.png"
           inkscape:connector-curvature="0"
           id="path4195"
           d="m 82.527932,276.12049 546.492528,0"
           style="fill:none;stroke:#000000;stroke-width:1px;stroke-linecap:butt;stroke-linejoin:miter;stroke-opacity:1" />
      </g>
      <path
         style="fill:#000000;fill-opacity:1;stroke:none"
         d="m 102.6586,234.84274 c -2.14517,0.0207 -4.04192,0.57479 -5.3125,0.90625 -2.904179,0.75761 -6.827729,4.78918 -5.312499,10.21875 2.88128,6.66222 11.268399,1.1004 7.718749,-3.40625 -2.33214,-2.82311 -5.437499,0 -5.437499,0 0,0 0.12627,-0.36231 0,-1.625 -0.12627,-1.26269 2.156249,-3.15625 2.156249,-3.15625 0,0 3.27316,-2.54648 7.1875,-1.03125 3.91434,1.51523 4.56365,4.07243 5.06758,8.60771 0.50508,4.54569 -2.03125,8.95352 -2.03125,8.95352 -3.34191,5.85654 -5.02315,8.34968 -14.786329,13.37627 0,0 -8.569,2.42021 1.40625,1.03125 9.975259,-1.38896 15.676519,-9.58212 17.031249,-11.75 1.35473,-2.16788 6.61282,-11.54323 1.03125,-18.0625 -2.77657,-3.24304 -5.96068,-4.08908 -8.71875,-4.0625 z m 16.90625,3.3125 c -1.25526,0 -2.25,0.99474 -2.25,2.25 0,1.25526 0.99474,2.28125 2.25,2.28125 1.25525,0 2.28125,-1.02599 2.28125,-2.28125 0,-1.25526 -1.026,-2.25 -2.28125,-2.25 z m -0.125,10.21875 c -1.25526,0 -2.28125,1.02599 -2.28125,2.28125 0,1.25526 1.02599,2.25 2.28125,2.25 1.25525,0 2.28125,-0.99474 2.28125,-2.25 0,-1.25526 -1.026,-2.28125 -2.28125,-2.28125 z"
         id="path4197"
         inkscape:connector-curvature="0"
         sodipodi:nodetypes="cscccscssccszscssssssssss" />
    </g>
  </g>
  <g
     inkscape:groupmode="layer"
     id="layer2"
     inkscape:label="Layer">
    <path
       inkscape:connector-curvature="0"
       id="path3086"
       d="m 373.48507,250.55383 27.16565,0"
       style="fill:none;stroke:#000000;stroke-width:1px;stroke-linecap:butt;stroke-linejoin:miter;stroke-opacity:1"
       inkscape:export-filename="H:\assembla\Unfuddle\_RaSVN\bourree\trunk\trunk\Sound\Ensemble\g5135.png"
       inkscape:export-xdpi="75.596146"
       inkscape:export-ydpi="75.596146" />
    <path
       inkscape:export-ydpi="75.596146"
       inkscape:export-xdpi="75.596146"
       inkscape:export-filename="H:\assembla\Unfuddle\_RaSVN\bourree\trunk\trunk\Sound\Ensemble\g5135.png"
       style="fill:none;stroke:#000000;stroke-width:1px;stroke-linecap:butt;stroke-linejoin:miter;stroke-opacity:1"
       d="m 373.48721,260.03389 27.16133,0"
       id="path3090"
       inkscape:connector-curvature="0" />
    <path
       inkscape:export-ydpi="75.596146"
       inkscape:export-xdpi="75.596146"
       inkscape:export-filename="H:\assembla\Unfuddle\_RaSVN\bourree\trunk\trunk\Sound\Ensemble\g5135.png"
       id="path4400"
       d="m 544.88478,308.68199 c -1.25192,0 -2.39745,0.18476 -3.46151,0.53946 l -1.25873,0.56193 c -1.56523,0.8552 -2.33618,2.05362 -2.31516,3.61885 0.042,1.6066 0.86588,2.82897 2.4725,3.66381 1.27293,0.64696 2.78944,0.96651 4.5629,0.96652 1.77345,0 3.33993,-0.32102 4.67529,-0.989 1.64862,-0.83484 2.47247,-2.05574 2.4725,-3.64133 -3e-5,-1.56523 -0.79492,-2.76365 -2.36011,-3.61885 l -1.30369,-0.56193 c -1.06408,-0.35469 -2.23208,-0.53946 -3.48399,-0.53946 z m -0.56193,0.6968 c 0.80444,-0.0364 1.62723,0.0593 2.36012,0.40459 0.47092,0.22188 0.56393,0.33771 0.87662,0.62936 0.18783,0.22986 0.36209,0.45851 0.53945,0.71928 0.17733,0.26076 0.35013,0.53937 0.51698,0.83166 0.60493,1.14747 0.89907,1.99739 0.89909,2.53994 -1e-5,0.93861 -0.50789,1.6277 -1.55093,2.04544 -0.81382,0.33366 -1.8485,0.49449 -3.0794,0.4945 -1.31496,-2e-5 -2.29967,-0.50286 -2.96701,-1.48351 -1.16851,-1.71105 -1.75323,-2.96238 -1.75323,-3.77619 -10e-6,-0.33367 0.10581,-0.62782 0.31469,-0.89909 0.39606,-0.48015 0.91765,-0.88089 1.61836,-1.10139 0.63474,-0.19974 1.42082,-0.3682 2.22526,-0.40459 z"
       style="font-size:43.51511002px;font-style:normal;font-variant:normal;font-weight:normal;font-stretch:normal;text-align:start;line-height:100%;writing-mode:lr-tb;text-anchor:start;fill:#000000;fill-opacity:1;stroke:none;font-family:Odnoglas;-inkscape-font-specification:Odnoglas"
       inkscape:connector-curvature="0" />
    <path
       inkscape:connector-curvature="0"
       style="font-size:43.51511002px;font-style:normal;font-variant:normal;font-weight:normal;font-stretch:normal;text-align:start;line-height:100%;writing-mode:lr-tb;text-anchor:start;fill:#000000;fill-opacity:1;stroke:none;font-family:Odnoglas;-inkscape-font-specification:Odnoglas"
       d="m 544.88478,250.53915 c -1.25192,0 -2.39745,0.18476 -3.46151,0.53946 l -1.25873,0.56193 c -1.56523,0.8552 -2.33618,2.05362 -2.31516,3.61885 0.042,1.6066 0.86588,2.82897 2.4725,3.66381 1.27293,0.64696 2.78944,0.96651 4.5629,0.96652 1.77345,0 3.33993,-0.32102 4.67529,-0.989 1.64862,-0.83484 2.47247,-2.05574 2.4725,-3.64133 -3e-5,-1.56523 -0.79492,-2.76365 -2.36011,-3.61885 l -1.30369,-0.56193 c -1.06408,-0.35469 -2.23208,-0.53946 -3.48399,-0.53946 z m -0.56193,0.6968 c 0.80444,-0.0364 1.62723,0.0593 2.36012,0.40459 0.47092,0.22188 0.56393,0.33771 0.87662,0.62936 0.18783,0.22986 0.36209,0.45851 0.53945,0.71928 0.17733,0.26076 0.35013,0.53937 0.51698,0.83166 0.60493,1.14747 0.89907,1.99739 0.89909,2.53994 -1e-5,0.93861 -0.50789,1.6277 -1.55093,2.04544 -0.81382,0.33366 -1.8485,0.49449 -3.0794,0.4945 -1.31496,-2e-5 -2.29967,-0.50286 -2.96701,-1.48351 -1.16851,-1.71105 -1.75323,-2.96238 -1.75323,-3.77619 -10e-6,-0.33367 0.10581,-0.62782 0.31469,-0.89909 0.39606,-0.48015 0.91765,-0.88089 1.61836,-1.10139 0.63474,-0.19974 1.42082,-0.3682 2.22526,-0.40459 z"
       id="path4285"
       inkscape:export-filename="H:\assembla\Unfuddle\_RaSVN\bourree\trunk\trunk\Sound\Ensemble\g5135.png"
       inkscape:export-xdpi="75.596146"
       inkscape:export-ydpi="75.596146" />
    <path
       inkscape:connector-curvature="0"
       style="font-size:43.51511002px;font-style:normal;font-variant:normal;font-weight:normal;font-stretch:normal;text-align:start;line-height:100%;writing-mode:lr-tb;text-anchor:start;fill:#000000;fill-opacity:1;stroke:none;font-family:Odnoglas;-inkscape-font-specification:Odnoglas"
       d="m 220.19473,313.97064 c -1.25192,0 -2.39745,0.18476 -3.46151,0.53946 l -1.25873,0.56193 c -1.56523,0.8552 -2.33618,2.05362 -2.31516,3.61885 0.042,1.6066 0.86588,2.82897 2.4725,3.66381 1.27293,0.64696 2.78944,0.96651 4.5629,0.96652 1.77345,0 3.33993,-0.32102 4.67529,-0.989 1.64862,-0.83484 2.47247,-2.05574 2.4725,-3.64133 -3e-5,-1.56523 -0.79492,-2.76365 -2.36011,-3.61885 l -1.30369,-0.56193 c -1.06408,-0.35469 -2.23208,-0.53946 -3.48399,-0.53946 z m -0.56193,0.6968 c 0.80444,-0.0364 1.62723,0.0593 2.36012,0.40459 0.47092,0.22188 0.56393,0.33771 0.87662,0.62936 0.18783,0.22986 0.36209,0.45851 0.53945,0.71928 0.17733,0.26076 0.35013,0.53937 0.51698,0.83166 0.60493,1.14747 0.89907,1.99739 0.89909,2.53994 -1e-5,0.93861 -0.50789,1.6277 -1.55093,2.04544 -0.81382,0.33366 -1.8485,0.49449 -3.0794,0.4945 -1.31496,-2e-5 -2.29967,-0.50286 -2.96701,-1.48351 -1.16851,-1.71105 -1.75323,-2.96238 -1.75323,-3.77619 -1e-5,-0.33367 0.10581,-0.62782 0.31469,-0.89909 0.39606,-0.48015 0.91765,-0.88089 1.61836,-1.10139 0.63474,-0.19974 1.42082,-0.3682 2.22526,-0.40459 z"
       id="path4287"
       inkscape:export-filename="H:\assembla\Unfuddle\_RaSVN\bourree\trunk\trunk\Sound\Ensemble\g5135.png"
       inkscape:export-xdpi="75.596146"
       inkscape:export-ydpi="75.596146" />
    <path
       inkscape:connector-curvature="0"
       style="font-size:43.51511002px;font-style:normal;font-variant:normal;font-weight:normal;font-stretch:normal;text-align:start;line-height:100%;writing-mode:lr-tb;text-anchor:start;fill:#000000;fill-opacity:1;stroke:none;font-family:Odnoglas;-inkscape-font-specification:Odnoglas"
       d="m 221.20488,345.28537 c -1.25192,0 -2.39745,0.18476 -3.46151,0.53946 l -1.25873,0.56193 c -1.56523,0.8552 -2.33618,2.05362 -2.31516,3.61885 0.042,1.6066 0.86588,2.82897 2.4725,3.66381 1.27293,0.64696 2.78944,0.96651 4.5629,0.96652 1.77345,0 3.33993,-0.32102 4.67529,-0.989 1.64863,-0.83484 2.47248,-2.05574 2.47251,-3.64133 -3e-5,-1.56523 -0.79492,-2.76365 -2.36012,-3.61885 l -1.30369,-0.56193 c -1.06408,-0.35469 -2.23208,-0.53946 -3.48399,-0.53946 z m -0.56193,0.6968 c 0.80444,-0.0364 1.62723,0.0593 2.36012,0.40459 0.47092,0.22188 0.56393,0.33771 0.87662,0.62936 0.18783,0.22986 0.36209,0.45851 0.53945,0.71928 0.17733,0.26076 0.35013,0.53937 0.51698,0.83166 0.60493,1.14747 0.89907,1.99739 0.89909,2.53994 -1e-5,0.93861 -0.50789,1.6277 -1.55093,2.04544 -0.81382,0.33366 -1.8485,0.49449 -3.0794,0.4945 -1.31496,-2e-5 -2.29967,-0.50286 -2.96701,-1.48351 -1.16851,-1.71105 -1.75323,-2.96238 -1.75323,-3.77619 -1e-5,-0.33367 0.10581,-0.62782 0.31469,-0.89909 0.39606,-0.48015 0.91765,-0.88089 1.61836,-1.10139 0.63474,-0.19974 1.42082,-0.3682 2.22526,-0.40459 z"
       id="path4289"
       inkscape:export-filename="H:\assembla\Unfuddle\_RaSVN\bourree\trunk\trunk\Sound\Ensemble\g5135.png"
       inkscape:export-xdpi="75.596146"
       inkscape:export-ydpi="75.596146" />
    <path
       inkscape:connector-curvature="0"
       style="font-size:43.51511002px;font-style:normal;font-variant:normal;font-weight:normal;font-stretch:normal;text-align:start;line-height:100%;writing-mode:lr-tb;text-anchor:start;fill:#000000;fill-opacity:1;stroke:none;font-family:Odnoglas;-inkscape-font-specification:Odnoglas"
       d="m 221.14361,355.3869 c -1.25192,0 -2.39745,0.18476 -3.46151,0.53946 l -1.25873,0.56193 c -1.56523,0.8552 -2.33618,2.05362 -2.31516,3.61885 0.042,1.6066 0.86588,2.82897 2.4725,3.66381 1.27293,0.64696 2.78944,0.96651 4.5629,0.96652 1.77345,0 3.33993,-0.32102 4.67529,-0.989 1.64862,-0.83484 2.47247,-2.05574 2.4725,-3.64133 -3e-5,-1.56523 -0.79492,-2.76365 -2.36011,-3.61885 l -1.30369,-0.56193 c -1.06408,-0.35469 -2.23208,-0.53946 -3.48399,-0.53946 z m -0.56193,0.6968 c 0.80444,-0.0364 1.62723,0.0593 2.36012,0.40459 0.47092,0.22188 0.56393,0.33771 0.87662,0.62936 0.18783,0.22986 0.36209,0.45851 0.53945,0.71928 0.17733,0.26076 0.35013,0.53937 0.51698,0.83166 0.60493,1.14747 0.89907,1.99739 0.89909,2.53994 -1e-5,0.93861 -0.50789,1.6277 -1.55093,2.04544 -0.81382,0.33366 -1.8485,0.49449 -3.0794,0.4945 -1.31496,-2e-5 -2.29967,-0.50286 -2.96701,-1.48351 -1.16851,-1.71105 -1.75323,-2.96238 -1.75323,-3.77619 -1e-5,-0.33367 0.10581,-0.62782 0.31469,-0.89909 0.39606,-0.48015 0.91765,-0.88089 1.61836,-1.10139 0.63474,-0.19974 1.42082,-0.3682 2.22526,-0.40459 z"
       id="path4291"
       inkscape:export-filename="H:\assembla\Unfuddle\_RaSVN\bourree\trunk\trunk\Sound\Ensemble\g5135.png"
       inkscape:export-xdpi="75.596146"
       inkscape:export-ydpi="75.596146" />
    <path
       inkscape:connector-curvature="0"
       style="font-size:43.51511002px;font-style:normal;font-variant:normal;font-weight:normal;font-stretch:normal;text-align:start;line-height:100%;writing-mode:lr-tb;text-anchor:start;fill:#000000;fill-opacity:1;stroke:none;font-family:Odnoglas;-inkscape-font-specification:Odnoglas"
       d="m 221.50075,369.67261 c -1.25192,0 -2.39745,0.18476 -3.46151,0.53946 l -1.25873,0.56193 c -1.56523,0.8552 -2.33618,2.05362 -2.31516,3.61885 0.042,1.6066 0.86588,2.82897 2.4725,3.66381 1.27293,0.64696 2.78944,0.96651 4.5629,0.96652 1.77345,0 3.33993,-0.32102 4.67529,-0.989 1.64862,-0.83484 2.47247,-2.05574 2.4725,-3.64133 -3e-5,-1.56523 -0.79492,-2.76365 -2.36011,-3.61885 l -1.30369,-0.56193 c -1.06408,-0.35469 -2.23208,-0.53946 -3.48399,-0.53946 z m -0.56193,0.6968 c 0.80444,-0.0364 1.62723,0.0593 2.36012,0.40459 0.47092,0.22188 0.56393,0.33771 0.87662,0.62936 0.18783,0.22986 0.36209,0.45851 0.53945,0.71928 0.17733,0.26076 0.35013,0.53937 0.51698,0.83166 0.60493,1.14747 0.89907,1.99739 0.89909,2.53994 -1e-5,0.93861 -0.50789,1.6277 -1.55093,2.04544 -0.81382,0.33366 -1.8485,0.49449 -3.0794,0.4945 -1.31496,-2e-5 -2.29967,-0.50286 -2.96701,-1.48351 -1.16851,-1.71105 -1.75323,-2.96238 -1.75323,-3.77619 -1e-5,-0.33367 0.10581,-0.62782 0.31469,-0.89909 0.39606,-0.48015 0.91765,-0.88089 1.61836,-1.10139 0.63474,-0.19974 1.42082,-0.3682 2.22526,-0.40459 z"
       id="path4293"
       inkscape:export-filename="H:\assembla\Unfuddle\_RaSVN\bourree\trunk\trunk\Sound\Ensemble\g5135.png"
       inkscape:export-xdpi="75.596146"
       inkscape:export-ydpi="75.596146" />
    <path
       inkscape:connector-curvature="0"
       style="font-size:43.51511002px;font-style:normal;font-variant:normal;font-weight:normal;font-stretch:normal;text-align:start;line-height:100%;writing-mode:lr-tb;text-anchor:start;fill:#000000;fill-opacity:1;stroke:none;font-family:Odnoglas;-inkscape-font-specification:Odnoglas"
       d="m 221.50075,384.67261 c -1.25192,0 -2.39745,0.18476 -3.46151,0.53946 l -1.25873,0.56193 c -1.56523,0.8552 -2.33618,2.05362 -2.31516,3.61885 0.042,1.6066 0.86588,2.82897 2.4725,3.66381 1.27293,0.64696 2.78944,0.96651 4.5629,0.96652 1.77345,0 3.33993,-0.32102 4.67529,-0.989 1.64862,-0.83484 2.47247,-2.05574 2.4725,-3.64133 -3e-5,-1.56523 -0.79492,-2.76365 -2.36011,-3.61885 l -1.30369,-0.56193 c -1.06408,-0.35469 -2.23208,-0.53946 -3.48399,-0.53946 z m -0.56193,0.6968 c 0.80444,-0.0364 1.62723,0.0593 2.36012,0.40459 0.47092,0.22188 0.56393,0.33771 0.87662,0.62936 0.18783,0.22986 0.36209,0.45851 0.53945,0.71928 0.17733,0.26076 0.35013,0.53937 0.51698,0.83166 0.60493,1.14747 0.89907,1.99739 0.89909,2.53994 -1e-5,0.93861 -0.50789,1.6277 -1.55093,2.04544 -0.81382,0.33366 -1.8485,0.49449 -3.0794,0.4945 -1.31496,-2e-5 -2.29967,-0.50286 -2.96701,-1.48351 -1.16851,-1.71105 -1.75323,-2.96238 -1.75323,-3.77619 -1e-5,-0.33367 0.10581,-0.62782 0.31469,-0.89909 0.39606,-0.48015 0.91765,-0.88089 1.61836,-1.10139 0.63474,-0.19974 1.42082,-0.3682 2.22526,-0.40459 z"
       id="path4295"
       inkscape:export-filename="H:\assembla\Unfuddle\_RaSVN\bourree\trunk\trunk\Sound\Ensemble\g5135.png"
       inkscape:export-xdpi="75.596146"
       inkscape:export-ydpi="75.596146" />
    <path
       inkscape:export-ydpi="75.596146"
       inkscape:export-xdpi="75.596146"
       inkscape:export-filename="H:\assembla\Unfuddle\_RaSVN\bourree\trunk\trunk\Sound\Ensemble\g5135.png"
       id="path4263"
       d="m 221.14361,399.67262 c -1.25192,0 -2.39745,0.18476 -3.46151,0.53946 l -1.25873,0.56193 c -1.56523,0.8552 -2.33618,2.05362 -2.31516,3.61885 0.042,1.6066 0.86588,2.82897 2.4725,3.66381 1.27293,0.64696 2.78944,0.96651 4.5629,0.96652 1.77345,0 3.33993,-0.32102 4.67529,-0.989 1.64862,-0.83484 2.47247,-2.05574 2.4725,-3.64133 -3e-5,-1.56523 -0.79492,-2.76365 -2.36011,-3.61885 l -1.30369,-0.56193 c -1.06408,-0.35469 -2.23208,-0.53946 -3.48399,-0.53946 z m -0.56193,0.6968 c 0.80444,-0.0364 1.62723,0.0593 2.36012,0.40459 0.47092,0.22188 0.56393,0.33771 0.87662,0.62936 0.18783,0.22986 0.36209,0.45851 0.53945,0.71928 0.17733,0.26076 0.35013,0.53937 0.51698,0.83166 0.60493,1.14747 0.89907,1.99739 0.89909,2.53994 -1e-5,0.93861 -0.50789,1.6277 -1.55093,2.04544 -0.81382,0.33366 -1.8485,0.49449 -3.0794,0.4945 -1.31496,-2e-5 -2.29967,-0.50286 -2.96701,-1.48351 -1.16851,-1.71105 -1.75323,-2.96238 -1.75323,-3.77619 -1e-5,-0.33367 0.10581,-0.62782 0.31469,-0.89909 0.39606,-0.48015 0.91765,-0.88089 1.61836,-1.10139 0.63474,-0.19974 1.42082,-0.3682 2.22526,-0.40459 z"
       style="font-size:43.51511002px;font-style:normal;font-variant:normal;font-weight:normal;font-stretch:normal;text-align:start;line-height:100%;writing-mode:lr-tb;text-anchor:start;fill:#000000;fill-opacity:1;stroke:none;font-family:Odnoglas;-inkscape-font-specification:Odnoglas"
       inkscape:connector-curvature="0" />
    <path
       inkscape:export-ydpi="75.596146"
       inkscape:export-xdpi="75.596146"
       inkscape:export-filename="H:\assembla\Unfuddle\_RaSVN\bourree\trunk\trunk\Sound\Ensemble\g5135.png"
       id="path4271"
       d="m 149.42278,389.91065 c -1.25192,0 -2.39745,0.18476 -3.46151,0.53946 l -1.25873,0.56193 c -1.56523,0.8552 -2.33618,2.05362 -2.31516,3.61885 0.042,1.6066 0.86588,2.82897 2.4725,3.66381 1.27293,0.64696 2.78944,0.96651 4.5629,0.96652 1.77345,0 3.33993,-0.32102 4.67529,-0.989 1.64862,-0.83484 2.47247,-2.05574 2.4725,-3.64133 -3e-5,-1.56523 -0.79492,-2.76365 -2.36011,-3.61885 l -1.30369,-0.56193 c -1.06408,-0.35469 -2.23208,-0.53946 -3.48399,-0.53946 z m -0.56193,0.6968 c 0.80444,-0.0364 1.62723,0.0593 2.36012,0.40459 0.47092,0.22188 0.56393,0.33771 0.87662,0.62936 0.18783,0.22986 0.36209,0.45851 0.53945,0.71928 0.17733,0.26076 0.35013,0.53937 0.51698,0.83166 0.60493,1.14747 0.89907,1.99739 0.89909,2.53994 -1e-5,0.93861 -0.50789,1.6277 -1.55093,2.04544 -0.81382,0.33366 -1.8485,0.49449 -3.0794,0.4945 -1.31496,-2e-5 -2.29967,-0.50286 -2.96701,-1.48351 -1.16851,-1.71105 -1.75323,-2.96238 -1.75323,-3.77619 -1e-5,-0.33367 0.10581,-0.62782 0.31469,-0.89909 0.39606,-0.48015 0.91765,-0.88089 1.61836,-1.10139 0.63474,-0.19974 1.42082,-0.3682 2.22526,-0.40459 z"
       style="font-size:43.51511002px;font-style:normal;font-variant:normal;font-weight:normal;font-stretch:normal;text-align:start;line-height:100%;writing-mode:lr-tb;text-anchor:start;fill:#000000;fill-opacity:1;stroke:none;font-family:Odnoglas;-inkscape-font-specification:Odnoglas"
       inkscape:connector-curvature="0" />
    <path
       inkscape:export-ydpi="75.596146"
       inkscape:export-xdpi="75.596146"
       inkscape:export-filename="H:\assembla\Unfuddle\_RaSVN\bourree\trunk\trunk\Sound\Ensemble\g5135.png"
       id="path4273"
       d="m 149.60135,404.55351 c -1.25192,0 -2.39745,0.18476 -3.46151,0.53946 l -1.25873,0.56193 c -1.56523,0.8552 -2.33618,2.05362 -2.31516,3.61885 0.042,1.6066 0.86588,2.82897 2.4725,3.66381 1.27293,0.64696 2.78944,0.96651 4.5629,0.96652 1.77345,0 3.33993,-0.32102 4.67529,-0.989 1.64862,-0.83484 2.47247,-2.05574 2.4725,-3.64133 -3e-5,-1.56523 -0.79492,-2.76365 -2.36011,-3.61885 l -1.30369,-0.56193 c -1.06408,-0.35469 -2.23208,-0.53946 -3.48399,-0.53946 z m -0.56193,0.6968 c 0.80444,-0.0364 1.62723,0.0593 2.36012,0.40459 0.47092,0.22188 0.56393,0.33771 0.87662,0.62936 0.18783,0.22986 0.36209,0.45851 0.53945,0.71928 0.17733,0.26076 0.35013,0.53937 0.51698,0.83166 0.60493,1.14747 0.89907,1.99739 0.89909,2.53994 -1e-5,0.93861 -0.50789,1.6277 -1.55093,2.04544 -0.81382,0.33366 -1.8485,0.49449 -3.0794,0.4945 -1.31496,-2e-5 -2.29967,-0.50286 -2.96701,-1.48351 -1.16851,-1.71105 -1.75323,-2.96238 -1.75323,-3.77619 -1e-5,-0.33367 0.10581,-0.62782 0.31469,-0.89909 0.39606,-0.48015 0.91765,-0.88089 1.61836,-1.10139 0.63474,-0.19974 1.42082,-0.3682 2.22526,-0.40459 z"
       style="font-size:43.51511002px;font-style:normal;font-variant:normal;font-weight:normal;font-stretch:normal;text-align:start;line-height:100%;writing-mode:lr-tb;text-anchor:start;fill:#000000;fill-opacity:1;stroke:none;font-family:Odnoglas;-inkscape-font-specification:Odnoglas"
       inkscape:connector-curvature="0" />
    <path
       inkscape:export-ydpi="75.596146"
       inkscape:export-xdpi="75.596146"
       inkscape:export-filename="H:\assembla\Unfuddle\_RaSVN\bourree\trunk\trunk\Sound\Ensemble\g5135.png"
       id="path4275"
       d="m 149.60135,417.94637 c -1.25192,0 -2.39745,0.18476 -3.46151,0.53946 l -1.25873,0.56193 c -1.56523,0.8552 -2.33618,2.05362 -2.31516,3.61885 0.042,1.6066 0.86588,2.82897 2.4725,3.66381 1.27293,0.64696 2.78944,0.96651 4.5629,0.96652 1.77345,0 3.33993,-0.32102 4.67529,-0.989 1.64862,-0.83484 2.47247,-2.05574 2.4725,-3.64133 -3e-5,-1.56523 -0.79492,-2.76365 -2.36011,-3.61885 l -1.30369,-0.56193 c -1.06408,-0.35469 -2.23208,-0.53946 -3.48399,-0.53946 z m -0.56193,0.6968 c 0.80444,-0.0364 1.62723,0.0593 2.36012,0.40459 0.47092,0.22188 0.56393,0.33771 0.87662,0.62936 0.18783,0.22986 0.36209,0.45851 0.53945,0.71928 0.17733,0.26076 0.35013,0.53937 0.51698,0.83166 0.60493,1.14747 0.89907,1.99739 0.89909,2.53994 -1e-5,0.93861 -0.50789,1.6277 -1.55093,2.04544 -0.81382,0.33366 -1.8485,0.49449 -3.0794,0.4945 -1.31496,-2e-5 -2.29967,-0.50286 -2.96701,-1.48351 -1.16851,-1.71105 -1.75323,-2.96238 -1.75323,-3.77619 -1e-5,-0.33367 0.10581,-0.62782 0.31469,-0.89909 0.39606,-0.48015 0.91765,-0.88089 1.61836,-1.10139 0.63474,-0.19974 1.42082,-0.3682 2.22526,-0.40459 z"
       style="font-size:43.51511002px;font-style:normal;font-variant:normal;font-weight:normal;font-stretch:normal;text-align:start;line-height:100%;writing-mode:lr-tb;text-anchor:start;fill:#000000;fill-opacity:1;stroke:none;font-family:Odnoglas;-inkscape-font-specification:Odnoglas"
       inkscape:connector-curvature="0" />
    <path
       inkscape:connector-curvature="0"
       style="font-size:43.51511002px;font-style:normal;font-variant:normal;font-weight:normal;font-stretch:normal;text-align:start;line-height:100%;writing-mode:lr-tb;text-anchor:start;fill:#000000;fill-opacity:1;stroke:none;font-family:Odnoglas;-inkscape-font-specification:Odnoglas"
       d="m 149.60135,431.33923 c -1.25192,0 -2.39745,0.18476 -3.46151,0.53946 l -1.25873,0.56193 c -1.56523,0.8552 -2.33618,2.05362 -2.31516,3.61885 0.042,1.6066 0.86588,2.82897 2.4725,3.66381 1.27293,0.64696 2.78944,0.96651 4.5629,0.96652 1.77345,0 3.33993,-0.32102 4.67529,-0.989 1.64862,-0.83484 2.47247,-2.05574 2.4725,-3.64133 -3e-5,-1.56523 -0.79492,-2.76365 -2.36011,-3.61885 l -1.30369,-0.56193 c -1.06408,-0.35469 -2.23208,-0.53946 -3.48399,-0.53946 z m -0.56193,0.6968 c 0.80444,-0.0364 1.62723,0.0593 2.36012,0.40459 0.47092,0.22188 0.56393,0.33771 0.87662,0.62936 0.18783,0.22986 0.36209,0.45851 0.53945,0.71928 0.17733,0.26076 0.35013,0.53937 0.51698,0.83166 0.60493,1.14747 0.89907,1.99739 0.89909,2.53994 -1e-5,0.93861 -0.50789,1.6277 -1.55093,2.04544 -0.81382,0.33366 -1.8485,0.49449 -3.0794,0.4945 -1.31496,-2e-5 -2.29967,-0.50286 -2.96701,-1.48351 -1.16851,-1.71105 -1.75323,-2.96238 -1.75323,-3.77619 -1e-5,-0.33367 0.10581,-0.62782 0.31469,-0.89909 0.39606,-0.48015 0.91765,-0.88089 1.61836,-1.10139 0.63474,-0.19974 1.42082,-0.3682 2.22526,-0.40459 z"
       id="path3213"
       inkscape:export-filename="H:\assembla\Unfuddle\_RaSVN\bourree\trunk\trunk\Sound\Ensemble\g5135.png"
       inkscape:export-xdpi="75.596146"
       inkscape:export-ydpi="75.596146" />
    <path
       sodipodi:nodetypes="sccccsccccs"
       inkscape:connector-curvature="0"
       style="font-size:43.51511002px;font-style:normal;font-variant:normal;font-weight:normal;font-stretch:normal;text-align:start;line-height:100%;writing-mode:lr-tb;text-anchor:start;fill:#000000;fill-opacity:1;stroke:none;font-family:Odnoglas;-inkscape-font-specification:Odnoglas"
       d="m 148.13958,354.4993 c -1.25192,0 -2.39745,0.18476 -3.46151,0.53946 l -1.25873,0.56193 c -1.56523,0.8552 -2.33618,2.05362 -2.31516,3.61885 0.042,1.6066 0.86588,2.82897 2.4725,3.66381 1.27293,0.64696 2.78944,0.96651 4.5629,0.96652 1.77345,0 3.33993,-0.32102 4.67529,-0.989 1.64863,-0.83484 2.47248,-2.05574 2.47251,-3.64133 -3e-5,-1.56523 -0.79492,-2.76365 -2.36012,-3.61885 l -1.30369,-0.56193 c -1.06408,-0.35469 -2.23208,-0.53946 -3.48399,-0.53946 z"
       id="path4279"
       inkscape:export-filename="H:\assembla\Unfuddle\_RaSVN\bourree\trunk\trunk\Sound\Ensemble\g5135.png"
       inkscape:export-xdpi="75.596146"
       inkscape:export-ydpi="75.596146" />
    <path
       sodipodi:nodetypes="sccccsccccs"
       inkscape:connector-curvature="0"
       style="font-size:43.51511002px;font-style:normal;font-variant:normal;font-weight:normal;font-stretch:normal;text-align:start;line-height:100%;writing-mode:lr-tb;text-anchor:start;fill:#000000;fill-opacity:1;stroke:none;font-family:Odnoglas;-inkscape-font-specification:Odnoglas"
       d="m 148.13958,317.41952 c -1.25192,0 -2.39745,0.18476 -3.46151,0.53946 l -1.25873,0.56193 c -1.56523,0.8552 -2.33618,2.05362 -2.31516,3.61885 0.042,1.6066 0.86588,2.82897 2.4725,3.66381 1.27293,0.64696 2.78944,0.96651 4.5629,0.96652 1.77345,0 3.33993,-0.32102 4.67529,-0.989 1.64863,-0.83484 2.47248,-2.05574 2.47251,-3.64133 -3e-5,-1.56523 -0.79492,-2.76365 -2.36012,-3.61885 l -1.30369,-0.56193 c -1.06408,-0.35469 -2.23208,-0.53946 -3.48399,-0.53946 z"
       id="path4299"
       inkscape:export-filename="H:\assembla\Unfuddle\_RaSVN\bourree\trunk\trunk\Sound\Ensemble\g5135.png"
       inkscape:export-xdpi="75.596146"
       inkscape:export-ydpi="75.596146" />
    <path
       sodipodi:nodetypes="sccccsccccs"
       inkscape:connector-curvature="0"
       style="font-size:43.51511002px;font-style:normal;font-variant:normal;font-weight:normal;font-stretch:normal;text-align:start;line-height:100%;writing-mode:lr-tb;text-anchor:start;fill:#000000;fill-opacity:1;stroke:none;font-family:Odnoglas;-inkscape-font-specification:Odnoglas"
       d="m 220.63958,279.20523 c -1.25192,0 -2.39745,0.18476 -3.46151,0.53946 l -1.25873,0.56193 c -1.56523,0.8552 -2.33618,2.05362 -2.31516,3.61885 0.042,1.6066 0.86588,2.82897 2.4725,3.66381 1.27293,0.64696 2.78944,0.96651 4.5629,0.96652 1.77345,0 3.33993,-0.32102 4.67529,-0.989 1.64863,-0.83484 2.47248,-2.05574 2.47251,-3.64133 -3e-5,-1.56523 -0.79492,-2.76365 -2.36012,-3.61885 l -1.30369,-0.56193 c -1.06408,-0.35469 -2.23208,-0.53946 -3.48399,-0.53946 z"
       id="path4301"
       inkscape:export-filename="H:\assembla\Unfuddle\_RaSVN\bourree\trunk\trunk\Sound\Ensemble\g5135.png"
       inkscape:export-xdpi="75.596146"
       inkscape:export-ydpi="75.596146" />
    <path
       sodipodi:nodetypes="sccccsccccs"
       inkscape:connector-curvature="0"
       style="font-size:43.51511002px;font-style:normal;font-variant:normal;font-weight:normal;font-stretch:normal;text-align:start;line-height:100%;writing-mode:lr-tb;text-anchor:start;fill:#000000;fill-opacity:1;stroke:none;font-family:Odnoglas;-inkscape-font-specification:Odnoglas"
       d="m 220.49164,259.41444 c -1.25192,0 -2.39745,0.18476 -3.46151,0.53946 l -1.25873,0.56193 c -1.56523,0.8552 -2.33618,2.05362 -2.31516,3.61885 0.042,1.6066 0.86588,2.82897 2.4725,3.66381 1.27293,0.64696 2.78944,0.96651 4.5629,0.96652 1.77345,0 3.33993,-0.32102 4.67529,-0.989 1.64863,-0.83484 2.47248,-2.05574 2.47251,-3.64133 -3e-5,-1.56523 -0.79492,-2.76365 -2.36012,-3.61885 l -1.30369,-0.56193 c -1.06408,-0.35469 -2.23208,-0.53946 -3.48399,-0.53946 z"
       id="path4321"
       inkscape:export-filename="H:\assembla\Unfuddle\_RaSVN\bourree\trunk\trunk\Sound\Ensemble\g5135.png"
       inkscape:export-xdpi="75.596146"
       inkscape:export-ydpi="75.596146" />
    <path
       sodipodi:nodetypes="sccccsccccs"
       inkscape:connector-curvature="0"
       style="font-size:43.51511002px;font-style:normal;font-variant:normal;font-weight:normal;font-stretch:normal;text-align:start;line-height:100%;writing-mode:lr-tb;text-anchor:start;fill:#000000;fill-opacity:1;stroke:none;font-family:Odnoglas;-inkscape-font-specification:Odnoglas"
       d="m 293.9917,298.81039 c -1.25192,0 -2.39745,0.18476 -3.46151,0.53946 l -1.25873,0.56193 c -1.56523,0.8552 -2.33618,2.05362 -2.31516,3.61885 0.042,1.6066 0.86588,2.82897 2.4725,3.66381 1.27293,0.64696 2.78944,0.96651 4.5629,0.96652 1.77345,0 3.33993,-0.32102 4.67529,-0.989 1.64863,-0.83484 2.47248,-2.05574 2.47251,-3.64133 -3e-5,-1.56523 -0.79492,-2.76365 -2.36012,-3.61885 l -1.30369,-0.56193 c -1.06408,-0.35469 -2.23208,-0.53946 -3.48399,-0.53946 z"
       id="path4323"
       inkscape:export-filename="H:\assembla\Unfuddle\_RaSVN\bourree\trunk\trunk\Sound\Ensemble\g5135.png"
       inkscape:export-xdpi="75.596146"
       inkscape:export-ydpi="75.596146" />
    <path
       inkscape:export-ydpi="75.596146"
       inkscape:export-xdpi="75.596146"
       inkscape:export-filename="H:\assembla\Unfuddle\_RaSVN\bourree\trunk\trunk\Sound\Ensemble\g5135.png"
       id="path4259"
       d="m 293.48665,263.96013 c -1.25192,0 -2.39745,0.18476 -3.46151,0.53946 l -1.25873,0.56193 c -1.56523,0.8552 -2.33618,2.05362 -2.31516,3.61885 0.042,1.6066 0.86588,2.82897 2.4725,3.66381 1.27293,0.64696 2.78944,0.96651 4.5629,0.96652 1.77345,0 3.33993,-0.32102 4.67529,-0.989 1.64863,-0.83484 2.47248,-2.05574 2.47251,-3.64133 -3e-5,-1.56523 -0.79492,-2.76365 -2.36012,-3.61885 l -1.30369,-0.56193 c -1.06408,-0.35469 -2.23208,-0.53946 -3.48399,-0.53946 z"
       style="font-size:43.51511002px;font-style:normal;font-variant:normal;font-weight:normal;font-stretch:normal;text-align:start;line-height:100%;writing-mode:lr-tb;text-anchor:start;fill:#000000;fill-opacity:1;stroke:none;font-family:Odnoglas;-inkscape-font-specification:Odnoglas"
       inkscape:connector-curvature="0"
       sodipodi:nodetypes="sccccsccccs" />
    <path
       inkscape:connector-curvature="0"
       id="path4265"
       d="m 136.37204,404.63034 27.16133,0"
       style="fill:none;stroke:#000000;stroke-width:1px;stroke-linecap:butt;stroke-linejoin:miter;stroke-opacity:1"
       inkscape:export-filename="H:\assembla\Unfuddle\_RaSVN\bourree\trunk\trunk\Sound\Ensemble\g5135.png"
       inkscape:export-xdpi="75.596146"
       inkscape:export-ydpi="75.596146" />
    <path
       inkscape:connector-curvature="0"
       id="path4267"
       d="m 136.55061,413.54314 27.16133,0"
       style="fill:none;stroke:#000000;stroke-width:1px;stroke-linecap:butt;stroke-linejoin:miter;stroke-opacity:1"
       inkscape:export-filename="H:\assembla\Unfuddle\_RaSVN\bourree\trunk\trunk\Sound\Ensemble\g5135.png"
       inkscape:export-xdpi="75.596146"
       inkscape:export-ydpi="75.596146" />
    <path
       inkscape:connector-curvature="0"
       id="path4269"
       d="m 136.55061,422.29314 27.16133,0"
       style="fill:none;stroke:#000000;stroke-width:1px;stroke-linecap:butt;stroke-linejoin:miter;stroke-opacity:1"
       inkscape:export-filename="H:\assembla\Unfuddle\_RaSVN\bourree\trunk\trunk\Sound\Ensemble\g5135.png"
       inkscape:export-xdpi="75.596146"
       inkscape:export-ydpi="75.596146" />
    <path
       inkscape:export-ydpi="75.596146"
       inkscape:export-xdpi="75.596146"
       inkscape:export-filename="H:\assembla\Unfuddle\_RaSVN\bourree\trunk\trunk\Sound\Ensemble\g5135.png"
       style="fill:none;stroke:#000000;stroke-width:1px;stroke-linecap:butt;stroke-linejoin:miter;stroke-opacity:1"
       d="m 136.55061,431.57885 27.16133,0"
       id="path4261"
       inkscape:connector-curvature="0" />
    <text
       sodipodi:linespacing="100%"
       id="text4305"
       y="185.93674"
       x="136.5439"
       style="font-size:16px;font-style:normal;font-variant:normal;font-weight:normal;font-stretch:normal;text-align:start;line-height:100%;letter-spacing:0px;word-spacing:0px;writing-mode:lr-tb;text-anchor:start;fill:#000000;fill-opacity:1;stroke:none;font-family:Times New Roman;-inkscape-font-specification:'Times New Roman,'"
       xml:space="preserve"
       inkscape:export-filename="H:\assembla\Unfuddle\_RaSVN\bourree\trunk\trunk\Sound\Ensemble\g5135.png"
       inkscape:export-xdpi="75.596146"
       inkscape:export-ydpi="75.596146"><tspan
         y="185.93674"
         x="136.5439"
         id="tspan4307"
         sodipodi:role="line">Бас</tspan></text>
    <text
       sodipodi:linespacing="100%"
       id="text4311"
       y="185.93674"
       x="197.97247"
       style="font-size:16px;font-style:normal;font-variant:normal;font-weight:normal;font-stretch:normal;text-align:start;line-height:100%;letter-spacing:0px;word-spacing:0px;writing-mode:lr-tb;text-anchor:start;fill:#000000;fill-opacity:1;stroke:none;font-family:Times New Roman;-inkscape-font-specification:'Times New Roman,'"
       xml:space="preserve"
       inkscape:export-filename="H:\assembla\Unfuddle\_RaSVN\bourree\trunk\trunk\Sound\Ensemble\g5135.png"
       inkscape:export-xdpi="75.596146"
       inkscape:export-ydpi="75.596146"><tspan
         y="185.93674"
         x="197.97247"
         id="tspan4313"
         sodipodi:role="line">Гитара</tspan></text>
    <text
       sodipodi:linespacing="100%"
       id="text4335"
       y="186.06174"
       x="258.61423"
       style="font-size:16px;font-style:normal;font-variant:normal;font-weight:normal;font-stretch:normal;text-align:start;line-height:100%;letter-spacing:0px;word-spacing:0px;writing-mode:lr-tb;text-anchor:start;fill:#000000;fill-opacity:1;stroke:none;font-family:Times New Roman;-inkscape-font-specification:'Times New Roman,'"
       xml:space="preserve"
       inkscape:export-filename="H:\assembla\Unfuddle\_RaSVN\bourree\trunk\trunk\Sound\Ensemble\g5135.png"
       inkscape:export-xdpi="75.596146"
       inkscape:export-ydpi="75.596146"><tspan
         y="186.06174"
         x="258.61423"
         id="tspan4337"
         sodipodi:role="line">Кларнет</tspan></text>
    <text
       xml:space="preserve"
       style="font-size:16px;font-style:normal;font-variant:normal;font-weight:normal;font-stretch:normal;text-align:center;line-height:100%;letter-spacing:0px;word-spacing:0px;writing-mode:lr-tb;text-anchor:middle;fill:#000000;fill-opacity:1;stroke:none;font-family:Times New Roman;-inkscape-font-specification:'Times New Roman,'"
       x="461.24051"
       y="185.9758"
       id="text4281"
       sodipodi:linespacing="100%"
       inkscape:export-filename="H:\assembla\Unfuddle\_RaSVN\bourree\trunk\trunk\Sound\Ensemble\g5135.png"
       inkscape:export-xdpi="75.596146"
       inkscape:export-ydpi="75.596146"><tspan
         sodipodi:role="line"
         id="tspan4388"
         x="461.24051"
         y="185.9758">Флейта</tspan><tspan
         sodipodi:role="line"
         id="tspan4390"
         x="461.24051"
         y="201.9758">поперечная</tspan></text>
    <path
       inkscape:export-ydpi="75.596146"
       inkscape:export-xdpi="75.596146"
       inkscape:export-filename="H:\assembla\Unfuddle\_RaSVN\bourree\trunk\trunk\Sound\Ensemble\g5135.png"
       style="fill:none;stroke:#000000;stroke-width:1px;stroke-linecap:butt;stroke-linejoin:miter;stroke-opacity:1"
       d="m 208.15775,403.91605 27.16133,0"
       id="path4297"
       inkscape:connector-curvature="0" />
    <path
       inkscape:connector-curvature="0"
       id="path4303"
       d="m 207.80061,269.63034 27.16133,0"
       style="fill:none;stroke:#000000;stroke-width:1px;stroke-linecap:butt;stroke-linejoin:miter;stroke-opacity:1"
       inkscape:export-filename="H:\assembla\Unfuddle\_RaSVN\bourree\trunk\trunk\Sound\Ensemble\g5135.png"
       inkscape:export-xdpi="75.596146"
       inkscape:export-ydpi="75.596146" />
    <path
       inkscape:connector-curvature="0"
       style="font-size:43.51511002px;font-style:normal;font-variant:normal;font-weight:normal;font-stretch:normal;text-align:start;line-height:100%;writing-mode:lr-tb;text-anchor:start;fill:#000000;fill-opacity:1;stroke:none;font-family:Odnoglas;-inkscape-font-specification:Odnoglas"
       d="m 276.01701,369.52903 c -1.25192,0 -2.39745,0.18476 -3.46151,0.53946 l -1.25873,0.56193 c -1.56523,0.8552 -2.33618,2.05362 -2.31516,3.61885 0.042,1.6066 0.86588,2.82897 2.4725,3.66381 1.27293,0.64696 2.78944,0.96651 4.5629,0.96652 1.77345,0 3.33993,-0.32102 4.67529,-0.989 1.64863,-0.83484 2.47248,-2.05574 2.47251,-3.64133 -3e-5,-1.56523 -0.79492,-2.76365 -2.36012,-3.61885 l -1.30369,-0.56193 c -1.06408,-0.35469 -2.23208,-0.53946 -3.48399,-0.53946 z m -0.56193,0.6968 c 0.80444,-0.0364 1.62723,0.0593 2.36012,0.40459 0.47092,0.22188 0.56393,0.33771 0.87662,0.62936 0.18783,0.22986 0.36209,0.45851 0.53945,0.71928 0.17733,0.26076 0.35013,0.53937 0.51698,0.83166 0.60493,1.14747 0.89907,1.99739 0.89909,2.53994 -10e-6,0.93861 -0.50789,1.6277 -1.55093,2.04544 -0.81382,0.33366 -1.8485,0.49449 -3.0794,0.4945 -1.31496,-2e-5 -2.29967,-0.50286 -2.96701,-1.48351 -1.16851,-1.71105 -1.75323,-2.96238 -1.75323,-3.77619 -10e-6,-0.33367 0.10581,-0.62782 0.31469,-0.89909 0.39606,-0.48015 0.91765,-0.88089 1.61836,-1.10139 0.63474,-0.19974 1.42082,-0.3682 2.22526,-0.40459 z"
       id="path4317"
       inkscape:export-filename="H:\assembla\Unfuddle\_RaSVN\bourree\trunk\trunk\Sound\Ensemble\g5135.png"
       inkscape:export-xdpi="75.596146"
       inkscape:export-ydpi="75.596146" />
    <path
       inkscape:export-ydpi="75.596146"
       inkscape:export-xdpi="75.596146"
       inkscape:export-filename="H:\assembla\Unfuddle\_RaSVN\bourree\trunk\trunk\Sound\Ensemble\g5135.png"
       id="path4315"
       d="m 276.52211,303.86911 c -1.25192,0 -2.39745,0.18476 -3.46151,0.53946 l -1.25873,0.56193 c -1.56523,0.8552 -2.33618,2.05362 -2.31516,3.61885 0.042,1.6066 0.86588,2.82897 2.4725,3.66381 1.27293,0.64696 2.78944,0.96651 4.5629,0.96652 1.77345,0 3.33993,-0.32102 4.67529,-0.989 1.64863,-0.83484 2.47248,-2.05574 2.47251,-3.64133 -3e-5,-1.56523 -0.79492,-2.76365 -2.36012,-3.61885 l -1.30369,-0.56193 c -1.06408,-0.35469 -2.23208,-0.53946 -3.48399,-0.53946 z m -0.56193,0.6968 c 0.80444,-0.0364 1.62723,0.0593 2.36012,0.40459 0.47092,0.22188 0.56393,0.33771 0.87662,0.62936 0.18783,0.22986 0.36209,0.45851 0.53945,0.71928 0.17733,0.26076 0.35013,0.53937 0.51698,0.83166 0.60493,1.14747 0.89907,1.99739 0.89909,2.53994 -1e-5,0.93861 -0.50789,1.6277 -1.55093,2.04544 -0.81382,0.33366 -1.8485,0.49449 -3.0794,0.4945 -1.31496,-2e-5 -2.29967,-0.50286 -2.96701,-1.48351 -1.16851,-1.71105 -1.75323,-2.96238 -1.75323,-3.77619 -1e-5,-0.33367 0.10581,-0.62782 0.31469,-0.89909 0.39606,-0.48015 0.91765,-0.88089 1.61836,-1.10139 0.63474,-0.19974 1.42082,-0.3682 2.22526,-0.40459 z"
       style="font-size:43.51511002px;font-style:normal;font-variant:normal;font-weight:normal;font-stretch:normal;text-align:start;line-height:100%;writing-mode:lr-tb;text-anchor:start;fill:#000000;fill-opacity:1;stroke:none;font-family:Odnoglas;-inkscape-font-specification:Odnoglas"
       inkscape:connector-curvature="0" />
    <path
       inkscape:connector-curvature="0"
       id="path4327"
       d="m 282.00464,269.12526 23.69246,0"
       style="fill:none;stroke:#000000;stroke-width:1px;stroke-linecap:butt;stroke-linejoin:miter;stroke-opacity:1"
       inkscape:export-filename="H:\assembla\Unfuddle\_RaSVN\bourree\trunk\trunk\Sound\Ensemble\g5135.png"
       inkscape:export-xdpi="75.596146"
       inkscape:export-ydpi="75.596146" />
    <path
       inkscape:connector-curvature="0"
       id="path4329"
       d="m 308.00122,269.12526 19.17641,0"
       style="fill:none;stroke:#000000;stroke-width:1px;stroke-linecap:butt;stroke-linejoin:miter;stroke-opacity:1"
       inkscape:export-filename="H:\assembla\Unfuddle\_RaSVN\bourree\trunk\trunk\Sound\Ensemble\g5135.png"
       inkscape:export-xdpi="75.596146"
       inkscape:export-ydpi="75.596146" />
    <path
       inkscape:connector-curvature="0"
       id="path4331"
       d="m 307.03922,260.03389 21.10041,0"
       style="fill:none;stroke:#000000;stroke-width:1px;stroke-linecap:butt;stroke-linejoin:miter;stroke-opacity:1"
       inkscape:export-filename="H:\assembla\Unfuddle\_RaSVN\bourree\trunk\trunk\Sound\Ensemble\g5135.png"
       inkscape:export-xdpi="75.596146"
       inkscape:export-ydpi="75.596146" />
    <path
       sodipodi:nodetypes="sccccsccccs"
       inkscape:connector-curvature="0"
       style="font-size:43.51511002px;font-style:normal;font-variant:normal;font-weight:normal;font-stretch:normal;text-align:start;line-height:100%;writing-mode:lr-tb;text-anchor:start;fill:#000000;fill-opacity:1;stroke:none;font-family:Odnoglas;-inkscape-font-specification:Odnoglas"
       d="m 316.72013,250.82819 c -1.25192,0 -2.39745,0.18476 -3.46151,0.53946 l -1.25873,0.56193 c -1.56523,0.8552 -2.33618,2.05362 -2.31516,3.61885 0.042,1.6066 0.86588,2.82897 2.4725,3.66381 1.27293,0.64696 2.78944,0.96651 4.5629,0.96652 1.77345,0 3.33993,-0.32102 4.67529,-0.989 1.64863,-0.83484 2.47248,-2.05574 2.47251,-3.64133 -3e-5,-1.56523 -0.79492,-2.76365 -2.36012,-3.61885 l -1.30369,-0.56193 c -1.06408,-0.35469 -2.23208,-0.53946 -3.48399,-0.53946 z"
       id="path4333"
       inkscape:export-filename="H:\assembla\Unfuddle\_RaSVN\bourree\trunk\trunk\Sound\Ensemble\g5135.png"
       inkscape:export-xdpi="75.596146"
       inkscape:export-ydpi="75.596146" />
    <path
       inkscape:export-ydpi="75.596146"
       inkscape:export-xdpi="75.596146"
       inkscape:export-filename="H:\assembla\Unfuddle\_RaSVN\bourree\trunk\trunk\Sound\Ensemble\g5135.png"
       style="fill:none;stroke:#000000;stroke-width:1px;stroke-linecap:butt;stroke-linejoin:miter;stroke-opacity:1"
       d="m 451.71613,327.10494 24.68467,0"
       id="path4339"
       inkscape:connector-curvature="0" />
    <path
       inkscape:connector-curvature="0"
       style="font-size:43.51511002px;font-style:normal;font-variant:normal;font-weight:normal;font-stretch:normal;text-align:start;line-height:100%;writing-mode:lr-tb;text-anchor:start;fill:#000000;fill-opacity:1;stroke:none;font-family:Odnoglas;-inkscape-font-specification:Odnoglas"
       d="m 463.89979,326.87927 c -1.25192,0 -2.39745,0.18476 -3.46151,0.53946 l -1.25873,0.56193 c -1.56523,0.8552 -2.33618,2.05362 -2.31516,3.61885 0.042,1.6066 0.86588,2.82897 2.4725,3.66381 1.27293,0.64696 2.78944,0.96651 4.5629,0.96652 1.77345,0 3.33993,-0.32102 4.67529,-0.989 1.64863,-0.83484 2.47248,-2.05574 2.47251,-3.64133 -3e-5,-1.56523 -0.79492,-2.76365 -2.36012,-3.61885 l -1.30369,-0.56193 c -1.06408,-0.35469 -2.23208,-0.53946 -3.48399,-0.53946 z m -0.56193,0.6968 c 0.80444,-0.0364 1.62723,0.0593 2.36012,0.40459 0.47092,0.22188 0.56393,0.33771 0.87662,0.62936 0.18783,0.22986 0.36209,0.45851 0.53945,0.71928 0.17733,0.26076 0.35013,0.53937 0.51698,0.83166 0.60493,1.14747 0.89907,1.99739 0.89909,2.53994 -1e-5,0.93861 -0.50789,1.6277 -1.55093,2.04544 -0.81382,0.33366 -1.8485,0.49449 -3.0794,0.4945 -1.31496,-2e-5 -2.29967,-0.50286 -2.96701,-1.48351 -1.16851,-1.71105 -1.75323,-2.96238 -1.75323,-3.77619 -1e-5,-0.33367 0.10581,-0.62782 0.31469,-0.89909 0.39606,-0.48015 0.91765,-0.88089 1.61836,-1.10139 0.63474,-0.19974 1.42082,-0.3682 2.22526,-0.40459 z"
       id="path4341"
       inkscape:export-filename="H:\assembla\Unfuddle\_RaSVN\bourree\trunk\trunk\Sound\Ensemble\g5135.png"
       inkscape:export-xdpi="75.596146"
       inkscape:export-ydpi="75.596146" />
    <path
       inkscape:connector-curvature="0"
       id="path4382"
       d="m 447.62806,269.12526 27.16565,0"
       style="fill:none;stroke:#000000;stroke-width:1px;stroke-linecap:butt;stroke-linejoin:miter;stroke-opacity:1"
       inkscape:export-filename="H:\assembla\Unfuddle\_RaSVN\bourree\trunk\trunk\Sound\Ensemble\g5135.png"
       inkscape:export-xdpi="75.596146"
       inkscape:export-ydpi="75.596146" />
    <path
       inkscape:connector-curvature="0"
       id="path4384"
       d="m 447.62806,250.55383 27.16565,0"
       style="fill:none;stroke:#000000;stroke-width:1px;stroke-linecap:butt;stroke-linejoin:miter;stroke-opacity:1"
       inkscape:export-filename="H:\assembla\Unfuddle\_RaSVN\bourree\trunk\trunk\Sound\Ensemble\g5135.png"
       inkscape:export-xdpi="75.596146"
       inkscape:export-ydpi="75.596146" />
    <path
       inkscape:connector-curvature="0"
       id="path4386"
       d="m 447.62806,241.26812 27.16565,0"
       style="fill:none;stroke:#000000;stroke-width:1px;stroke-linecap:butt;stroke-linejoin:miter;stroke-opacity:1"
       inkscape:export-filename="H:\assembla\Unfuddle\_RaSVN\bourree\trunk\trunk\Sound\Ensemble\g5135.png"
       inkscape:export-xdpi="75.596146"
       inkscape:export-ydpi="75.596146" />
    <path
       inkscape:export-ydpi="75.596146"
       inkscape:export-xdpi="75.596146"
       inkscape:export-filename="H:\assembla\Unfuddle\_RaSVN\bourree\trunk\trunk\Sound\Ensemble\g5135.png"
       style="fill:none;stroke:#000000;stroke-width:1px;stroke-linecap:butt;stroke-linejoin:miter;stroke-opacity:1"
       d="m 447.62806,231.9824 27.16565,0"
       id="path4343"
       inkscape:connector-curvature="0" />
    <path
       inkscape:export-ydpi="75.596146"
       inkscape:export-xdpi="75.596146"
       inkscape:export-filename="H:\assembla\Unfuddle\_RaSVN\bourree\trunk\trunk\Sound\Ensemble\g5135.png"
       style="fill:none;stroke:#000000;stroke-width:1px;stroke-linecap:butt;stroke-linejoin:miter;stroke-opacity:1"
       d="m 447.6302,260.03389 27.16133,0"
       id="path4345"
       inkscape:connector-curvature="0" />
    <path
       inkscape:export-ydpi="75.596146"
       inkscape:export-xdpi="75.596146"
       inkscape:export-filename="H:\assembla\Unfuddle\_RaSVN\bourree\trunk\trunk\Sound\Ensemble\g5135.png"
       id="path4349"
       d="m 461.37441,223.15844 c -1.25192,0 -2.39745,0.18476 -3.46151,0.53946 l -1.25873,0.56193 c -1.56523,0.8552 -2.33618,2.05362 -2.31516,3.61885 0.042,1.6066 0.86588,2.82897 2.4725,3.66381 1.27293,0.64696 2.78944,0.96651 4.5629,0.96652 1.77345,0 3.33993,-0.32102 4.67529,-0.989 1.64863,-0.83484 2.47248,-2.05574 2.47251,-3.64133 -3e-5,-1.56523 -0.79492,-2.76365 -2.36012,-3.61885 l -1.30369,-0.56193 c -1.06408,-0.35469 -2.23208,-0.53946 -3.48399,-0.53946 z m -0.56193,0.6968 c 0.80444,-0.0364 1.62723,0.0593 2.36012,0.40459 0.47092,0.22188 0.56393,0.33771 0.87662,0.62936 0.18783,0.22986 0.36209,0.45851 0.53945,0.71928 0.17733,0.26076 0.35013,0.53937 0.51698,0.83166 0.60493,1.14747 0.89907,1.99739 0.89909,2.53994 -1e-5,0.93861 -0.50789,1.6277 -1.55093,2.04544 -0.81382,0.33366 -1.8485,0.49449 -3.0794,0.4945 -1.31496,-2e-5 -2.29967,-0.50286 -2.96701,-1.48351 -1.16851,-1.71105 -1.75323,-2.96238 -1.75323,-3.77619 -1e-5,-0.33367 0.10581,-0.62782 0.31469,-0.89909 0.39606,-0.48015 0.91765,-0.88089 1.61836,-1.10139 0.63474,-0.19974 1.42082,-0.3682 2.22526,-0.40459 z"
       style="font-size:43.51511002px;font-style:normal;font-variant:normal;font-weight:normal;font-stretch:normal;text-align:start;line-height:100%;writing-mode:lr-tb;text-anchor:start;fill:#000000;fill-opacity:1;stroke:none;font-family:Odnoglas;-inkscape-font-specification:Odnoglas"
       inkscape:connector-curvature="0" />
    <path
       inkscape:export-ydpi="75.596146"
       inkscape:export-xdpi="75.596146"
       inkscape:export-filename="H:\assembla\Unfuddle\_RaSVN\bourree\trunk\trunk\Sound\Ensemble\g5135.png"
       style="fill:none;stroke:#000000;stroke-width:1px;stroke-linecap:butt;stroke-linejoin:miter;stroke-opacity:1"
       d="m 531.48507,269.12526 27.16565,0"
       id="path4402"
       inkscape:connector-curvature="0" />
    <path
       inkscape:export-ydpi="75.596146"
       inkscape:export-xdpi="75.596146"
       inkscape:export-filename="H:\assembla\Unfuddle\_RaSVN\bourree\trunk\trunk\Sound\Ensemble\g5135.png"
       style="fill:none;stroke:#000000;stroke-width:1px;stroke-linecap:butt;stroke-linejoin:miter;stroke-opacity:1"
       d="m 531.48507,250.55383 27.16565,0"
       id="path4404"
       inkscape:connector-curvature="0" />
    <path
       inkscape:export-ydpi="75.596146"
       inkscape:export-xdpi="75.596146"
       inkscape:export-filename="H:\assembla\Unfuddle\_RaSVN\bourree\trunk\trunk\Sound\Ensemble\g5135.png"
       style="fill:none;stroke:#000000;stroke-width:1px;stroke-linecap:butt;stroke-linejoin:miter;stroke-opacity:1"
       d="m 531.48507,241.26812 27.16565,0"
       id="path4406"
       inkscape:connector-curvature="0" />
    <path
       inkscape:connector-curvature="0"
       id="path4408"
       d="m 531.48721,260.03389 27.16133,0"
       style="fill:none;stroke:#000000;stroke-width:1px;stroke-linecap:butt;stroke-linejoin:miter;stroke-opacity:1"
       inkscape:export-filename="H:\assembla\Unfuddle\_RaSVN\bourree\trunk\trunk\Sound\Ensemble\g5135.png"
       inkscape:export-xdpi="75.596146"
       inkscape:export-ydpi="75.596146" />
    <path
       inkscape:connector-curvature="0"
       style="font-size:43.51511002px;font-style:normal;font-variant:normal;font-weight:normal;font-stretch:normal;text-align:start;line-height:100%;writing-mode:lr-tb;text-anchor:start;fill:#000000;fill-opacity:1;stroke:none;font-family:Odnoglas;-inkscape-font-specification:Odnoglas"
       d="m 594.88478,288.68199 c -1.25192,0 -2.39745,0.18476 -3.46151,0.53946 l -1.25873,0.56193 c -1.56523,0.8552 -2.33618,2.05362 -2.31516,3.61885 0.042,1.6066 0.86588,2.82897 2.4725,3.66381 1.27293,0.64696 2.78944,0.96651 4.5629,0.96652 1.77345,0 3.33993,-0.32102 4.67529,-0.989 1.64862,-0.83484 2.47247,-2.05574 2.4725,-3.64133 -3e-5,-1.56523 -0.79492,-2.76365 -2.36011,-3.61885 l -1.30369,-0.56193 c -1.06408,-0.35469 -2.23208,-0.53946 -3.48399,-0.53946 z m -0.56193,0.6968 c 0.80444,-0.0364 1.62723,0.0593 2.36012,0.40459 0.47092,0.22188 0.56393,0.33771 0.87662,0.62936 0.18783,0.22986 0.36209,0.45851 0.53945,0.71928 0.17733,0.26076 0.35013,0.53937 0.51698,0.83166 0.60493,1.14747 0.89907,1.99739 0.89909,2.53994 -1e-5,0.93861 -0.50789,1.6277 -1.55093,2.04544 -0.81382,0.33366 -1.8485,0.49449 -3.0794,0.4945 -1.31496,-2e-5 -2.29967,-0.50286 -2.96701,-1.48351 -1.16851,-1.71105 -1.75323,-2.96238 -1.75323,-3.77619 -10e-6,-0.33367 0.10581,-0.62782 0.31469,-0.89909 0.39606,-0.48015 0.91765,-0.88089 1.61836,-1.10139 0.63474,-0.19974 1.42082,-0.3682 2.22526,-0.40459 z"
       id="path4416"
       inkscape:export-filename="H:\assembla\Unfuddle\_RaSVN\bourree\trunk\trunk\Sound\Ensemble\g5135.png"
       inkscape:export-xdpi="75.596146"
       inkscape:export-ydpi="75.596146" />
    <path
       inkscape:export-ydpi="75.596146"
       inkscape:export-xdpi="75.596146"
       inkscape:export-filename="H:\assembla\Unfuddle\_RaSVN\bourree\trunk\trunk\Sound\Ensemble\g5135.png"
       id="path4418"
       d="m 594.88478,231.8963 c -1.25192,0 -2.39745,0.18476 -3.46151,0.53946 l -1.25873,0.56193 c -1.56523,0.8552 -2.33618,2.05362 -2.31516,3.61885 0.042,1.6066 0.86588,2.82897 2.4725,3.66381 1.27293,0.64696 2.78944,0.96651 4.5629,0.96652 1.77345,0 3.33993,-0.32102 4.67529,-0.989 1.64862,-0.83484 2.47247,-2.05574 2.4725,-3.64133 -3e-5,-1.56523 -0.79492,-2.76365 -2.36011,-3.61885 l -1.30369,-0.56193 c -1.06408,-0.35469 -2.23208,-0.53946 -3.48399,-0.53946 z m -0.56193,0.6968 c 0.80444,-0.0364 1.62723,0.0593 2.36012,0.40459 0.47092,0.22188 0.56393,0.33771 0.87662,0.62936 0.18783,0.22986 0.36209,0.45851 0.53945,0.71928 0.17733,0.26076 0.35013,0.53937 0.51698,0.83166 0.60493,1.14747 0.89907,1.99739 0.89909,2.53994 -1e-5,0.93861 -0.50789,1.6277 -1.55093,2.04544 -0.81382,0.33366 -1.8485,0.49449 -3.0794,0.4945 -1.31496,-2e-5 -2.29967,-0.50286 -2.96701,-1.48351 -1.16851,-1.71105 -1.75323,-2.96238 -1.75323,-3.77619 -10e-6,-0.33367 0.10581,-0.62782 0.31469,-0.89909 0.39606,-0.48015 0.91765,-0.88089 1.61836,-1.10139 0.63474,-0.19974 1.42082,-0.3682 2.22526,-0.40459 z"
       style="font-size:43.51511002px;font-style:normal;font-variant:normal;font-weight:normal;font-stretch:normal;text-align:start;line-height:100%;writing-mode:lr-tb;text-anchor:start;fill:#000000;fill-opacity:1;stroke:none;font-family:Odnoglas;-inkscape-font-specification:Odnoglas"
       inkscape:connector-curvature="0" />
    <path
       inkscape:connector-curvature="0"
       id="path4420"
       d="m 581.48507,251.26813 27.16565,0"
       style="fill:none;stroke:#000000;stroke-width:1px;stroke-linecap:butt;stroke-linejoin:miter;stroke-opacity:1"
       inkscape:export-filename="H:\assembla\Unfuddle\_RaSVN\bourree\trunk\trunk\Sound\Ensemble\g5135.png"
       inkscape:export-xdpi="75.596146"
       inkscape:export-ydpi="75.596146" />
    <path
       inkscape:connector-curvature="0"
       id="path4422"
       d="m 581.48507,231.98241 27.16565,0"
       style="fill:none;stroke:#000000;stroke-width:1px;stroke-linecap:butt;stroke-linejoin:miter;stroke-opacity:1"
       inkscape:export-filename="H:\assembla\Unfuddle\_RaSVN\bourree\trunk\trunk\Sound\Ensemble\g5135.png"
       inkscape:export-xdpi="75.596146"
       inkscape:export-ydpi="75.596146" />
    <path
       inkscape:connector-curvature="0"
       id="path4424"
       d="m 581.48507,222.6967 27.16565,0"
       style="fill:none;stroke:#000000;stroke-width:1px;stroke-linecap:butt;stroke-linejoin:miter;stroke-opacity:1"
       inkscape:export-filename="H:\assembla\Unfuddle\_RaSVN\bourree\trunk\trunk\Sound\Ensemble\g5135.png"
       inkscape:export-xdpi="75.596146"
       inkscape:export-ydpi="75.596146" />
    <path
       inkscape:export-ydpi="75.596146"
       inkscape:export-xdpi="75.596146"
       inkscape:export-filename="H:\assembla\Unfuddle\_RaSVN\bourree\trunk\trunk\Sound\Ensemble\g5135.png"
       style="fill:none;stroke:#000000;stroke-width:1px;stroke-linecap:butt;stroke-linejoin:miter;stroke-opacity:1"
       d="m 581.48721,241.46247 27.16133,0"
       id="path4426"
       inkscape:connector-curvature="0" />
    <g
       id="g4440"
       transform="translate(-19.28573,44.857143)"
       inkscape:export-filename="H:\assembla\Unfuddle\_RaSVN\bourree\trunk\trunk\Sound\Ensemble\g5135.png"
       inkscape:export-xdpi="75.596146"
       inkscape:export-ydpi="75.596146">
      <text
         sodipodi:linespacing="100%"
         id="text4392"
         y="155.49031"
         x="559.89996"
         style="font-size:16px;font-style:normal;font-variant:normal;font-weight:normal;font-stretch:normal;text-align:center;line-height:100%;letter-spacing:0px;word-spacing:0px;writing-mode:lr-tb;text-anchor:middle;fill:#000000;fill-opacity:1;stroke:none;font-family:Times New Roman;-inkscape-font-specification:'Times New Roman,'"
         xml:space="preserve"><tspan
           id="tspan4396"
           y="155.49031"
           x="559.89996"
           sodipodi:role="line">альт</tspan></text>
      <text
         xml:space="preserve"
         style="font-size:16px;font-style:normal;font-variant:normal;font-weight:normal;font-stretch:normal;text-align:center;line-height:100%;letter-spacing:0px;word-spacing:0px;writing-mode:lr-tb;text-anchor:middle;fill:#000000;fill-opacity:1;stroke:none;font-family:Times New Roman;-inkscape-font-specification:'Times New Roman,'"
         x="610.61426"
         y="155.49031"
         id="text4410"
         sodipodi:linespacing="100%"><tspan
           sodipodi:role="line"
           x="610.61426"
           y="155.49031"
           id="tspan4414">сопрано</tspan></text>
      <text
         sodipodi:linespacing="100%"
         id="text4428"
         y="136.20459"
         x="589.8999"
         style="font-size:16px;font-style:normal;font-variant:normal;font-weight:normal;font-stretch:normal;text-align:center;line-height:100%;letter-spacing:0px;word-spacing:0px;writing-mode:lr-tb;text-anchor:middle;fill:#000000;fill-opacity:1;stroke:none;font-family:Times New Roman;-inkscape-font-specification:'Times New Roman,'"
         xml:space="preserve"><tspan
           id="tspan4432"
           y="136.20459"
           x="589.8999"
           sodipodi:role="line">Блокфлейта</tspan></text>
    </g>
    <path
       inkscape:connector-curvature="0"
       id="path4448"
       d="m 581.48507,269.12526 27.16565,0"
       style="fill:none;stroke:#000000;stroke-width:1px;stroke-linecap:butt;stroke-linejoin:miter;stroke-opacity:1"
       inkscape:export-filename="H:\assembla\Unfuddle\_RaSVN\bourree\trunk\trunk\Sound\Ensemble\g5135.png"
       inkscape:export-xdpi="75.596146"
       inkscape:export-ydpi="75.596146" />
    <path
       inkscape:export-ydpi="75.596146"
       inkscape:export-xdpi="75.596146"
       inkscape:export-filename="H:\assembla\Unfuddle\_RaSVN\bourree\trunk\trunk\Sound\Ensemble\g5135.png"
       style="fill:none;stroke:#000000;stroke-width:1px;stroke-linecap:butt;stroke-linejoin:miter;stroke-opacity:1"
       d="m 581.48721,260.03389 27.16133,0"
       id="path4450"
       inkscape:connector-curvature="0" />
    <path
       inkscape:export-ydpi="75.596146"
       inkscape:export-xdpi="75.596146"
       inkscape:export-filename="H:\assembla\Unfuddle\_RaSVN\bourree\trunk\trunk\Sound\Ensemble\g5135.png"
       id="path4452"
       d="m 595.1893,217.97105 c -1.25192,0 -2.39745,0.18476 -3.46151,0.53946 l -1.25873,0.56193 c -1.56523,0.8552 -2.33618,2.05362 -2.31516,3.61885 0.042,1.6066 0.86588,2.82897 2.4725,3.66381 1.27293,0.64696 2.78944,0.96651 4.5629,0.96652 1.77345,0 3.33993,-0.32102 4.67529,-0.989 1.64863,-0.83484 2.47248,-2.05574 2.47251,-3.64133 -3e-5,-1.56523 -0.79492,-2.76365 -2.36012,-3.61885 l -1.30369,-0.56193 c -1.06408,-0.35469 -2.23208,-0.53946 -3.48399,-0.53946 z"
       style="font-size:43.51511002px;font-style:normal;font-variant:normal;font-weight:normal;font-stretch:normal;text-align:start;line-height:100%;writing-mode:lr-tb;text-anchor:start;fill:#000000;fill-opacity:1;stroke:none;font-family:Odnoglas;-inkscape-font-specification:Odnoglas"
       inkscape:connector-curvature="0"
       sodipodi:nodetypes="sccccsccccs" />
    <path
       sodipodi:nodetypes="sccccsccccs"
       inkscape:connector-curvature="0"
       style="font-size:43.51511002px;font-style:normal;font-variant:normal;font-weight:normal;font-stretch:normal;text-align:start;line-height:100%;writing-mode:lr-tb;text-anchor:start;fill:#000000;fill-opacity:1;stroke:none;font-family:Odnoglas;-inkscape-font-specification:Odnoglas"
       d="m 545.1893,236.54248 c -1.25192,0 -2.39745,0.18476 -3.46151,0.53946 l -1.25873,0.56193 c -1.56523,0.8552 -2.33618,2.05362 -2.31516,3.61885 0.042,1.6066 0.86588,2.82897 2.4725,3.66381 1.27293,0.64696 2.78944,0.96651 4.5629,0.96652 1.77345,0 3.33993,-0.32102 4.67529,-0.989 1.64863,-0.83484 2.47248,-2.05574 2.47251,-3.64133 -3e-5,-1.56523 -0.79492,-2.76365 -2.36012,-3.61885 l -1.30369,-0.56193 c -1.06408,-0.35469 -2.23208,-0.53946 -3.48399,-0.53946 z"
       id="path4454"
       inkscape:export-filename="H:\assembla\Unfuddle\_RaSVN\bourree\trunk\trunk\Sound\Ensemble\g5135.png"
       inkscape:export-xdpi="75.596146"
       inkscape:export-ydpi="75.596146" />
    <path
       inkscape:connector-curvature="0"
       style="font-size:43.51511002px;font-style:normal;font-variant:normal;font-weight:normal;font-stretch:normal;text-align:start;line-height:100%;writing-mode:lr-tb;text-anchor:start;fill:#000000;fill-opacity:1;stroke:none;font-family:Odnoglas;-inkscape-font-specification:Odnoglas"
       d="m 365.42278,278.9005 c -1.25192,0 -2.39745,0.18476 -3.46151,0.53946 l -1.25873,0.56193 c -1.56523,0.8552 -2.33618,2.05362 -2.31516,3.61885 0.042,1.6066 0.86588,2.82897 2.4725,3.66381 1.27293,0.64696 2.78944,0.96651 4.5629,0.96652 1.77345,0 3.33993,-0.32102 4.67529,-0.989 1.64862,-0.83484 2.47247,-2.05574 2.4725,-3.64133 -3e-5,-1.56523 -0.79492,-2.76365 -2.36011,-3.61885 l -1.30369,-0.56193 c -1.06408,-0.35469 -2.23208,-0.53946 -3.48399,-0.53946 z m -0.56193,0.6968 c 0.80444,-0.0364 1.62723,0.0593 2.36012,0.40459 0.47092,0.22188 0.56393,0.33771 0.87662,0.62936 0.18783,0.22986 0.36209,0.45851 0.53945,0.71928 0.17733,0.26076 0.35013,0.53937 0.51698,0.83166 0.60493,1.14747 0.89907,1.99739 0.89909,2.53994 -1e-5,0.93861 -0.50789,1.6277 -1.55093,2.04544 -0.81382,0.33366 -1.8485,0.49449 -3.0794,0.4945 -1.31496,-2e-5 -2.29967,-0.50286 -2.96701,-1.48351 -1.16851,-1.71105 -1.75323,-2.96238 -1.75323,-3.77619 -10e-6,-0.33367 0.10581,-0.62782 0.31469,-0.89909 0.39606,-0.48015 0.91765,-0.88089 1.61836,-1.10139 0.63474,-0.19974 1.42082,-0.3682 2.22526,-0.40459 z"
       id="path3070"
       inkscape:export-filename="H:\assembla\Unfuddle\_RaSVN\bourree\trunk\trunk\Sound\Ensemble\g5135.png"
       inkscape:export-xdpi="75.596146"
       inkscape:export-ydpi="75.596146" />
    <path
       inkscape:connector-curvature="0"
       style="font-size:43.51511002px;font-style:normal;font-variant:normal;font-weight:normal;font-stretch:normal;text-align:start;line-height:100%;writing-mode:lr-tb;text-anchor:start;fill:#000000;fill-opacity:1;stroke:none;font-family:Odnoglas;-inkscape-font-specification:Odnoglas"
       d="m 365.60135,298.55351 c -1.25192,0 -2.39745,0.18476 -3.46151,0.53946 l -1.25873,0.56193 c -1.56523,0.8552 -2.33618,2.05362 -2.31516,3.61885 0.042,1.6066 0.86588,2.82897 2.4725,3.66381 1.27293,0.64696 2.78944,0.96651 4.5629,0.96652 1.77345,0 3.33993,-0.32102 4.67529,-0.989 1.64862,-0.83484 2.47247,-2.05574 2.4725,-3.64133 -3e-5,-1.56523 -0.79492,-2.76365 -2.36011,-3.61885 l -1.30369,-0.56193 c -1.06408,-0.35469 -2.23208,-0.53946 -3.48399,-0.53946 z m -0.56193,0.6968 c 0.80444,-0.0364 1.62723,0.0593 2.36012,0.40459 0.47092,0.22188 0.56393,0.33771 0.87662,0.62936 0.18783,0.22986 0.36209,0.45851 0.53945,0.71928 0.17733,0.26076 0.35013,0.53937 0.51698,0.83166 0.60493,1.14747 0.89907,1.99739 0.89909,2.53994 -10e-6,0.93861 -0.50789,1.6277 -1.55093,2.04544 -0.81382,0.33366 -1.8485,0.49449 -3.0794,0.4945 -1.31496,-2e-5 -2.29967,-0.50286 -2.96701,-1.48351 -1.16851,-1.71105 -1.75323,-2.96238 -1.75323,-3.77619 -10e-6,-0.33367 0.10581,-0.62782 0.31469,-0.89909 0.39606,-0.48015 0.91765,-0.88089 1.61836,-1.10139 0.63474,-0.19974 1.42082,-0.3682 2.22526,-0.40459 z"
       id="path3072"
       inkscape:export-filename="H:\assembla\Unfuddle\_RaSVN\bourree\trunk\trunk\Sound\Ensemble\g5135.png"
       inkscape:export-xdpi="75.596146"
       inkscape:export-ydpi="75.596146" />
    <path
       inkscape:connector-curvature="0"
       style="font-size:43.51511002px;font-style:normal;font-variant:normal;font-weight:normal;font-stretch:normal;text-align:start;line-height:100%;writing-mode:lr-tb;text-anchor:start;fill:#000000;fill-opacity:1;stroke:none;font-family:Odnoglas;-inkscape-font-specification:Odnoglas"
       d="m 365.60135,317.94637 c -1.25192,0 -2.39745,0.18476 -3.46151,0.53946 l -1.25873,0.56193 c -1.56523,0.8552 -2.33618,2.05362 -2.31516,3.61885 0.042,1.6066 0.86588,2.82897 2.4725,3.66381 1.27293,0.64696 2.78944,0.96651 4.5629,0.96652 1.77345,0 3.33993,-0.32102 4.67529,-0.989 1.64862,-0.83484 2.47247,-2.05574 2.4725,-3.64133 -3e-5,-1.56523 -0.79492,-2.76365 -2.36011,-3.61885 l -1.30369,-0.56193 c -1.06408,-0.35469 -2.23208,-0.53946 -3.48399,-0.53946 z m -0.56193,0.6968 c 0.80444,-0.0364 1.62723,0.0593 2.36012,0.40459 0.47092,0.22188 0.56393,0.33771 0.87662,0.62936 0.18783,0.22986 0.36209,0.45851 0.53945,0.71928 0.17733,0.26076 0.35013,0.53937 0.51698,0.83166 0.60493,1.14747 0.89907,1.99739 0.89909,2.53994 -10e-6,0.93861 -0.50789,1.6277 -1.55093,2.04544 -0.81382,0.33366 -1.8485,0.49449 -3.0794,0.4945 -1.31496,-2e-5 -2.29967,-0.50286 -2.96701,-1.48351 -1.16851,-1.71105 -1.75323,-2.96238 -1.75323,-3.77619 -10e-6,-0.33367 0.10581,-0.62782 0.31469,-0.89909 0.39606,-0.48015 0.91765,-0.88089 1.61836,-1.10139 0.63474,-0.19974 1.42082,-0.3682 2.22526,-0.40459 z"
       id="path3074"
       inkscape:export-filename="H:\assembla\Unfuddle\_RaSVN\bourree\trunk\trunk\Sound\Ensemble\g5135.png"
       inkscape:export-xdpi="75.596146"
       inkscape:export-ydpi="75.596146" />
    <path
       inkscape:export-ydpi="75.596146"
       inkscape:export-xdpi="75.596146"
       inkscape:export-filename="H:\assembla\Unfuddle\_RaSVN\bourree\trunk\trunk\Sound\Ensemble\g5135.png"
       id="path3076"
       d="m 365.60135,355.33923 c -1.25192,0 -2.39745,0.18476 -3.46151,0.53946 l -1.25873,0.56193 c -1.56523,0.8552 -2.33618,2.05362 -2.31516,3.61885 0.042,1.6066 0.86588,2.82897 2.4725,3.66381 1.27293,0.64696 2.78944,0.96651 4.5629,0.96652 1.77345,0 3.33993,-0.32102 4.67529,-0.989 1.64862,-0.83484 2.47247,-2.05574 2.4725,-3.64133 -3e-5,-1.56523 -0.79492,-2.76365 -2.36011,-3.61885 l -1.30369,-0.56193 c -1.06408,-0.35469 -2.23208,-0.53946 -3.48399,-0.53946 z m -0.56193,0.6968 c 0.80444,-0.0364 1.62723,0.0593 2.36012,0.40459 0.47092,0.22188 0.56393,0.33771 0.87662,0.62936 0.18783,0.22986 0.36209,0.45851 0.53945,0.71928 0.17733,0.26076 0.35013,0.53937 0.51698,0.83166 0.60493,1.14747 0.89907,1.99739 0.89909,2.53994 -10e-6,0.93861 -0.50789,1.6277 -1.55093,2.04544 -0.81382,0.33366 -1.8485,0.49449 -3.0794,0.4945 -1.31496,-2e-5 -2.29967,-0.50286 -2.96701,-1.48351 -1.16851,-1.71105 -1.75323,-2.96238 -1.75323,-3.77619 -10e-6,-0.33367 0.10581,-0.62782 0.31469,-0.89909 0.39606,-0.48015 0.91765,-0.88089 1.61836,-1.10139 0.63474,-0.19974 1.42082,-0.3682 2.22526,-0.40459 z"
       style="font-size:43.51511002px;font-style:normal;font-variant:normal;font-weight:normal;font-stretch:normal;text-align:start;line-height:100%;writing-mode:lr-tb;text-anchor:start;fill:#000000;fill-opacity:1;stroke:none;font-family:Odnoglas;-inkscape-font-specification:Odnoglas"
       inkscape:connector-curvature="0" />
    <text
       inkscape:export-ydpi="75.596146"
       inkscape:export-xdpi="75.596146"
       inkscape:export-filename="H:\assembla\Unfuddle\_RaSVN\bourree\trunk\trunk\Sound\Ensemble\g5135.png"
       xml:space="preserve"
       style="font-size:16px;font-style:normal;font-variant:normal;font-weight:normal;font-stretch:normal;text-align:start;line-height:100%;letter-spacing:0px;word-spacing:0px;writing-mode:lr-tb;text-anchor:start;fill:#000000;fill-opacity:1;stroke:none;font-family:Times New Roman;-inkscape-font-specification:'Times New Roman,'"
       x="344.61426"
       y="186.06174"
       id="text3078"
       sodipodi:linespacing="100%"><tspan
         sodipodi:role="line"
         id="tspan3080"
         x="344.61426"
         y="186.06174">Скрипка</tspan></text>
    <path
       inkscape:connector-curvature="0"
       id="path3084"
       d="m 373.48507,269.12526 27.16565,0"
       style="fill:none;stroke:#000000;stroke-width:1px;stroke-linecap:butt;stroke-linejoin:miter;stroke-opacity:1"
       inkscape:export-filename="H:\assembla\Unfuddle\_RaSVN\bourree\trunk\trunk\Sound\Ensemble\g5135.png"
       inkscape:export-xdpi="75.596146"
       inkscape:export-ydpi="75.596146" />
    <path
       inkscape:export-ydpi="75.596146"
       inkscape:export-xdpi="75.596146"
       inkscape:export-filename="H:\assembla\Unfuddle\_RaSVN\bourree\trunk\trunk\Sound\Ensemble\g5135.png"
       id="path3092"
       d="m 387.1893,245.55263 c -1.25192,0 -2.39745,0.18476 -3.46151,0.53946 l -1.25873,0.56193 c -1.56523,0.8552 -2.33618,2.05362 -2.31516,3.61885 0.042,1.6066 0.86588,2.82897 2.4725,3.66381 1.27293,0.64696 2.78944,0.96651 4.5629,0.96652 1.77345,0 3.33993,-0.32102 4.67529,-0.989 1.64863,-0.83484 2.47248,-2.05574 2.47251,-3.64133 -3e-5,-1.56523 -0.79492,-2.76365 -2.36012,-3.61885 l -1.30369,-0.56193 c -1.06408,-0.35469 -2.23208,-0.53946 -3.48399,-0.53946 z"
       style="font-size:43.51511002px;font-style:normal;font-variant:normal;font-weight:normal;font-stretch:normal;text-align:start;line-height:100%;writing-mode:lr-tb;text-anchor:start;fill:#000000;fill-opacity:1;stroke:none;font-family:Odnoglas;-inkscape-font-specification:Odnoglas"
       inkscape:connector-curvature="0"
       sodipodi:nodetypes="sccccsccccs" />
  </g>
</svg>
