<?xml version="1.0" encoding="UTF-8" standalone="no"?>
<!-- Created with Inkscape (http://www.inkscape.org/) -->
<svg
   xmlns:dc="http://purl.org/dc/elements/1.1/"
   xmlns:cc="http://creativecommons.org/ns#"
   xmlns:rdf="http://www.w3.org/1999/02/22-rdf-syntax-ns#"
   xmlns:svg="http://www.w3.org/2000/svg"
   xmlns="http://www.w3.org/2000/svg"
   xmlns:sodipodi="http://sodipodi.sourceforge.net/DTD/sodipodi-0.dtd"
   xmlns:inkscape="http://www.inkscape.org/namespaces/inkscape"
   width="744.09448819"
   height="1052.3622047"
   id="svg2"
   sodipodi:version="0.32"
   inkscape:version="0.46"
   sodipodi:docname="fingering.svg"
   inkscape:output_extension="org.inkscape.output.svg.inkscape">
  <defs
     id="defs4">
    <inkscape:perspective
       sodipodi:type="inkscape:persp3d"
       inkscape:vp_x="0 : 526.18109 : 1"
       inkscape:vp_y="6.1230318e-14 : 1000 : 0"
       inkscape:vp_z="744.09448 : 526.18109 : 1"
       inkscape:persp3d-origin="372.04724 : 350.78739 : 1"
       id="perspective10" />
  </defs>
  <sodipodi:namedview
     id="base"
     pagecolor="#ffffff"
     bordercolor="#666666"
     borderopacity="1.0"
     gridtolerance="10000"
     guidetolerance="10"
     objecttolerance="10"
     inkscape:pageopacity="0.0"
     inkscape:pageshadow="2"
     inkscape:zoom="1.4"
     inkscape:cx="365.71753"
     inkscape:cy="749.64515"
     inkscape:document-units="px"
     inkscape:current-layer="layer1"
     showgrid="false"
     inkscape:window-width="1024"
     inkscape:window-height="747"
     inkscape:window-x="0"
     inkscape:window-y="0" />
  <metadata
     id="metadata7">
    <rdf:RDF>
      <cc:Work
         rdf:about="">
        <dc:format>image/svg+xml</dc:format>
        <dc:type
           rdf:resource="http://purl.org/dc/dcmitype/StillImage" />
      </cc:Work>
    </rdf:RDF>
  </metadata>
  <g
     inkscape:label="Layer 1"
     inkscape:groupmode="layer"
     id="layer1">
    <text
       xml:space="preserve"
       style="font-size:20px;font-style:normal;font-variant:normal;font-weight:normal;font-stretch:normal;text-align:start;line-height:100%;writing-mode:lr-tb;text-anchor:start;fill:#000000;fill-opacity:1;stroke:none;stroke-width:1px;stroke-linecap:butt;stroke-linejoin:miter;stroke-opacity:1;font-family:Arial;-inkscape-font-specification:Arial"
       x="174.72665"
       y="79.758598"
       id="text2386"
       sodipodi:linespacing="100%"><tspan
         sodipodi:role="line"
         id="tspan2388"
         x="174.72665"
         y="79.758598">Аппликатура балалайки в народном строе D-F#-A</tspan></text>
    <rect
       y="145.5275"
       x="233.15663"
       height="103.5094"
       width="72.142845"
       id="rect3391"
       style="opacity:0.39512197;fill:none;fill-opacity:1;fill-rule:evenodd;stroke:#000000;stroke-width:1.79999971;stroke-linecap:butt;stroke-linejoin:miter;marker:none;marker-start:none;marker-mid:none;marker-end:none;stroke-miterlimit:4;stroke-dasharray:none;stroke-dashoffset:0;stroke-opacity:1;visibility:visible;display:inline;overflow:visible" />
    <rect
       y="145.5275"
       x="343.76834"
       height="133.81398"
       width="72.142845"
       id="rect3417"
       style="opacity:0.39512197;fill:none;fill-opacity:1;fill-rule:evenodd;stroke:#000000;stroke-width:1.79999983;stroke-linecap:butt;stroke-linejoin:miter;marker:none;marker-start:none;marker-mid:none;marker-end:none;stroke-miterlimit:4;stroke-dasharray:none;stroke-dashoffset:0;stroke-opacity:1;visibility:visible;display:inline;overflow:visible" />
    <rect
       style="opacity:0.39512197;fill:none;fill-opacity:1;fill-rule:evenodd;stroke:#000000;stroke-width:1.79999971;stroke-linecap:butt;stroke-linejoin:miter;marker:none;marker-start:none;marker-mid:none;marker-end:none;stroke-miterlimit:4;stroke-dasharray:none;stroke-dashoffset:0;stroke-opacity:1;visibility:visible;display:inline;overflow:visible"
       id="rect2552"
       width="72.142845"
       height="103.5094"
       x="446.80389"
       y="145.5275" />
    <path
       style="fill:none;fill-opacity:0.75;fill-rule:evenodd;stroke:#000000;stroke-width:1px;stroke-linecap:butt;stroke-linejoin:miter;stroke-opacity:1"
       d="M 238.8709,146.2418 L 238.8709,248.53184"
       id="path3393" />
    <path
       style="fill:none;fill-opacity:0.75;fill-rule:evenodd;stroke:#000000;stroke-width:1px;stroke-linecap:butt;stroke-linejoin:miter;stroke-opacity:1"
       d="M 349.4826,146.2418 L 349.4826,277.32119"
       id="path3419" />
    <path
       id="path3326"
       d="M 452.51816,146.2418 L 452.51816,248.53184"
       style="fill:none;fill-opacity:0.75;fill-rule:evenodd;stroke:#000000;stroke-width:1px;stroke-linecap:butt;stroke-linejoin:miter;stroke-opacity:1" />
    <path
       style="fill:none;fill-opacity:0.75;fill-rule:evenodd;stroke:#000000;stroke-width:1px;stroke-linecap:butt;stroke-linejoin:miter;stroke-opacity:1"
       d="M 269.22805,146.2418 L 269.22805,248.53184"
       id="path3395" />
    <path
       style="fill:none;fill-opacity:0.75;fill-rule:evenodd;stroke:#000000;stroke-width:1px;stroke-linecap:butt;stroke-linejoin:miter;stroke-opacity:1"
       d="M 379.83975,146.2418 L 379.83975,277.32119"
       id="path3421" />
    <path
       id="path3328"
       d="M 482.87531,146.2418 L 482.87531,248.53184"
       style="fill:none;fill-opacity:0.75;fill-rule:evenodd;stroke:#000000;stroke-width:1px;stroke-linecap:butt;stroke-linejoin:miter;stroke-opacity:1" />
    <path
       id="path3397"
       d="M 299.58519,146.2418 L 299.58519,248.53184"
       style="fill:none;fill-opacity:0.75;fill-rule:evenodd;stroke:#000000;stroke-width:1px;stroke-linecap:butt;stroke-linejoin:miter;stroke-opacity:1" />
    <path
       id="path3423"
       d="M 410.19689,146.2418 L 410.19689,277.32119"
       style="fill:none;fill-opacity:0.75;fill-rule:evenodd;stroke:#000000;stroke-width:1px;stroke-linecap:butt;stroke-linejoin:miter;stroke-opacity:1" />
    <path
       style="fill:none;fill-opacity:0.75;fill-rule:evenodd;stroke:#000000;stroke-width:1px;stroke-linecap:butt;stroke-linejoin:miter;stroke-opacity:1"
       d="M 513.23245,146.2418 L 513.23245,248.53184"
       id="path3324" />
    <path
       style="fill:none;fill-opacity:0.75;fill-rule:evenodd;stroke:#000000;stroke-width:1px;stroke-linecap:butt;stroke-linejoin:miter;stroke-opacity:1"
       d="M 232.44233,178.38466 L 304.58519,178.38466"
       id="path3399" />
    <path
       style="fill:none;fill-opacity:0.75;fill-rule:evenodd;stroke:#000000;stroke-width:1px;stroke-linecap:butt;stroke-linejoin:miter;stroke-opacity:1"
       d="M 343.05403,178.38465 L 415.19689,178.38465"
       id="path3425" />
    <path
       id="path3332"
       d="M 446.08959,178.38465 L 518.23245,178.38465"
       style="fill:none;fill-opacity:0.75;fill-rule:evenodd;stroke:#000000;stroke-width:1px;stroke-linecap:butt;stroke-linejoin:miter;stroke-opacity:1" />
    <path
       style="fill:none;fill-opacity:0.75;fill-rule:evenodd;stroke:#000000;stroke-width:1px;stroke-linecap:butt;stroke-linejoin:miter;stroke-opacity:1"
       d="M 232.44233,207.81323 L 304.58519,207.81323"
       id="path3401" />
    <path
       style="fill:none;fill-opacity:0.75;fill-rule:evenodd;stroke:#000000;stroke-width:1px;stroke-linecap:butt;stroke-linejoin:miter;stroke-opacity:1"
       d="M 343.05403,207.81323 L 415.19689,207.81323"
       id="path3427" />
    <path
       id="path3334"
       d="M 446.08959,207.81323 L 518.23245,207.81323"
       style="fill:none;fill-opacity:0.75;fill-rule:evenodd;stroke:#000000;stroke-width:1px;stroke-linecap:butt;stroke-linejoin:miter;stroke-opacity:1" />
    <path
       style="fill:none;fill-opacity:0.75;fill-rule:evenodd;stroke:#000000;stroke-width:1px;stroke-linecap:butt;stroke-linejoin:miter;stroke-opacity:1"
       d="M 232.44233,237.24181 L 304.58519,237.24181"
       id="path3403" />
    <path
       style="fill:none;fill-opacity:0.75;fill-rule:evenodd;stroke:#000000;stroke-width:1px;stroke-linecap:butt;stroke-linejoin:miter;stroke-opacity:1"
       d="M 343.05403,237.24181 L 415.19689,237.24181"
       id="path3429" />
    <path
       id="path3336"
       d="M 446.08959,237.24181 L 518.23245,237.24181"
       style="fill:none;fill-opacity:0.75;fill-rule:evenodd;stroke:#000000;stroke-width:1px;stroke-linecap:butt;stroke-linejoin:miter;stroke-opacity:1" />
    <path
       transform="matrix(0.6842105,0,0,0.6842105,175.22428,122.77476)"
       d="M 99.285714,147.71933 A 6.7857141,6.7857141 0 1 1 85.714286,147.71933 A 6.7857141,6.7857141 0 1 1 99.285714,147.71933 z"
       sodipodi:ry="6.7857141"
       sodipodi:rx="6.7857141"
       sodipodi:cy="147.71933"
       sodipodi:cx="92.5"
       id="path3405"
       style="opacity:1;fill:none;fill-opacity:1;fill-rule:evenodd;stroke:#000000;stroke-width:2.63076925;stroke-linecap:butt;stroke-linejoin:miter;marker:none;marker-start:none;marker-mid:none;marker-end:none;stroke-miterlimit:4;stroke-dasharray:none;stroke-dashoffset:0;stroke-opacity:1;visibility:visible;display:inline;overflow:visible"
       sodipodi:type="arc" />
    <path
       transform="matrix(0.6842105,0,0,0.6842105,317.15071,123.27984)"
       d="M 99.285714,147.71933 A 6.7857141,6.7857141 0 1 1 85.714286,147.71933 A 6.7857141,6.7857141 0 1 1 99.285714,147.71933 z"
       sodipodi:ry="6.7857141"
       sodipodi:rx="6.7857141"
       sodipodi:cy="147.71933"
       sodipodi:cx="92.5"
       id="path3431"
       style="opacity:1;fill:none;fill-opacity:1;fill-rule:evenodd;stroke:#000000;stroke-width:2.63076925;stroke-linecap:butt;stroke-linejoin:miter;marker:none;marker-start:none;marker-mid:none;marker-end:none;stroke-miterlimit:4;stroke-dasharray:none;stroke-dashoffset:0;stroke-opacity:1;visibility:visible;display:inline;overflow:visible"
       sodipodi:type="arc" />
    <path
       sodipodi:type="arc"
       style="opacity:1;fill:none;fill-opacity:1;fill-rule:evenodd;stroke:#000000;stroke-width:2.63076925;stroke-linecap:butt;stroke-linejoin:miter;marker:none;marker-start:none;marker-mid:none;marker-end:none;stroke-miterlimit:4;stroke-dasharray:none;stroke-dashoffset:0;stroke-opacity:1;visibility:visible;display:inline;overflow:visible"
       id="path3342"
       sodipodi:cx="92.5"
       sodipodi:cy="147.71933"
       sodipodi:rx="6.7857141"
       sodipodi:ry="6.7857141"
       d="M 99.285714,147.71933 A 6.7857141,6.7857141 0 1 1 85.714286,147.71933 A 6.7857141,6.7857141 0 1 1 99.285714,147.71933 z"
       transform="matrix(0.6842105,0,0,0.6842105,449.98577,121.76461)" />
    <path
       sodipodi:type="arc"
       style="opacity:1;fill:#000000;fill-opacity:1;fill-rule:evenodd;stroke:#000000;stroke-width:2.63076925;stroke-linecap:butt;stroke-linejoin:miter;marker:none;marker-start:none;marker-mid:none;marker-end:none;stroke-miterlimit:4;stroke-dasharray:none;stroke-dashoffset:0;stroke-opacity:1;visibility:visible;display:inline;overflow:visible"
       id="path3407"
       sodipodi:cx="92.5"
       sodipodi:cy="147.71933"
       sodipodi:rx="6.7857141"
       sodipodi:ry="6.7857141"
       d="M 99.285714,147.71933 A 6.7857141,6.7857141 0 1 1 85.714286,147.71933 A 6.7857141,6.7857141 0 1 1 99.285714,147.71933 z"
       transform="matrix(0.6842105,0,0,0.6842105,236.33851,122.77476)" />
    <path
       sodipodi:type="arc"
       style="opacity:1;fill:#000000;fill-opacity:1;fill-rule:evenodd;stroke:#000000;stroke-width:2.63076925;stroke-linecap:butt;stroke-linejoin:miter;marker:none;marker-start:none;marker-mid:none;marker-end:none;stroke-miterlimit:4;stroke-dasharray:none;stroke-dashoffset:0;stroke-opacity:1;visibility:visible;display:inline;overflow:visible"
       id="path3433"
       sodipodi:cx="92.5"
       sodipodi:cy="147.71933"
       sodipodi:rx="6.7857141"
       sodipodi:ry="6.7857141"
       d="M 99.285714,147.71933 A 6.7857141,6.7857141 0 1 1 85.714286,147.71933 A 6.7857141,6.7857141 0 1 1 99.285714,147.71933 z"
       transform="matrix(0.6842105,0,0,0.6842105,286.34106,92.975258)" />
    <path
       transform="matrix(0.6842105,0,0,0.6842105,419.17612,62.165605)"
       d="M 99.285714,147.71933 A 6.7857141,6.7857141 0 1 1 85.714286,147.71933 A 6.7857141,6.7857141 0 1 1 99.285714,147.71933 z"
       sodipodi:ry="6.7857141"
       sodipodi:rx="6.7857141"
       sodipodi:cy="147.71933"
       sodipodi:cx="92.5"
       id="path3344"
       style="opacity:1;fill:#000000;fill-opacity:1;fill-rule:evenodd;stroke:#000000;stroke-width:2.63076925;stroke-linecap:butt;stroke-linejoin:miter;marker:none;marker-start:none;marker-mid:none;marker-end:none;stroke-miterlimit:4;stroke-dasharray:none;stroke-dashoffset:0;stroke-opacity:1;visibility:visible;display:inline;overflow:visible"
       sodipodi:type="arc" />
    <text
       xml:space="preserve"
       style="font-size:16px;font-style:normal;font-variant:normal;font-weight:normal;font-stretch:normal;text-align:start;line-height:100%;writing-mode:lr-tb;text-anchor:start;fill:#000000;fill-opacity:1;stroke:none;stroke-width:1px;stroke-linecap:butt;stroke-linejoin:miter;stroke-opacity:1;font-family:Arial;-inkscape-font-specification:Arial"
       x="80.812202"
       y="192.72237"
       id="text3346"
       sodipodi:linespacing="100%"><tspan
         sodipodi:role="line"
         id="tspan3348"
         x="80.812202"
         y="192.72237" /></text>
    <text
       xml:space="preserve"
       style="font-size:16px;font-style:normal;font-variant:normal;font-weight:normal;font-stretch:normal;text-align:start;line-height:100%;writing-mode:lr-tb;text-anchor:start;fill:#000000;fill-opacity:1;stroke:none;stroke-width:1px;stroke-linecap:butt;stroke-linejoin:miter;stroke-opacity:1;font-family:Odnoglas;-inkscape-font-specification:Odnoglas"
       x="57.07362"
       y="262.42288"
       id="text3354"
       sodipodi:linespacing="100%"><tspan
         sodipodi:role="line"
         id="tspan3356"
         x="57.07362"
         y="262.42288" /></text>
    <g
       transform="translate(161.29986,34.300582)"
       id="g3409">
      <rect
         style="fill:#e6e6e6;fill-opacity:1;fill-rule:evenodd;stroke:none;stroke-width:1.79999995;stroke-linecap:butt;stroke-linejoin:miter;marker:none;marker-start:none;marker-mid:none;marker-end:none;stroke-miterlimit:4;stroke-dasharray:none;stroke-dashoffset:0;stroke-opacity:1;visibility:visible;display:inline;overflow:visible"
         id="rect3411"
         width="22.223356"
         height="47.98225"
         x="97.479721"
         y="151.81119" />
      <path
         style="font-size:16px;font-style:normal;font-variant:normal;font-weight:normal;font-stretch:normal;text-align:start;line-height:100%;writing-mode:lr-tb;text-anchor:start;fill:#000000;fill-opacity:1;stroke:none;stroke-width:1px;stroke-linecap:butt;stroke-linejoin:miter;stroke-opacity:1;font-family:Arial;-inkscape-font-specification:Arial"
         d="M 103.0801,166.4584 L 103.0801,158.16152 L 104.33791,158.16152 L 104.33791,159.32559 C 104.59832,158.91934 104.94468,158.59252 105.37697,158.34512 C 105.80926,158.09773 106.30145,157.97403 106.85354,157.97402 C 107.46811,157.97403 107.97202,158.10164 108.36525,158.35684 C 108.75848,158.61205 109.03582,158.96882 109.19729,159.42715 C 109.85353,158.45841 110.70769,157.97403 111.75979,157.97402 C 112.58269,157.97403 113.2155,158.2019 113.65822,158.65762 C 114.10092,159.11335 114.32227,159.81518 114.32229,160.76309 L 114.32229,166.4584 L 112.92385,166.4584 L 112.92385,161.23184 C 112.92384,160.66934 112.87827,160.26439 112.78713,160.01699 C 112.69597,159.7696 112.53061,159.57038 112.29104,159.41934 C 112.05144,159.2683 111.77019,159.19278 111.44729,159.19277 C 110.86394,159.19278 110.37957,159.38679 109.99416,159.7748 C 109.60873,160.16283 109.41603,160.78392 109.41604,161.63809 L 109.41604,166.4584 L 108.00979,166.4584 L 108.00979,161.06777 C 108.00978,160.44278 107.8952,159.97403 107.66604,159.66152 C 107.43686,159.34903 107.06186,159.19278 106.54104,159.19277 C 106.1452,159.19278 105.77931,159.29695 105.44338,159.50527 C 105.10744,159.71361 104.86395,160.0183 104.71291,160.41934 C 104.56186,160.82038 104.48635,161.39851 104.48635,162.15371 L 104.48635,166.4584 L 103.0801,166.4584 z"
         id="path3413" />
      <path
         id="path3415"
         d="M 103.2129,192.72237 L 103.2129,181.26925 L 105.49415,181.26925 L 108.20509,189.37862 C 108.45508,190.13384 108.63738,190.69894 108.75197,191.07394 C 108.88217,190.65727 109.08529,190.04529 109.36134,189.238 L 112.10353,181.26925 L 114.14259,181.26925 L 114.14259,192.72237 L 112.68165,192.72237 L 112.68165,183.13644 L 109.35353,192.72237 L 107.98634,192.72237 L 104.67384,182.97237 L 104.67384,192.72237 L 103.2129,192.72237 z"
         style="font-size:16px;font-style:normal;font-variant:normal;font-weight:normal;font-stretch:normal;text-align:start;line-height:100%;writing-mode:lr-tb;text-anchor:start;fill:#000000;fill-opacity:1;stroke:none;stroke-width:1px;stroke-linecap:butt;stroke-linejoin:miter;stroke-opacity:1;font-family:Arial;-inkscape-font-specification:Arial" />
    </g>
    <g
       transform="translate(300.70091,64.100082)"
       id="g3435">
      <rect
         style="fill:#e6e6e6;fill-opacity:1;fill-rule:evenodd;stroke:none;stroke-width:1.79999995;stroke-linecap:butt;stroke-linejoin:miter;marker:none;marker-start:none;marker-mid:none;marker-end:none;stroke-miterlimit:4;stroke-dasharray:none;stroke-dashoffset:0;stroke-opacity:1;visibility:visible;display:inline;overflow:visible"
         id="rect3437"
         width="22.223356"
         height="47.98225"
         x="97.479721"
         y="151.81119" />
      <path
         style="font-size:16px;font-style:normal;font-variant:normal;font-weight:normal;font-stretch:normal;text-align:start;line-height:100%;writing-mode:lr-tb;text-anchor:start;fill:#000000;fill-opacity:1;stroke:none;stroke-width:1px;stroke-linecap:butt;stroke-linejoin:miter;stroke-opacity:1;font-family:Arial;-inkscape-font-specification:Arial"
         d="M 103.0801,166.4584 L 103.0801,158.16152 L 104.33791,158.16152 L 104.33791,159.32559 C 104.59832,158.91934 104.94468,158.59252 105.37697,158.34512 C 105.80926,158.09773 106.30145,157.97403 106.85354,157.97402 C 107.46811,157.97403 107.97202,158.10164 108.36525,158.35684 C 108.75848,158.61205 109.03582,158.96882 109.19729,159.42715 C 109.85353,158.45841 110.70769,157.97403 111.75979,157.97402 C 112.58269,157.97403 113.2155,158.2019 113.65822,158.65762 C 114.10092,159.11335 114.32227,159.81518 114.32229,160.76309 L 114.32229,166.4584 L 112.92385,166.4584 L 112.92385,161.23184 C 112.92384,160.66934 112.87827,160.26439 112.78713,160.01699 C 112.69597,159.7696 112.53061,159.57038 112.29104,159.41934 C 112.05144,159.2683 111.77019,159.19278 111.44729,159.19277 C 110.86394,159.19278 110.37957,159.38679 109.99416,159.7748 C 109.60873,160.16283 109.41603,160.78392 109.41604,161.63809 L 109.41604,166.4584 L 108.00979,166.4584 L 108.00979,161.06777 C 108.00978,160.44278 107.8952,159.97403 107.66604,159.66152 C 107.43686,159.34903 107.06186,159.19278 106.54104,159.19277 C 106.1452,159.19278 105.77931,159.29695 105.44338,159.50527 C 105.10744,159.71361 104.86395,160.0183 104.71291,160.41934 C 104.56186,160.82038 104.48635,161.39851 104.48635,162.15371 L 104.48635,166.4584 L 103.0801,166.4584 z"
         id="path3439" />
      <path
         id="path3441"
         d="M 103.2129,192.72237 L 103.2129,181.26925 L 105.49415,181.26925 L 108.20509,189.37862 C 108.45508,190.13384 108.63738,190.69894 108.75197,191.07394 C 108.88217,190.65727 109.08529,190.04529 109.36134,189.238 L 112.10353,181.26925 L 114.14259,181.26925 L 114.14259,192.72237 L 112.68165,192.72237 L 112.68165,183.13644 L 109.35353,192.72237 L 107.98634,192.72237 L 104.67384,182.97237 L 104.67384,192.72237 L 103.2129,192.72237 z"
         style="font-size:16px;font-style:normal;font-variant:normal;font-weight:normal;font-stretch:normal;text-align:start;line-height:100%;writing-mode:lr-tb;text-anchor:start;fill:#000000;fill-opacity:1;stroke:none;stroke-width:1px;stroke-linecap:butt;stroke-linejoin:miter;stroke-opacity:1;font-family:Arial;-inkscape-font-specification:Arial" />
    </g>
    <g
       id="g3386"
       transform="translate(343.63239,0.4604717)">
      <rect
         y="151.81119"
         x="97.479721"
         height="47.98225"
         width="22.223356"
         id="rect3362"
         style="fill:#e6e6e6;fill-opacity:1;fill-rule:evenodd;stroke:none;stroke-width:1.79999995;stroke-linecap:butt;stroke-linejoin:miter;marker:none;marker-start:none;marker-mid:none;marker-end:none;stroke-miterlimit:4;stroke-dasharray:none;stroke-dashoffset:0;stroke-opacity:1;visibility:visible;display:inline;overflow:visible" />
      <path
         id="text3350"
         d="M 103.0801,166.4584 L 103.0801,158.16152 L 104.33791,158.16152 L 104.33791,159.32559 C 104.59832,158.91934 104.94468,158.59252 105.37697,158.34512 C 105.80926,158.09773 106.30145,157.97403 106.85354,157.97402 C 107.46811,157.97403 107.97202,158.10164 108.36525,158.35684 C 108.75848,158.61205 109.03582,158.96882 109.19729,159.42715 C 109.85353,158.45841 110.70769,157.97403 111.75979,157.97402 C 112.58269,157.97403 113.2155,158.2019 113.65822,158.65762 C 114.10092,159.11335 114.32227,159.81518 114.32229,160.76309 L 114.32229,166.4584 L 112.92385,166.4584 L 112.92385,161.23184 C 112.92384,160.66934 112.87827,160.26439 112.78713,160.01699 C 112.69597,159.7696 112.53061,159.57038 112.29104,159.41934 C 112.05144,159.2683 111.77019,159.19278 111.44729,159.19277 C 110.86394,159.19278 110.37957,159.38679 109.99416,159.7748 C 109.60873,160.16283 109.41603,160.78392 109.41604,161.63809 L 109.41604,166.4584 L 108.00979,166.4584 L 108.00979,161.06777 C 108.00978,160.44278 107.8952,159.97403 107.66604,159.66152 C 107.43686,159.34903 107.06186,159.19278 106.54104,159.19277 C 106.1452,159.19278 105.77931,159.29695 105.44338,159.50527 C 105.10744,159.71361 104.86395,160.0183 104.71291,160.41934 C 104.56186,160.82038 104.48635,161.39851 104.48635,162.15371 L 104.48635,166.4584 L 103.0801,166.4584 z"
         style="font-size:16px;font-style:normal;font-variant:normal;font-weight:normal;font-stretch:normal;text-align:start;line-height:100%;writing-mode:lr-tb;text-anchor:start;fill:#000000;fill-opacity:1;stroke:none;stroke-width:1px;stroke-linecap:butt;stroke-linejoin:miter;stroke-opacity:1;font-family:Arial;-inkscape-font-specification:Arial" />
      <path
         style="font-size:16px;font-style:normal;font-variant:normal;font-weight:normal;font-stretch:normal;text-align:start;line-height:100%;writing-mode:lr-tb;text-anchor:start;fill:#000000;fill-opacity:1;stroke:none;stroke-width:1px;stroke-linecap:butt;stroke-linejoin:miter;stroke-opacity:1;font-family:Arial;-inkscape-font-specification:Arial"
         d="M 103.2129,192.72237 L 103.2129,181.26925 L 105.49415,181.26925 L 108.20509,189.37862 C 108.45508,190.13384 108.63738,190.69894 108.75197,191.07394 C 108.88217,190.65727 109.08529,190.04529 109.36134,189.238 L 112.10353,181.26925 L 114.14259,181.26925 L 114.14259,192.72237 L 112.68165,192.72237 L 112.68165,183.13644 L 109.35353,192.72237 L 107.98634,192.72237 L 104.67384,182.97237 L 104.67384,192.72237 L 103.2129,192.72237 z"
         id="path3373" />
    </g>
    <g
       id="g3463"
       transform="translate(54.223691,-134.89996)">
      <rect
         style="fill:#e6e6e6;fill-opacity:1;fill-rule:evenodd;stroke:none;stroke-width:1.79999995;stroke-linecap:butt;stroke-linejoin:miter;marker:none;marker-start:none;marker-mid:none;marker-end:none;stroke-miterlimit:4;stroke-dasharray:none;stroke-dashoffset:0;stroke-opacity:1;visibility:visible;display:inline;overflow:visible"
         id="rect3459"
         width="18.687822"
         height="18.687824"
         x="174.25131"
         y="287.17163" />
      <path
         style="font-size:16px;font-style:normal;font-variant:normal;font-weight:normal;font-stretch:normal;text-align:start;line-height:100%;writing-mode:lr-tb;text-anchor:start;fill:#000000;fill-opacity:1;stroke:none;stroke-width:1px;stroke-linecap:butt;stroke-linejoin:miter;stroke-opacity:1;font-family:Arial;-inkscape-font-specification:Arial"
         d="M 180.56498,292.87588 L 180.56498,291.52432 L 187.97904,291.52432 L 187.97904,292.61807 C 187.24986,293.39412 186.52721,294.42537 185.81107,295.71182 C 185.09492,296.99829 184.54153,298.3212 184.15091,299.68057 C 183.86966,300.63891 183.68997,301.68839 183.61185,302.82901 L 182.16654,302.82901 C 182.18216,301.92797 182.35924,300.83943 182.69779,299.56338 C 183.03633,298.28735 183.522,297.05688 184.15482,295.87198 C 184.78763,294.68709 185.4608,293.68839 186.17435,292.87588 L 180.56498,292.87588 z"
         id="path3461" />
    </g>
    <g
       transform="translate(196.15012,-134.89996)"
       id="g3467">
      <rect
         y="287.17163"
         x="174.25131"
         height="18.687824"
         width="18.687822"
         id="rect3469"
         style="fill:#e6e6e6;fill-opacity:1;fill-rule:evenodd;stroke:none;stroke-width:1.79999995;stroke-linecap:butt;stroke-linejoin:miter;marker:none;marker-start:none;marker-mid:none;marker-end:none;stroke-miterlimit:4;stroke-dasharray:none;stroke-dashoffset:0;stroke-opacity:1;visibility:visible;display:inline;overflow:visible" />
      <path
         id="path3471"
         d="M 180.56498,292.87588 L 180.56498,291.52432 L 187.97904,291.52432 L 187.97904,292.61807 C 187.24986,293.39412 186.52721,294.42537 185.81107,295.71182 C 185.09492,296.99829 184.54153,298.3212 184.15091,299.68057 C 183.86966,300.63891 183.68997,301.68839 183.61185,302.82901 L 182.16654,302.82901 C 182.18216,301.92797 182.35924,300.83943 182.69779,299.56338 C 183.03633,298.28735 183.522,297.05688 184.15482,295.87198 C 184.78763,294.68709 185.4608,293.68839 186.17435,292.87588 L 180.56498,292.87588 z"
         style="font-size:16px;font-style:normal;font-variant:normal;font-weight:normal;font-stretch:normal;text-align:start;line-height:100%;writing-mode:lr-tb;text-anchor:start;fill:#000000;fill-opacity:1;stroke:none;stroke-width:1px;stroke-linecap:butt;stroke-linejoin:miter;stroke-opacity:1;font-family:Arial;-inkscape-font-specification:Arial" />
    </g>
    <path
       id="path3473"
       d="M 343.05403,270.57684 L 415.19689,270.57684"
       style="fill:none;fill-opacity:0.75;fill-rule:evenodd;stroke:#000000;stroke-width:1px;stroke-linecap:butt;stroke-linejoin:miter;stroke-opacity:1" />
    <g
       id="g3475"
       transform="translate(328.48011,-134.39488)">
      <rect
         style="fill:#e6e6e6;fill-opacity:1;fill-rule:evenodd;stroke:none;stroke-width:1.79999995;stroke-linecap:butt;stroke-linejoin:miter;marker:none;marker-start:none;marker-mid:none;marker-end:none;stroke-miterlimit:4;stroke-dasharray:none;stroke-dashoffset:0;stroke-opacity:1;visibility:visible;display:inline;overflow:visible"
         id="rect3477"
         width="18.687822"
         height="18.687824"
         x="174.25131"
         y="287.17163" />
      <path
         style="font-size:16px;font-style:normal;font-variant:normal;font-weight:normal;font-stretch:normal;text-align:start;line-height:100%;writing-mode:lr-tb;text-anchor:start;fill:#000000;fill-opacity:1;stroke:none;stroke-width:1px;stroke-linecap:butt;stroke-linejoin:miter;stroke-opacity:1;font-family:Arial;-inkscape-font-specification:Arial"
         d="M 180.56498,292.87588 L 180.56498,291.52432 L 187.97904,291.52432 L 187.97904,292.61807 C 187.24986,293.39412 186.52721,294.42537 185.81107,295.71182 C 185.09492,296.99829 184.54153,298.3212 184.15091,299.68057 C 183.86966,300.63891 183.68997,301.68839 183.61185,302.82901 L 182.16654,302.82901 C 182.18216,301.92797 182.35924,300.83943 182.69779,299.56338 C 183.03633,298.28735 183.522,297.05688 184.15482,295.87198 C 184.78763,294.68709 185.4608,293.68839 186.17435,292.87588 L 180.56498,292.87588 z"
         id="path3479" />
    </g>
    <path
       transform="matrix(0.6842105,0,0,0.6842105,187.36714,235.6319)"
       d="M 99.285714,147.71933 A 6.7857141,6.7857141 0 1 1 85.714286,147.71933 A 6.7857141,6.7857141 0 1 1 99.285714,147.71933 z"
       sodipodi:ry="6.7857141"
       sodipodi:rx="6.7857141"
       sodipodi:cy="147.71933"
       sodipodi:cx="92.5"
       id="path3487"
       style="opacity:1;fill:none;fill-opacity:1;fill-rule:evenodd;stroke:#000000;stroke-width:2.63076925;stroke-linecap:butt;stroke-linejoin:miter;marker:none;marker-start:none;marker-mid:none;marker-end:none;stroke-miterlimit:4;stroke-dasharray:none;stroke-dashoffset:0;stroke-opacity:1;visibility:visible;display:inline;overflow:visible"
       sodipodi:type="arc" />
    <path
       sodipodi:type="arc"
       style="opacity:1;fill:#000000;fill-opacity:1;fill-rule:evenodd;stroke:#000000;stroke-width:2.63076925000000020;stroke-linecap:butt;stroke-linejoin:miter;marker:none;marker-start:none;marker-mid:none;marker-end:none;stroke-miterlimit:4;stroke-dasharray:none;stroke-dashoffset:0;stroke-opacity:1;visibility:visible;display:inline;overflow:visible"
       id="path3481"
       sodipodi:cx="92.5"
       sodipodi:cy="147.71933"
       sodipodi:rx="6.7857141"
       sodipodi:ry="6.7857141"
       d="M 99.285714,147.71933 A 6.7857141,6.7857141 0 1 1 85.714286,147.71933 A 6.7857141,6.7857141 0 1 1 99.285714,147.71933 z"
       transform="matrix(0.6842105,0,0,0.6842105,187.36714,258.48904)" />
    <text
       sodipodi:linespacing="100%"
       id="text3489"
       y="339.50504"
       x="272.85715"
       style="font-size:12px;font-style:normal;font-variant:normal;font-weight:normal;font-stretch:normal;text-align:start;line-height:100%;writing-mode:lr-tb;text-anchor:start;fill:#000000;fill-opacity:1;stroke:none;stroke-width:1px;stroke-linecap:butt;stroke-linejoin:miter;stroke-opacity:1;font-family:Arial;-inkscape-font-specification:Arial"
       xml:space="preserve"><tspan
         y="339.50504"
         x="272.85715"
         id="tspan3491"
         sodipodi:role="line">основной тон аккорда</tspan></text>
    <text
       sodipodi:linespacing="100%"
       id="text3520"
       y="362.36218"
       x="272.85715"
       style="font-size:12px;font-style:normal;font-variant:normal;font-weight:normal;font-stretch:normal;text-align:start;line-height:100%;writing-mode:lr-tb;text-anchor:start;fill:#000000;fill-opacity:1;stroke:none;stroke-width:1px;stroke-linecap:butt;stroke-linejoin:miter;stroke-opacity:1;font-family:Arial;-inkscape-font-specification:Arial"
       xml:space="preserve"><tspan
         y="362.36218"
         x="272.85715"
         id="tspan3522"
         sodipodi:role="line">квинтовый тон аккорда</tspan></text>
    <text
       sodipodi:linespacing="100%"
       id="text3524"
       y="392.36218"
       x="272.85715"
       style="font-size:12px;font-style:normal;font-variant:normal;font-weight:normal;font-stretch:normal;text-align:start;line-height:100%;writing-mode:lr-tb;text-anchor:start;fill:#000000;fill-opacity:1;stroke:none;stroke-width:1px;stroke-linecap:butt;stroke-linejoin:miter;stroke-opacity:1;font-family:Arial;-inkscape-font-specification:Arial"
       xml:space="preserve"><tspan
         y="392.36218"
         x="272.85715"
         id="tspan3526"
         sodipodi:role="line">терция минорного аккорда</tspan></text>
    <text
       sodipodi:linespacing="100%"
       id="text3528"
       y="420.21933"
       x="273.57144"
       style="font-size:12px;font-style:normal;font-variant:normal;font-weight:normal;font-stretch:normal;text-align:start;line-height:100%;writing-mode:lr-tb;text-anchor:start;fill:#000000;fill-opacity:1;stroke:none;stroke-width:1px;stroke-linecap:butt;stroke-linejoin:miter;stroke-opacity:1;font-family:Arial;-inkscape-font-specification:Arial"
       xml:space="preserve"><tspan
         y="420.21933"
         x="273.57144"
         id="tspan3530"
         sodipodi:role="line">терция мажорного аккорда</tspan></text>
    <text
       xml:space="preserve"
       style="font-size:12px;font-style:normal;font-variant:normal;font-weight:normal;font-stretch:normal;text-align:start;line-height:100%;writing-mode:lr-tb;text-anchor:start;fill:#000000;fill-opacity:1;stroke:none;stroke-width:1px;stroke-linecap:butt;stroke-linejoin:miter;stroke-opacity:1;font-family:Arial;-inkscape-font-specification:Arial"
       x="273.57144"
       y="448.07648"
       id="text3483"
       sodipodi:linespacing="100%"><tspan
         sodipodi:role="line"
         id="tspan3485"
         x="273.57144"
         y="448.07648">септима малого септаккорда</tspan></text>
    <g
       id="g3493"
       transform="translate(142.84377,225.52865)">
      <rect
         y="151.81119"
         x="97.479721"
         height="21.553679"
         width="22.223356"
         id="rect3495"
         style="fill:#e6e6e6;fill-opacity:1;fill-rule:evenodd;stroke:none;stroke-width:1.79999995;stroke-linecap:butt;stroke-linejoin:miter;marker:none;marker-start:none;marker-mid:none;marker-end:none;stroke-miterlimit:4;stroke-dasharray:none;stroke-dashoffset:0;stroke-opacity:1;visibility:visible;display:inline;overflow:visible" />
      <path
         id="path3497"
         d="M 103.0801,166.4584 L 103.0801,158.16152 L 104.33791,158.16152 L 104.33791,159.32559 C 104.59832,158.91934 104.94468,158.59252 105.37697,158.34512 C 105.80926,158.09773 106.30145,157.97403 106.85354,157.97402 C 107.46811,157.97403 107.97202,158.10164 108.36525,158.35684 C 108.75848,158.61205 109.03582,158.96882 109.19729,159.42715 C 109.85353,158.45841 110.70769,157.97403 111.75979,157.97402 C 112.58269,157.97403 113.2155,158.2019 113.65822,158.65762 C 114.10092,159.11335 114.32227,159.81518 114.32229,160.76309 L 114.32229,166.4584 L 112.92385,166.4584 L 112.92385,161.23184 C 112.92384,160.66934 112.87827,160.26439 112.78713,160.01699 C 112.69597,159.7696 112.53061,159.57038 112.29104,159.41934 C 112.05144,159.2683 111.77019,159.19278 111.44729,159.19277 C 110.86394,159.19278 110.37957,159.38679 109.99416,159.7748 C 109.60873,160.16283 109.41603,160.78392 109.41604,161.63809 L 109.41604,166.4584 L 108.00979,166.4584 L 108.00979,161.06777 C 108.00978,160.44278 107.8952,159.97403 107.66604,159.66152 C 107.43686,159.34903 107.06186,159.19278 106.54104,159.19277 C 106.1452,159.19278 105.77931,159.29695 105.44338,159.50527 C 105.10744,159.71361 104.86395,160.0183 104.71291,160.41934 C 104.56186,160.82038 104.48635,161.39851 104.48635,162.15371 L 104.48635,166.4584 L 103.0801,166.4584 z"
         style="font-size:16px;font-style:normal;font-variant:normal;font-weight:normal;font-stretch:normal;text-align:start;line-height:100%;writing-mode:lr-tb;text-anchor:start;fill:#000000;fill-opacity:1;stroke:none;stroke-width:1px;stroke-linecap:butt;stroke-linejoin:miter;stroke-opacity:1;font-family:Arial;-inkscape-font-specification:Arial" />
    </g>
    <g
       id="g3501"
       transform="translate(67.578691,147.95719)">
      <rect
         style="fill:#e6e6e6;fill-opacity:1;fill-rule:evenodd;stroke:none;stroke-width:1.79999995;stroke-linecap:butt;stroke-linejoin:miter;marker:none;marker-start:none;marker-mid:none;marker-end:none;stroke-miterlimit:4;stroke-dasharray:none;stroke-dashoffset:0;stroke-opacity:1;visibility:visible;display:inline;overflow:visible"
         id="rect3503"
         width="18.687822"
         height="18.687824"
         x="174.25131"
         y="287.17163" />
      <path
         style="font-size:16px;font-style:normal;font-variant:normal;font-weight:normal;font-stretch:normal;text-align:start;line-height:100%;writing-mode:lr-tb;text-anchor:start;fill:#000000;fill-opacity:1;stroke:none;stroke-width:1px;stroke-linecap:butt;stroke-linejoin:miter;stroke-opacity:1;font-family:Arial;-inkscape-font-specification:Arial"
         d="M 180.56498,292.87588 L 180.56498,291.52432 L 187.97904,291.52432 L 187.97904,292.61807 C 187.24986,293.39412 186.52721,294.42537 185.81107,295.71182 C 185.09492,296.99829 184.54153,298.3212 184.15091,299.68057 C 183.86966,300.63891 183.68997,301.68839 183.61185,302.82901 L 182.16654,302.82901 C 182.18216,301.92797 182.35924,300.83943 182.69779,299.56338 C 183.03633,298.28735 183.522,297.05688 184.15482,295.87198 C 184.78763,294.68709 185.4608,293.68839 186.17435,292.87588 L 180.56498,292.87588 z"
         id="path3505" />
    </g>
    <g
       id="g3515"
       transform="translate(-32.857143,-33.571429)">
      <g
         id="g3507"
         transform="translate(177.84377,263.38579)">
        <rect
           y="176.09691"
           x="96.051155"
           height="22.267963"
           width="22.223356"
           id="rect3509"
           style="fill:#e6e6e6;fill-opacity:1;fill-rule:evenodd;stroke:none;stroke-width:1.79999995;stroke-linecap:butt;stroke-linejoin:miter;marker:none;marker-start:none;marker-mid:none;marker-end:none;stroke-miterlimit:4;stroke-dasharray:none;stroke-dashoffset:0;stroke-opacity:1;visibility:visible;display:inline;overflow:visible" />
        <path
           style="font-size:16px;font-style:normal;font-variant:normal;font-weight:normal;font-stretch:normal;text-align:start;line-height:100%;writing-mode:lr-tb;text-anchor:start;fill:#000000;fill-opacity:1;stroke:none;stroke-width:1px;stroke-linecap:butt;stroke-linejoin:miter;stroke-opacity:1;font-family:Arial;-inkscape-font-specification:Arial"
           d="M 101.07004,192.00808 L 101.07004,180.55496 L 103.35129,180.55496 L 106.06223,188.66433 C 106.31222,189.41955 106.49452,189.98465 106.60911,190.35965 C 106.73931,189.94298 106.94243,189.331 107.21848,188.52371 L 109.96067,180.55496 L 111.99973,180.55496 L 111.99973,192.00808 L 110.53879,192.00808 L 110.53879,182.42215 L 107.21067,192.00808 L 105.84348,192.00808 L 102.53098,182.25808 L 102.53098,192.00808 L 101.07004,192.00808 z"
           id="path3513" />
      </g>
    </g>
  </g>
</svg>
