<?xml version="1.0" encoding="UTF-8" standalone="no"?>
<!-- Created with Inkscape (http://www.inkscape.org/) -->

<svg
   xmlns:dc="http://purl.org/dc/elements/1.1/"
   xmlns:cc="http://creativecommons.org/ns#"
   xmlns:rdf="http://www.w3.org/1999/02/22-rdf-syntax-ns#"
   xmlns:svg="http://www.w3.org/2000/svg"
   xmlns="http://www.w3.org/2000/svg"
   xmlns:xlink="http://www.w3.org/1999/xlink"
   xmlns:sodipodi="http://sodipodi.sourceforge.net/DTD/sodipodi-0.dtd"
   xmlns:inkscape="http://www.inkscape.org/namespaces/inkscape"
   width="744.09448819"
   height="1052.3622047"
   id="svg2"
   version="1.1"
   inkscape:version="0.48.3.1 r9886"
   sodipodi:docname="ardour.svg">
  <defs
     id="defs4">
    <linearGradient
       id="linearGradient3010">
      <stop
         style="stop-color:#aa0000;stop-opacity:1;"
         offset="0"
         id="stop3012" />
      <stop
         style="stop-color:#aa0000;stop-opacity:0;"
         offset="1"
         id="stop3014" />
    </linearGradient>
    <linearGradient
       inkscape:collect="always"
       xlink:href="#linearGradient3010"
       id="linearGradient3016"
       x1="250.41643"
       y1="449.9295"
       x2="116.93701"
       y2="367.3035"
       gradientUnits="userSpaceOnUse" />
    <linearGradient
       inkscape:collect="always"
       xlink:href="#linearGradient3010-1"
       id="linearGradient3016-3"
       x1="250.41643"
       y1="449.9295"
       x2="116.93701"
       y2="367.3035"
       gradientUnits="userSpaceOnUse" />
    <linearGradient
       id="linearGradient3010-1">
      <stop
         style="stop-color:#940a18;stop-opacity:1;"
         offset="0"
         id="stop3012-6" />
      <stop
         style="stop-color:#ff2626;stop-opacity:1;"
         offset="1"
         id="stop3014-8" />
    </linearGradient>
    <linearGradient
       gradientTransform="matrix(0.76435326,0,0,0.76410014,319.76887,138.16756)"
       y2="377.87964"
       x2="151.95883"
       y1="449.9295"
       x1="250.41643"
       gradientUnits="userSpaceOnUse"
       id="linearGradient3033"
       xlink:href="#linearGradient3010-1"
       inkscape:collect="always" />
    <linearGradient
       inkscape:collect="always"
       xlink:href="#linearGradient3010-1"
       id="linearGradient3000"
       gradientUnits="userSpaceOnUse"
       gradientTransform="matrix(0.76435326,0,0,0.76410015,319.76887,138.16756)"
       x1="250.41643"
       y1="449.9295"
       x2="151.95883"
       y2="377.87964" />
    <linearGradient
       inkscape:collect="always"
       xlink:href="#linearGradient3010-1"
       id="linearGradient3006"
       gradientUnits="userSpaceOnUse"
       gradientTransform="matrix(0.27468946,0,0,0.2745985,184.47051,344.00765)"
       x1="250.41643"
       y1="449.9295"
       x2="151.95883"
       y2="377.87964" />
    <linearGradient
       inkscape:collect="always"
       xlink:href="#linearGradient3010-1"
       id="linearGradient3007"
       gradientUnits="userSpaceOnUse"
       gradientTransform="matrix(0.73250521,0,0,0.73226263,331.84695,170.3215)"
       x1="250.41643"
       y1="449.9295"
       x2="151.95883"
       y2="377.87964" />
  </defs>
  <sodipodi:namedview
     id="base"
     pagecolor="#ffffff"
     bordercolor="#666666"
     borderopacity="1.0"
     inkscape:pageopacity="0.0"
     inkscape:pageshadow="2"
     inkscape:zoom="2.8"
     inkscape:cx="280.27717"
     inkscape:cy="722.04953"
     inkscape:document-units="px"
     inkscape:current-layer="layer3"
     showgrid="false"
     inkscape:window-width="1280"
     inkscape:window-height="742"
     inkscape:window-x="-3"
     inkscape:window-y="35"
     inkscape:window-maximized="1" />
  <metadata
     id="metadata7">
    <rdf:RDF>
      <cc:Work
         rdf:about="">
        <dc:format>image/svg+xml</dc:format>
        <dc:type
           rdf:resource="http://purl.org/dc/dcmitype/StillImage" />
        <dc:title></dc:title>
      </cc:Work>
    </rdf:RDF>
  </metadata>
  <g
     inkscape:groupmode="layer"
     id="layer2"
     inkscape:label="template"
     style="display:inline"
     sodipodi:insensitive="true">
    <image
       sodipodi:absref="/home/alakim/Projects/_SvnRepositories/Unfuddle/bourree/trunk/Sound/Ardour/logo/Ardour-icon.png"
       xlink:href="Ardour-icon.png"
       y="379.79077"
       x="260.78571"
       id="image2996"
       height="128"
       width="147" />
  </g>
  <g
     inkscape:label="Layer 1"
     inkscape:groupmode="layer"
     id="layer1"
     style="display:none"
     sodipodi:insensitive="true">
    <path
       transform="matrix(0.76435327,0,0,0.76410015,189.92598,133.79418)"
       style="color:#000000;fill:url(#linearGradient3016);fill-opacity:1;fill-rule:evenodd;stroke:none;stroke-width:1.33651507;marker:none;visibility:visible;display:inline;overflow:visible"
       inkscape:transform-center-y="-17.216608"
       d="m 267.33838,458.85447 c 0,0 -3.01131,-0.5067 -4.76823,-0.25833 -1.75692,0.24837 -2.58259,-1.82013 -4.00523,-1.91269 -1.42264,-0.0926 -2.29962,1.03518 -3.62114,0.98823 -1.32152,-0.0469 -1.803,-2.15188 -3.00004,-2.20588 -1.19704,-0.054 -1.90668,2.17379 -3.53949,2.16744 -1.63281,-0.006 -1.45721,-5.49552 -3.00199,-5.43927 -1.54478,0.0563 -0.80813,4.6946 -2.38067,4.6795 -1.57254,-0.0151 -1.48342,-8.03668 -3.57674,-8.06816 -2.09333,-0.0315 -1.33422,7.25389 -3.29377,7.31389 -1.95955,0.06 -1.17874,-12.25519 -3.83177,-12.57218 -2.65303,-0.317 -2.35139,11.14261 -4.52612,11.21825 -2.17473,0.0756 -0.33741,-19.32116 -3.53392,-19.39781 -3.19651,-0.0766 -2.14663,18.5436 -5.81678,18.42179 -3.67015,-0.1218 -0.79158,-25.78284 -3.87862,-25.78339 -3.08704,-5.5e-4 -2.85453,23.93505 -5.35478,23.80871 -2.50025,-0.12634 -1.36481,-30.84795 -5.15831,-31.28716 -3.7935,-0.43921 -1.60523,28.25304 -4.81923,28.35707 -3.214,0.10403 -0.40261,-36.05154 -4.52574,-36.53663 -4.12313,-0.48509 -1.81648,35.63334 -5.1639,35.7013 -3.34742,0.068 1.29621,-41.37602 -4.18107,-41.54384 -5.47728,-0.16782 -2.0387,41.11186 -5.07723,41.1198 -3.03853,0.008 0.72695,-41.90642 -4.03412,-41.8209 -4.76107,0.0855 -1.59082,40.95368 -3.84744,41.02382 -2.25662,0.0701 0.18254,-43.59139 -4.79665,-43.59454 -4.97919,-0.003 -1.27485,43.4112 -4.54056,43.30522 -3.26571,-0.10598 0.44767,-39.14852 -4.80441,-38.86489 -5.25208,0.28363 -0.41506,39.29952 -3.83011,39.15537 -3.41505,-0.14415 -2.10221,-32.13629 -5.51486,-31.91062 -3.41265,0.22568 -1.1239,34.04903 -4.47733,34.09241 -3.35343,0.0434 -1.52278,-24.00145 -5.10126,-23.80954 -3.57848,0.19192 -0.85819,26.03106 -4.02408,26.00087 -3.16588,-0.0302 -1.32471,-14.28742 -4.38639,-14.08209 -3.06168,0.20533 -1.42317,17.3141 -3.7885,17.07116 -2.36533,-0.24294 -2.16991,-7.60219 -4.12051,-7.75976 -1.9506,-0.15756 -1.86705,8.13704 -2.99236,8.89077 -1.12531,0.75373 -2.3439,-0.77431 -3.95624,-0.27803 -1.61234,0.49629 -4.83576,3.81011 -4.83576,3.81011 l 78.05268,-135.19119 z"
       id="path2999"
       inkscape:connector-curvature="0"
       sodipodi:nodetypes="czzzzzzzzzzzzzzzzzzzzzzzzzzzzzzzzzzzzccc" />
  </g>
  <g
     inkscape:groupmode="layer"
     id="layer3"
     inkscape:label="Layer"
     style="display:inline">
    <g
       inkscape:export-ydpi="90"
       inkscape:export-xdpi="90"
       inkscape:export-filename="/home/alakim/.local/share/icons/hicolor/48x48/ardour.png"
       transform="matrix(1.0434783,0,0,1.0434783,-26.506211,-39.559225)"
       id="g3001">
      <rect
         style="fill:none;stroke:none"
         id="rect3003"
         width="46"
         height="46"
         x="133.21428"
         y="387.43362" />
      <path
         style="color:#000000;fill:url(#linearGradient3007);fill-opacity:1;fill-rule:evenodd;stroke:none;stroke-width:1.33651507;marker:none;visibility:visible;display:inline;overflow:visible"
         inkscape:transform-center-y="-5.6502527"
         d="m 175.02065,427.07419 c 0,0 -0.75538,-0.12706 -1.19611,-0.0648 -0.44072,0.0623 -0.64784,-0.45642 -1.00471,-0.47964 -0.35687,-0.0232 -0.57686,0.25959 -0.90836,0.24782 -0.33151,-0.0118 -0.45228,-0.53962 -0.75256,-0.55316 -0.30028,-0.0135 -0.4783,0.54512 -0.88789,0.54353 -0.40958,-0.002 -0.36553,-1.3781 -0.75305,-1.36399 -0.3875,0.0141 -0.20272,1.17724 -0.59718,1.17346 -0.39448,-0.003 -0.37212,-2.01534 -0.89723,-2.02323 -0.52511,-0.008 -0.33469,1.81904 -0.82624,1.83408 -0.49155,0.0151 -0.29569,-3.0732 -0.9612,-3.15269 -0.66551,-0.0795 -0.58985,2.7942 -1.13537,2.81317 -0.54554,0.019 -0.0847,-4.84511 -0.88649,-4.86433 -0.80185,-0.0192 -0.91144,4.65013 -1.45914,4.61958 -0.5477,-0.0305 -0.19857,-6.46549 -0.97295,-6.46562 -0.77439,-1.4e-4 -0.71606,6.00211 -1.34325,5.97043 -0.62718,-0.0316 -0.34237,-7.73564 -1.29396,-7.84578 -0.9516,-0.11014 -0.60988,7.08493 -1.20891,7.11101 -0.59903,0.0261 -0.10099,-9.04053 -1.13528,-9.16218 -1.03429,-0.12164 -0.66286,8.93567 -1.29536,8.95271 -0.6325,0.017 0.11795,-10.45861 -1.04882,-10.41782 -1.16678,0.0408 -0.76004,10.26805 -1.27362,10.31149 -0.51358,0.0435 -0.0249,-10.50873 -1.01197,-10.4873 -0.98711,0.0214 -0.39906,10.26982 -0.96512,10.28742 -0.56608,0.0176 -0.32717,-10.93142 -1.20324,-10.93207 -0.87608,-6.6e-4 -0.60988,10.88609 -1.139,10.85951 -0.52913,-0.0266 -0.17778,-9.81715 -1.20519,-9.74603 -1.02741,0.0711 -0.39419,9.85502 -0.96078,9.81887 -0.56659,-0.0361 -0.52734,-8.05872 -1.3834,-8.00212 -0.85607,0.0566 -0.6549,8.53837 -1.12315,8.54924 -0.46824,0.0108 -0.38199,-6.01876 -1.27965,-5.97064 -0.89766,0.0481 -0.58823,6.48629 -1.00943,6.52016 -0.42121,0.0339 -0.33231,-3.58281 -1.10033,-3.53132 -0.76802,0.0515 -0.60564,4.30036 -0.95034,4.28088 -0.34471,-0.0195 -0.54433,-1.90638 -1.03363,-1.94589 -0.48931,-0.0395 -0.46835,2.0405 -0.75064,2.22951 -0.28228,0.189 -0.58796,-0.19417 -0.99242,-0.0697 -0.40445,0.12445 -1.21305,0.95545 -1.21305,0.95545 l 19.57951,-33.90151 z"
         id="path3005"
         inkscape:connector-curvature="0"
         sodipodi:nodetypes="czzzzzzzzzzzzzzzzzzzzzzzzzzzzzzzzzzzzccc" />
    </g>
    <g
       id="g3002"
       transform="matrix(2.7826087,0,0,2.7826087,-193.54035,-819.07111)"
       inkscape:export-filename="/home/alakim/.local/share/icons/hicolor/128x128/apps/ardour.png"
       inkscape:export-xdpi="90"
       inkscape:export-ydpi="90">
      <rect
         y="387.43362"
         x="133.21428"
         height="46"
         width="46"
         id="rect2996"
         style="fill:none;stroke:none" />
      <path
         sodipodi:nodetypes="czzzzzzzzzzzzzzzzzzzzzzzzzzzzzzzzzzzzccc"
         inkscape:connector-curvature="0"
         id="path2999-8"
         d="m 175.02065,427.07419 c 0,0 -0.75538,-0.12706 -1.19611,-0.0648 -0.44072,0.0623 -0.64784,-0.45642 -1.00471,-0.47964 -0.35687,-0.0232 -0.57686,0.25959 -0.90836,0.24782 -0.33151,-0.0118 -0.45228,-0.53962 -0.75256,-0.55316 -0.30028,-0.0135 -0.4783,0.54512 -0.88789,0.54353 -0.40958,-0.002 -0.36553,-1.3781 -0.75305,-1.36399 -0.3875,0.0141 -0.20272,1.17724 -0.59718,1.17346 -0.39448,-0.003 -0.37212,-2.01534 -0.89723,-2.02323 -0.52511,-0.008 -0.33469,1.81904 -0.82624,1.83408 -0.49155,0.0151 -0.29569,-3.0732 -0.9612,-3.15269 -0.66551,-0.0795 -0.58985,2.7942 -1.13537,2.81317 -0.54554,0.019 -0.0847,-4.84511 -0.88649,-4.86433 -0.80185,-0.0192 -0.91144,4.65013 -1.45914,4.61958 -0.5477,-0.0305 -0.19857,-6.46549 -0.97295,-6.46562 -0.77439,-1.4e-4 -0.71606,6.00211 -1.34325,5.97043 -0.62718,-0.0316 -0.34237,-7.73564 -1.29396,-7.84578 -0.9516,-0.11014 -0.60988,7.08493 -1.20891,7.11101 -0.59903,0.0261 -0.10099,-9.04053 -1.13528,-9.16218 -1.03429,-0.12164 -0.66286,8.93567 -1.29536,8.95271 -0.6325,0.017 0.11795,-10.45861 -1.04882,-10.41782 -1.16678,0.0408 -0.76004,10.26805 -1.27362,10.31149 -0.51358,0.0435 -0.0249,-10.50873 -1.01197,-10.4873 -0.98711,0.0214 -0.39906,10.26982 -0.96512,10.28742 -0.56608,0.0176 -0.32717,-10.93142 -1.20324,-10.93207 -0.87608,-6.6e-4 -0.60988,10.88609 -1.139,10.85951 -0.52913,-0.0266 -0.17778,-9.81715 -1.20519,-9.74603 -1.02741,0.0711 -0.39419,9.85502 -0.96078,9.81887 -0.56659,-0.0361 -0.52734,-8.05872 -1.3834,-8.00212 -0.85607,0.0566 -0.6549,8.53837 -1.12315,8.54924 -0.46824,0.0108 -0.38199,-6.01876 -1.27965,-5.97064 -0.89766,0.0481 -0.58823,6.48629 -1.00943,6.52016 -0.42121,0.0339 -0.33231,-3.58281 -1.10033,-3.53132 -0.76802,0.0515 -0.60564,4.30036 -0.95034,4.28088 -0.34471,-0.0195 -0.54433,-1.90638 -1.03363,-1.94589 -0.48931,-0.0395 -0.46835,2.0405 -0.75064,2.22951 -0.28228,0.189 -0.58796,-0.19417 -0.99242,-0.0697 -0.40445,0.12445 -1.21305,0.95545 -1.21305,0.95545 l 19.57951,-33.90151 z"
         inkscape:transform-center-y="-5.6502527"
         style="color:#000000;fill:url(#linearGradient3006);fill-opacity:1;fill-rule:evenodd;stroke:none;stroke-width:1.33651507;marker:none;visibility:visible;display:inline;overflow:visible" />
    </g>
    <path
       sodipodi:nodetypes="czzzzzzzzzzzzzzzzzzzzzzzzzzzzzzzzzzzzccc"
       inkscape:connector-curvature="0"
       id="path2998"
       d="m 523.23494,486.40611 c 0,0 -2.30548,-0.38779 -3.65062,-0.19776 -1.34511,0.19014 -1.97725,-1.39303 -3.06644,-1.46391 -1.0892,-0.0708 -1.76063,0.79229 -2.77239,0.75638 -1.01179,-0.036 -1.38039,-1.64697 -2.29685,-1.6883 -0.91649,-0.0412 -1.45982,1.66375 -2.70992,1.65889 -1.25006,-0.005 -1.11562,-4.20606 -2.29836,-4.16299 -1.18268,0.043 -0.61871,3.59303 -1.82264,3.58149 -1.20398,-0.009 -1.13573,-6.15096 -2.73841,-6.17504 -1.60268,-0.0244 -1.02149,5.55184 -2.52174,5.59774 -1.50025,0.0461 -0.90246,-9.37963 -2.93366,-9.62223 -2.03118,-0.24264 -1.80026,8.52809 -3.46523,8.586 -1.66502,0.0579 -0.25851,-14.78763 -2.70563,-14.84629 -2.4473,-0.0586 -2.78178,14.19253 -4.4534,14.09929 -1.67162,-0.0931 -0.60605,-19.73315 -2.96951,-19.73354 -2.36348,-4.3e-4 -2.18546,18.31887 -4.0997,18.22218 -1.91419,-0.0965 -1.04493,-23.60974 -3.94926,-23.94588 -2.90434,-0.33616 -1.86138,21.6237 -3.68967,21.70331 -1.82829,0.0796 -0.30823,-27.59236 -3.46496,-27.96364 -3.15674,-0.37125 -2.02309,27.27232 -3.95354,27.32433 -1.93043,0.0518 0.36,-31.92045 -3.20106,-31.79594 -3.5611,0.12461 -2.3197,31.33883 -3.88718,31.4714 -1.56749,0.13268 -0.076,-32.0734 -3.08861,-32.008 -3.01274,0.0653 -1.21797,31.34423 -2.94561,31.39795 -1.72773,0.0538 -0.99855,-33.36348 -3.67239,-33.36546 -2.67386,-0.002 -1.86139,33.22512 -3.47631,33.14401 -1.61495,-0.0812 -0.5426,-29.96265 -3.67833,-29.7456 -3.13572,0.21702 -1.20308,30.07825 -2.93236,29.96791 -1.72928,-0.11009 -1.60948,-24.59579 -4.22223,-24.42306 -2.6128,0.17284 -1.99882,26.05973 -3.42794,26.0929 -1.42911,0.033 -1.16587,-18.36968 -3.9056,-18.22282 -2.73971,0.14684 -1.79531,19.79664 -3.08084,19.9 -1.28556,0.10345 -1.01423,-10.93499 -3.3583,-10.77784 -2.34405,0.15724 -1.84846,13.12501 -2.9005,13.06555 -1.05207,-0.0595 -1.66133,-5.8184 -3.15471,-5.93899 -1.4934,-0.12049 -1.42943,6.22775 -2.29102,6.80463 -0.86153,0.57684 -1.79449,-0.59263 -3.02893,-0.21274 -1.23441,0.37984 -3.70231,2.91611 -3.70231,2.91611 l 59.75808,-103.46987 z"
       inkscape:transform-center-y="-17.244983"
       style="color:#000000;fill:url(#linearGradient3000);fill-opacity:1;fill-rule:evenodd;stroke:none;stroke-width:1.33651507;marker:none;visibility:visible;display:inline;overflow:visible" />
  </g>
</svg>
