<?xml version="1.0" encoding="UTF-8" standalone="no"?>
<!-- Created with Inkscape (http://www.inkscape.org/) -->

<svg
   xmlns:dc="http://purl.org/dc/elements/1.1/"
   xmlns:cc="http://creativecommons.org/ns#"
   xmlns:rdf="http://www.w3.org/1999/02/22-rdf-syntax-ns#"
   xmlns:svg="http://www.w3.org/2000/svg"
   xmlns="http://www.w3.org/2000/svg"
   xmlns:xlink="http://www.w3.org/1999/xlink"
   xmlns:sodipodi="http://sodipodi.sourceforge.net/DTD/sodipodi-0.dtd"
   xmlns:inkscape="http://www.inkscape.org/namespaces/inkscape"
   width="210mm"
   height="297mm"
   viewBox="0 0 744.09448819 1052.3622047"
   id="svg2"
   version="1.1"
   inkscape:version="0.91 r13725"
   sodipodi:docname="logo.svg">
  <defs
     id="defs4" />
  <sodipodi:namedview
     id="base"
     pagecolor="#ffffff"
     bordercolor="#666666"
     borderopacity="1.0"
     inkscape:pageopacity="0.0"
     inkscape:pageshadow="2"
     inkscape:zoom="2.8"
     inkscape:cx="254.18716"
     inkscape:cy="387.20026"
     inkscape:document-units="px"
     inkscape:current-layer="layer1"
     showgrid="false"
     inkscape:window-width="1920"
     inkscape:window-height="1028"
     inkscape:window-x="-8"
     inkscape:window-y="-8"
     inkscape:window-maximized="1" />
  <metadata
     id="metadata7">
    <rdf:RDF>
      <cc:Work
         rdf:about="">
        <dc:format>image/svg+xml</dc:format>
        <dc:type
           rdf:resource="http://purl.org/dc/dcmitype/StillImage" />
        <dc:title></dc:title>
      </cc:Work>
    </rdf:RDF>
  </metadata>
  <g
     inkscape:label="template"
     inkscape:groupmode="layer"
     id="layer1"
     style="display:inline">
    <image
       sodipodi:absref="C:\Users\Alexandr.Akimov\Documents\SVN\Unfuddle\bourree\trunk\BogdanLavrinenko\logo_src.jpg"
       xlink:href="logo_src.jpg"
       width="200"
       height="200"
       preserveAspectRatio="none"
       id="image4146"
       x="482.19153"
       y="531.8028" />
    <path
       style="fill:#ff7f2a"
       d="M 174.66016 612.01953 C 174.00013 612.01982 173.46513 612.55481 173.46484 613.21484 C 173.46513 613.87488 174.00012 614.40987 174.66016 614.41016 C 175.32019 614.40987 175.85518 613.87487 175.85547 613.21484 C 175.85518 612.55481 175.32019 612.01982 174.66016 612.01953 z M 165.31641 612.52344 C 164.65561 612.52373 164.1203 613.0599 164.12109 613.7207 C 164.12138 614.38074 164.65637 614.91573 165.31641 614.91602 C 165.97644 614.91573 166.51143 614.38073 166.51172 613.7207 C 166.51251 613.05991 165.9772 612.52373 165.31641 612.52344 z M 169.62695 615.10156 C 169.1917 615.14726 168.7547 615.45589 168.4043 616.08203 C 167.88229 617.01479 166.74415 617.42112 165.53711 617.10547 C 163.99971 616.70344 163.5332 617.07407 163.5332 618.69922 C 163.5332 619.86337 164.0957 620.86122 164.7832 620.91602 C 165.4707 620.97082 164.9082 621.32846 163.5332 621.71094 C 160.31434 622.6063 160.3089 625.05359 163.52344 625.8125 C 165.20401 626.20923 165.61032 626.65075 164.77344 627.16797 C 162.67102 628.46734 163.27062 631.11707 165.5332 630.52539 C 167.23866 630.0794 167.5332 630.49499 167.5332 633.3457 C 167.5332 636.38637 167.23926 636.71693 164.2832 637.00195 C 161.61942 637.25879 160.9795 637.78857 160.73047 639.93555 C 160.4876 642.02948 161.13963 642.97425 163.98047 644.65039 C 167.30753 646.6134 167.5332 647.07094 167.5332 651.80664 C 167.5332 656.27769 167.24527 656.97519 165.04297 657.8125 C 162.89353 658.62972 161.62314 658.07581 155.79297 653.77734 C 152.07588 651.03679 135.04785 637.31753 131.84375 634.71094 C 125.30699 629.39316 123.81364 628.95884 123.34766 632.24219 C 123.09247 634.0403 123.78176 634.82858 126.66016 636.03125 C 129.96919 637.41385 147.7932 651.55124 156.23242 658.88477 C 159.03148 661.3171 159.35913 662.11243 158.85156 665.24023 C 158.27882 668.76959 157.98374 669.06641 155.0332 669.06641 C 132.84945 669.06641 136.48047 668.76275 136.48047 667.20703 C 136.48047 665.99074 135.87099 665.75207 133.98047 666.22656 C 132.13561 666.6896 131.48047 666.45496 131.48047 665.33398 C 131.48047 664.4985 130.80547 663.81641 129.98047 663.81641 C 129.15547 663.81641 128.48047 664.52074 128.48047 665.38281 C 128.48047 666.51485 127.90354 666.76748 126.40234 666.29102 C 124.76031 665.76986 124.38716 666.01723 124.62695 667.47266 C 124.7939 668.48593 124.54735 669.92874 124.07812 670.67773 C 123.54433 671.52981 123.71507 672.34351 124.53711 672.85156 C 125.5841 673.4986 125.60072 673.96529 124.61719 675.15039 C 123.16974 676.89445 124.52239 678.11972 126.89062 677.21094 C 127.76525 676.87531 128.48047 677.10014 128.48047 677.70898 C 128.48047 679.66677 131.3233 678.8866 132.00391 676.74219 C 132.61756 674.80873 132.78437 674.7807 134.47266 676.30859 C 136.64627 678.27568 138.32556 676.53938 136.44336 674.27148 C 135.77867 673.47057 135.62758 672.78038 136.10742 672.73828 C 136.58727 672.69618 137.81619 672.50544 138.83789 672.3125 C 141.77783 671.75731 151.05894 671.47533 150.43555 673.43945 C 149.83775 675.32295 148.75391 676.6582 148.75391 676.6582 C 149.59322 678.23388 152.50977 677.18596 152.50977 675.12891 C 152.50977 674.1064 153.48504 673.10367 154.80078 672.77344 C 158.51175 671.84205 159.0332 673.19308 159.0332 674.42383 C 159.0332 675.52246 135.16076 694.07443 126.97266 699.4707 C 122.97749 702.10368 119.62754 706.02947 121.73828 707.33398 C 123.21376 708.24588 127.16411 706.14569 129.08008 703.23047 C 130.84321 700.5478 133.51441 698.39793 132.99023 700.80664 C 132.40856 703.47955 133.824 705.85742 135.99609 705.85742 C 137.65953 705.85742 137.90557 699.78838 136.30664 698.18945 C 135.54911 697.43192 136.09952 696.57484 138.20117 695.24023 C 139.83105 694.20521 152.02837 685.41706 155.33203 683.0957 C 160.47312 679.48325 161.51393 679.0858 162.55469 680.33984 C 163.52818 681.51282 163.24439 683.22262 161.13477 688.91406 C 159.68546 692.82408 157.50903 696.82473 156.29883 697.80469 C 154.41618 699.32917 154.29292 699.81969 155.43945 701.20117 C 156.97101 703.0466 156.85612 703.01338 158.94727 702.21094 C 159.81409 701.8783 160.27305 701.2033 159.96875 700.71094 C 159.65781 700.20783 163.6025 699.81641 168.97461 699.81641 C 176.80485 699.81641 178.5332 700.08769 178.5332 701.31641 C 178.5332 703.27578 179.98426 703.22278 182.01758 701.18945 C 183.51986 699.68718 183.49547 699.40033 181.69727 697.43945 C 180.62635 696.27164 178.60375 692.10216 177.20312 688.17578 L 174.6582 681.03711 L 177.5957 677.74609 C 179.21183 675.93591 180.5332 673.86071 180.5332 673.13477 C 180.5332 672.09791 213.9365 673.58398 226.20898 673.58398 C 239.54412 673.58398 241.65971 673.78975 240.66016 674.99414 C 239.2947 676.63942 240.82636 678.08783 243.03516 677.24023 C 243.81387 676.94141 244.60406 677.54155 244.89453 678.65234 C 245.55724 681.18656 247.63007 681.1269 248.30273 678.55469 C 248.6794 677.11424 249.37512 676.69826 250.70117 677.11914 C 253.3759 677.96806 254.97591 676.75839 253.51172 674.99414 C 252.56623 673.85489 252.74917 673.58398 254.46289 673.58398 C 257.16401 673.58398 257.23814 671.56688 254.5625 670.86719 C 252.64998 670.36705 252.6363 670.26557 254.3125 669.02734 C 256.86756 667.13989 254.65499 664.94076 251.75977 666.49023 C 248.9755 667.98033 248.44986 667.87028 248.79297 665.86914 C 248.96206 664.88295 248.34299 664.00378 247.33594 663.79688 C 246.11636 663.54628 245.58594 664.06486 245.58594 665.50977 C 245.58594 667.72893 244.01182 668.36167 243.35938 666.4043 C 243.13261 665.72398 242.22124 665.50926 241.20703 665.89844 C 239.98889 666.3659 239.64328 667.18963 240.08398 668.57812 C 240.64117 670.3337 240.26862 670.58398 237.08594 670.58398 C 233.87785 670.58398 233.52786 670.34274 234.10156 668.53516 C 234.85143 666.17252 233.08508 663.58732 230.71289 663.57422 C 229.81773 663.56922 227.96094 664.89156 226.58594 666.51172 C 224.07036 669.47583 192.31912 668.15281 184.40039 667.92188 C 181.35958 667.83317 180.69001 667.40946 180.29102 665.32227 C 179.91107 663.3347 180.74943 661.96415 184.42383 658.57227 C 186.95962 656.23144 185.90947 657.03436 188.57227 655.10938 C 196.84064 649.13198 200.47213 645.61204 199.71484 644.38672 C 198.37236 642.21453 195.12827 644.09899 190.35547 648.85938 C 187.73615 651.47186 187.74269 651.85459 183.88867 654.95703 C 177.0909 660.42916 176.80712 660.55049 174.35156 659.06055 C 171.88367 657.56312 171.80447 657.17182 171.25977 643.41992 C 170.95249 635.6622 170.87822 629.13971 171.09375 628.92383 C 171.30928 628.70795 172.1526 629.08404 172.9668 629.75977 C 175.26472 631.66688 177.00056 629.98908 175.00781 627.78711 C 173.43626 626.05057 173.52347 625.93851 176.69336 625.63477 C 180.30484 625.28872 180.89647 623.51659 177.57422 622.99609 C 175.39972 622.65541 174.88574 621.3346 176.5332 620.31641 C 177.92009 619.45927 177.79211 616.81641 176.36328 616.81641 C 175.71909 616.81641 174.36909 617.56045 173.36328 618.4707 C 171.64689 620.02401 171.5332 619.9965 171.5332 618.0293 C 171.5332 616.17205 170.58451 615.00099 169.62695 615.10156 z M 180.46875 618.83789 C 179.80872 618.83818 179.27373 619.37317 179.27344 620.0332 C 179.27373 620.69323 179.80872 621.22823 180.46875 621.22852 C 181.12878 621.22823 181.66377 620.69323 181.66406 620.0332 C 181.66377 619.37317 181.12878 618.83818 180.46875 618.83789 z M 159.25586 618.96484 C 158.59506 618.96405 158.05888 619.49936 158.05859 620.16016 C 158.05888 620.82096 158.59506 621.35626 159.25586 621.35547 C 159.91589 621.35518 160.45088 620.82019 160.45117 620.16016 C 160.45088 619.50013 159.91589 618.96513 159.25586 618.96484 z M 159.50781 626.03516 C 158.84778 626.03545 158.31279 626.57044 158.3125 627.23047 C 158.31171 627.89126 158.84702 628.42744 159.50781 628.42773 C 160.1686 628.42744 160.70392 627.89126 160.70312 627.23047 C 160.70283 626.57044 160.16784 626.03545 159.50781 626.03516 z M 179.20508 627.29688 C 178.54429 627.29716 178.00898 627.83335 178.00977 628.49414 C 178.01006 629.15417 178.54505 629.68916 179.20508 629.68945 C 179.86587 629.69024 180.40205 629.15493 180.40234 628.49414 C 180.40313 627.83259 179.86663 627.29608 179.20508 627.29688 z M 131.98047 629.82227 C 131.31968 629.82256 130.78437 630.35874 130.78516 631.01953 C 130.78545 631.67956 131.32044 632.21455 131.98047 632.21484 C 132.64126 632.21563 133.17744 631.68032 133.17773 631.01953 C 133.17852 630.35798 132.64202 629.82148 131.98047 629.82227 z M 138.9375 632.25977 C 136.32391 632.25977 135.4869 634.49027 137.02344 637.36133 C 138.18872 639.53868 138.28033 639.55227 139.59961 637.74805 C 141.64885 634.94554 141.32525 632.25977 138.9375 632.25977 z M 126.58789 638.4707 C 124.83926 638.4707 124.16992 639.02383 124.16992 640.46484 C 124.16992 642.14923 124.78897 642.43326 128.16992 642.30078 C 134.45097 642.05466 132.97062 638.4707 126.58789 638.4707 z M 193.00781 639.21484 C 192.84847 639.22184 192.67596 639.243 192.49219 639.2793 C 190.8445 639.60416 190.08835 640.84073 188.48242 645.82812 C 187.13086 650.02556 188.29244 649.94539 192.12695 645.57812 C 195.04516 642.25447 195.39797 639.11645 193.00781 639.21484 z M 184.15625 647.18945 C 182.49915 647.15835 181.43418 649.23358 182.68945 650.74609 C 183.4995 651.72214 184.10294 651.76096 185.13281 650.90625 C 186.94668 649.40087 186.86019 648.09263 184.89844 647.33984 C 184.64263 647.24164 184.39298 647.1939 184.15625 647.18945 z M 201.05078 647.5 C 200.38998 647.50029 199.85468 648.03647 199.85547 648.69727 C 199.85576 649.3573 200.39075 649.89229 201.05078 649.89258 C 201.71081 649.89229 202.2458 649.3573 202.24609 648.69727 C 202.24688 648.03647 201.71158 647.50029 201.05078 647.5 z M 163.66797 651.91992 C 163.5687 651.91218 163.45985 651.91264 163.33984 651.92188 C 163.20269 651.93237 163.05185 651.95453 162.88672 651.98633 C 161.88058 652.18009 160.89884 653.16184 160.70508 654.16797 C 160.45066 655.48905 160.86056 655.89895 162.18164 655.64453 C 163.18778 655.45077 164.16952 654.46902 164.36328 653.46289 C 164.55807 652.45144 164.36282 651.9741 163.66797 651.91992 z M 197.3125 652.10938 C 195.1447 652.10938 189.24633 655.2133 189.23633 656.35938 C 189.23333 656.77187 191.48047 657.10938 194.23047 657.10938 C 198.89714 657.10938 199.23047 656.9427 199.23047 654.60938 C 199.23047 652.81124 198.69272 652.10938 197.3125 652.10938 z M 145.05273 656.80469 C 143.41315 656.68083 141.94654 658.20306 142.77344 659.54102 C 143.79215 661.18932 148.36105 660.50599 147.32617 659.09766 C 145.75895 656.96487 146.62174 657.29561 145.75977 656.96484 C 145.52467 656.87464 145.28696 656.82238 145.05273 656.80469 z M 185.29102 660.31055 C 184.59168 660.24225 183.73267 660.96968 183.45898 662.38086 C 183.2676 663.36762 183.77774 664.04688 184.70898 664.04688 C 185.63661 664.04688 186.28125 663.19317 186.28125 661.96484 C 186.28125 660.89863 185.83494 660.36364 185.29102 660.31055 z M 170.06641 662.12109 C 171.84 662.10509 173.66941 662.68266 175.24023 663.98633 C 177.59681 665.94212 176.43447 671.11 173.30273 672.60352 C 169.98836 674.18415 166.5332 672.76235 166.5332 669.81641 C 166.5332 667.49085 169.60371 665.62295 171.5 666.79492 C 172.49778 667.41158 172.21729 667.72425 170.44531 667.97461 C 167.45268 668.39742 167.25449 671.20505 170.1875 671.62305 C 172.63167 671.97138 175.69518 668.4 174.84766 666.19141 C 174.18533 664.46539 170.34118 663.42362 167.71289 664.25781 C 166.63234 664.60076 165.19797 666.21529 164.52344 667.84375 C 162.75902 672.10345 165.16352 675.55308 170.26758 676.08594 C 173.93011 676.4683 173.90958 676.48304 169.52539 676.64648 C 164.29373 676.8415 162.5332 675.02002 162.5332 669.40234 C 162.5332 665.06136 166.1645 662.15628 170.06641 662.12109 z M 125.41602 662.52734 C 124.75522 662.52655 124.21904 663.06186 124.21875 663.72266 C 124.21904 664.38346 124.75522 664.91876 125.41602 664.91797 C 126.07605 664.91768 126.61104 664.38269 126.61133 663.72266 C 126.61104 663.06263 126.07605 662.52763 125.41602 662.52734 z M 237.66797 664.16797 C 237.00794 664.16826 236.47295 664.70325 236.47266 665.36328 C 236.47187 666.02408 237.00717 666.56026 237.66797 666.56055 C 238.32953 666.56134 238.86602 666.02484 238.86523 665.36328 C 238.86494 664.70249 238.32876 664.16718 237.66797 664.16797 z M 121.61133 667.49023 C 120.95053 667.48944 120.41435 668.02475 120.41406 668.68555 C 120.41435 669.34635 120.95053 669.88165 121.61133 669.88086 C 122.27136 669.88057 122.80635 669.34558 122.80664 668.68555 C 122.80635 668.02552 122.27136 667.49052 121.61133 667.49023 z M 140.10352 673.24414 C 139.44349 673.24443 138.90849 673.77942 138.9082 674.43945 C 138.90741 675.10025 139.44272 675.63643 140.10352 675.63672 C 140.76432 675.63643 141.29962 675.10025 141.29883 674.43945 C 141.29854 673.77942 140.76355 673.24443 140.10352 673.24414 z M 232.49219 675.78516 C 231.83139 675.78437 231.29521 676.31967 231.29492 676.98047 C 231.29413 677.64203 231.83063 678.17852 232.49219 678.17773 C 233.15298 678.17744 233.68829 677.64126 233.6875 676.98047 C 233.68721 676.32044 233.15222 675.78545 232.49219 675.78516 z M 188.89453 680.00977 C 188.1702 680.02908 187.3758 680.13099 186.51367 680.32031 C 182.57967 681.18436 180.5332 684.31128 180.5332 689.46484 C 180.5332 693.0056 181.04659 694.08403 183.7832 696.28711 C 187.39417 699.19404 191.75466 699.21168 196.14062 696.33789 C 198.9303 694.51004 199.42543 692.2148 196.7832 693.36133 C 193.19933 694.91647 188.92909 694.99669 187.71289 693.53125 C 186.70895 692.32157 186.9978 691.97349 189.4043 691.49219 C 191.46916 691.07922 192.60453 690.05215 193.34375 687.93164 C 195.012 683.14608 193.50707 680.22309 189.5957 680.01758 C 189.37005 680.00573 189.13598 680.00333 188.89453 680.00977 z M 203.0332 680.81641 C 202.2082 680.81641 201.5185 681.37891 201.5 682.06641 C 201.28508 690.03547 200.43118 695.26988 199.10938 696.73047 C 198.24244 697.68842 197.5332 698.77534 197.5332 699.14453 C 197.5332 699.51372 198.13916 699.81641 198.87891 699.81641 C 200.76634 699.81641 203.25245 696.82 204.06445 693.56641 C 204.95726 689.98902 208.5332 689.69036 208.5332 693.19336 C 208.5332 695.67555 210.73888 698.27869 211.87695 697.14062 C 212.23884 696.77873 212.5332 693.18178 212.5332 689.14844 C 212.5332 682.48178 212.35138 681.81641 210.5332 681.81641 C 208.97764 681.81641 208.5332 682.48308 208.5332 684.81641 C 208.5332 687.14974 208.08876 687.81641 206.5332 687.81641 C 204.91415 687.81641 204.5332 687.14974 204.5332 684.31641 C 204.5332 681.87197 204.08082 680.81641 203.0332 680.81641 z M 215.76367 680.95508 C 214.68781 681.02388 214.5332 682.47259 214.5332 688.6582 C 214.5332 694.11452 214.92958 696.8079 215.7832 697.15234 C 219.23386 698.54471 225.25748 695.76146 226.10547 692.38281 C 227.11282 688.36917 226.00504 686.81641 222.13281 686.81641 C 219.09908 686.81641 218.62665 686.47448 218.34961 684.07422 C 218.15877 682.42077 217.33868 681.20016 216.2832 681 C 216.08966 680.9633 215.91737 680.94518 215.76367 680.95508 z M 169.32617 681.97656 C 170.61157 681.96156 171.83131 684.04279 173.2832 688.21875 C 174.5207 691.77807 175.5332 695.11127 175.5332 695.62695 L 175.5332 695.62891 C 175.5332 696.14458 172.6082 696.56641 169.0332 696.56641 C 164.88231 696.56641 162.53606 696.15983 162.53906 695.44141 C 162.54206 694.82266 163.64039 691.61641 164.98047 688.31641 C 166.69121 684.10361 168.04077 681.99153 169.32617 681.97656 z M 190.24414 682.80078 C 190.98592 682.82888 191.5332 683.14586 191.5332 683.81641 C 191.5332 684.36641 190.6332 685.71641 189.5332 686.81641 C 186.11863 690.23098 184.30985 688.97006 186.56836 684.75 C 187.23345 683.50728 189.00784 682.75403 190.24414 682.80078 z M 137.14258 686.46875 A 1.6071428 1.4285715 0 0 0 135.53516 687.89844 A 1.6071428 1.4285715 0 0 0 137.14258 689.32617 A 1.6071428 1.4285715 0 0 0 138.75 687.89844 A 1.6071428 1.4285715 0 0 0 137.14258 686.46875 z M 221.73438 689.81641 C 223.64443 689.81641 224.55141 690.17332 223.98438 690.70312 C 223.46187 691.19132 222.0207 691.89565 220.7832 692.26953 C 219.11774 692.77271 218.5332 692.543 218.5332 691.38281 C 218.5332 690.28616 219.49545 689.81641 221.73438 689.81641 z M 122.99805 695.51953 C 119.32464 695.51953 117.91765 696.71606 118.82031 699.06836 C 119.47398 700.77179 121.78529 700.94037 124.50586 699.48438 C 127.7365 697.75539 126.88574 695.51953 122.99805 695.51953 z M 266.90039 705.56445 C 266.04981 705.56445 264.58731 706.9636 263.65039 708.67383 C 262.71347 710.38407 261.17272 712.74657 260.22852 713.92383 C 258.55252 716.01352 258.51102 715.93721 258.47852 710.74023 C 258.45022 706.2198 258.18137 705.46719 256.69531 705.75 C 255.31607 706.01249 254.88224 707.29328 254.64648 711.79688 C 254.48196 714.9397 254.83934 718.42946 255.43945 719.55078 C 256.74286 721.98623 259.09432 721.09881 262.36914 716.93555 L 264.44531 714.29492 L 264.44531 717.26172 C 264.44531 720.72118 265.09881 721.63471 267.04297 720.88867 C 269.1827 720.06758 269.04785 705.56445 266.90039 705.56445 z M 241.89062 706.26172 C 240.62187 706.26079 239.69783 706.30482 239.42773 706.39648 C 237.49077 707.05386 238.49409 709.53712 240.94531 710.15234 C 243.19167 710.71614 243.44523 711.28617 243.44531 715.74609 C 243.44541 719.93225 243.71933 720.65696 245.19531 720.37695 C 246.49752 720.1299 247.07325 718.76883 247.44531 715.05469 C 247.74352 712.07777 248.44979 710.02249 249.19531 709.96289 C 252.0203 709.73689 252.44531 709.50067 252.44531 708.15234 C 252.44531 707.1313 250.78183 706.64749 246.42773 706.40234 C 244.77283 706.30944 243.15937 706.26265 241.89062 706.26172 z M 216.72852 706.59961 C 214.86391 706.67101 213.10415 707.28272 211.93359 708.57617 C 209.35317 711.4275 209.57979 716.44267 212.39062 718.71875 C 213.64323 719.73304 215.78785 720.56445 217.15625 720.56445 C 220.04423 720.56445 225.44531 715.30617 225.44531 712.49609 C 225.44531 708.90333 220.83066 706.44252 216.72852 706.59961 z M 234.0332 706.75977 C 231.07748 706.88477 226.44137 711.4891 226.46094 715.73633 C 226.47834 719.52536 227.11587 720.74743 229.94531 722.41016 C 233.33952 724.40477 239.36584 722.45286 239.43164 719.33789 C 239.43964 718.93914 238.16935 718.86965 236.60938 719.18164 C 233.37792 719.82793 229.96944 717.24899 230.88867 714.85352 C 231.1953 714.05446 231.44531 712.97566 231.44531 712.45703 C 231.44531 711.9384 232.60764 711.07297 234.02734 710.5332 C 235.44705 709.99343 236.42309 708.99075 236.19531 708.30664 C 235.81813 707.17383 235.01844 706.7181 234.0332 706.75977 z M 185.92773 707.12109 C 183.12767 707.31108 180.14669 709.03362 178.83789 712.16602 C 176.99484 716.57706 177.03128 716.82435 179.99609 720.02344 C 182.11409 722.3088 183.08926 722.66872 185.74609 722.14062 C 187.50578 721.79085 190.12171 721.51966 191.55859 721.53906 C 194.06502 721.57286 194.13612 721.42127 193.32422 717.81836 C 192.85877 715.75288 192.23288 712.81125 191.93359 711.2793 C 191.34674 708.27553 188.72779 706.93111 185.92773 707.12109 z M 160.88867 707.6582 C 153.93833 707.6522 151.25417 709.05762 151.62891 712.31445 C 152.04455 715.92664 156.11978 716.85479 156.61914 713.45117 C 156.79918 712.22408 157.50781 711.03501 158.19531 710.80859 C 159.14906 710.4945 159.44531 713.26091 159.44531 722.48047 C 159.44531 729.5756 159.84363 734.56445 160.41016 734.56445 C 162.01443 734.56445 163.44531 730.92643 163.44531 726.84766 L 163.44531 722.99805 L 168.19531 722.80273 C 171.66024 722.47592 173.41418 722.03597 174.69531 720.47461 C 177.22438 717.39233 176.89404 713.33281 173.88281 710.50391 C 171.76789 708.51705 170.06245 708.03536 164.13281 707.74609 C 162.96225 707.68899 161.88157 707.659 160.88867 707.6582 z M 202.79102 707.75781 C 200.40821 707.73721 198.77758 708.30097 197 709.69922 C 194.57203 711.60906 194.2922 712.38123 194.75977 715.86719 C 195.31222 719.98605 196.65593 721.52243 199.72852 721.54883 C 203.56595 721.58183 208.37375 724.42525 209.0332 727.05273 C 210.26296 731.95247 202.316 737.2906 198.89062 733.86523 C 197.1902 732.1648 196.96028 728.56445 198.55273 728.56445 C 199.16157 728.56445 199.41443 729.20543 199.11328 729.99023 C 198.40772 731.82887 200.96256 733.96382 202.95508 733.19922 C 207.32762 731.52131 204.45226 725.56445 199.26953 725.56445 C 193.63732 725.56445 192.8467 734.08851 198.20898 736.99805 C 201.55471 738.81343 201.63958 738.82086 205.13086 737.49805 C 212.87803 734.56273 215.01215 726.97505 209.60938 721.57227 C 207.8665 719.8294 207.04814 718.2187 207.49023 717.39844 C 207.8861 716.66392 208.15083 714.26794 208.07812 712.07422 C 207.94791 708.14504 207.88538 708.08173 203.86133 707.80078 C 203.48758 707.77468 203.13142 707.76081 202.79102 707.75781 z M 216.79102 709.56445 C 219.10497 709.56445 221.66999 712.16241 221.29688 714.12891 C 220.81062 716.69167 214.99337 717.42999 214.07812 715.04492 C 213.31554 713.05764 215.0449 709.56445 216.79102 709.56445 z M 164.81055 711.65625 C 165.25047 711.68045 165.8327 711.79154 166.60156 711.94531 C 171.128 712.8506 172.63747 714.33821 171.39062 716.66797 C 170.69476 717.9682 169.28752 718.56445 166.91016 718.56445 C 163.59428 718.56445 163.44531 718.40863 163.44531 714.93945 C 163.44531 712.28899 163.49082 711.58356 164.81055 711.65625 z M 186.96289 711.6582 C 188.29642 711.719 188.44531 712.32973 188.44531 714.30078 C 188.44531 715.87563 187.90609 717.70328 187.24609 718.36328 C 186.58609 719.02328 185.79859 719.51107 185.49609 719.44727 C 181.69362 718.64528 181.34431 718.26321 181.63867 715.22852 C 181.90677 712.46453 182.35771 712.0236 185.19531 711.75 C 185.94104 711.6781 186.51837 711.63794 186.96289 711.6582 z M 200.90039 712.13477 C 201.53966 712.16707 202.25146 712.43216 202.97461 712.96094 C 204.3916 713.99707 204.49212 714.60813 203.53711 716.39258 C 201.62653 719.96253 198.44531 719.09503 198.44531 715.00391 C 198.44531 713.12318 199.49399 712.06369 200.90039 712.13477 z "
       id="path26176"
       inkscape:export-xdpi="115"
       inkscape:export-ydpi="115" />
    <path
       style="fill:#000000"
       d="m 503.10279,541.23629 c -5.58266,-4.39132 -1.26007,-13.51858 5.04234,-10.64701 4.77277,2.17462 3.61081,8.422 -1.38867,7.46629 -1.51438,-0.28949 -2.03798,-0.10757 -1.43265,0.49777 1.65696,1.65696 6.4272,0.39659 8.3355,-2.20236 3.27429,-4.45932 -0.0984,-9 -6.6849,-9 -5.08156,0 -8.21318,-6.84246 -5.47406,-11.96056 1.29087,-2.41201 5.72107,-3.88386 9.86125,-3.27621 l 3.32937,0.48865 -0.33378,5.79453 c -0.27703,4.80919 0.0291,6.19066 1.80031,8.12406 3.18622,3.47801 3.69931,6.32058 1.84587,10.22641 -1.65381,3.48515 -6.49297,6.60312 -10.24818,6.60312 -1.08021,0 -3.17379,-0.95161 -4.6524,-2.11469 z m 2.41867,-6.88531 c 0,-0.55 -0.19844,-1 -0.44098,-1 -0.24254,0 -0.7191,0.45 -1.05902,1 -0.33992,0.55 -0.14148,1 0.44098,1 0.58246,0 1.05902,-0.45 1.05902,-1 z m 4,-14.56955 c 0,-2.09274 -0.41752,-2.51025 -2.25,-2.25 -1.44596,0.20536 -2.36419,1.12359 -2.56955,2.56955 -0.26026,1.83248 0.15726,2.25 2.25,2.25 2.09273,0 2.56955,-0.47682 2.56955,-2.56955 z m -44.2151,18.31955 c -0.23599,-0.6875 -0.29165,-5.84059 -0.12369,-11.4513 0.29066,-9.70914 -0.86191,-14.33154 -2.22214,-8.91196 -0.84369,3.36152 -3.06714,3.98235 -4.89848,1.36775 -2.27888,-3.25355 -0.005,-6.02098 5.90586,-7.18846 6.40578,-1.26518 13.19685,0.54687 16.81671,4.48719 l 2.76315,3.00778 0.88267,-2.3216 c 1.74898,-4.60017 7.98633,-7.05355 11.43356,-4.49725 1.54045,1.14234 3.27364,6.62911 3.99233,12.63857 0.12059,1.00829 -1.47762,1.47612 -5.9252,1.73441 -5.35434,0.31094 -6.35769,0.0691 -8.30262,-2.00118 l -2.21228,-2.35487 -2.97305,2.97305 c -2.5029,2.5029 -3.60153,2.91311 -6.94739,2.59403 l -3.97433,-0.37901 0,4.57642 c 0,5.40371 -2.95012,9.41161 -4.2151,5.72643 z m 11.0151,-15.95 c 0.66,-0.66 1.2,-1.74098 1.2,-2.40217 0,-1.36744 -5.7681,-3.65919 -7.11487,-2.82684 -1.03383,0.63895 -1.19119,4.78961 -0.21846,5.76234 1.08654,1.08655 4.83982,0.76018 6.13333,-0.53333 z m 17.80773,-1.37322 c 0.74047,-2.95027 -0.59986,-4.77069 -3.14433,-4.27056 -4.408,0.86641 -4.42009,6.84378 -0.0138,6.84378 1.8649,0 2.67877,-0.66313 3.15817,-2.57322 z m 40.49688,5.68702 c -2.10831,-1.62101 -2.3305,-2.41738 -1.85398,-6.64503 0.59082,-5.2417 3.40031,-8.40602 7.49937,-8.44653 3.12947,-0.0309 2.95396,3.33598 -0.25,4.79581 -4.88947,2.22779 -2.25309,9.08975 2.98701,7.77457 3.0965,-0.77718 3.53691,1.78903 0.57873,3.3722 -2.87984,1.54124 -6.26823,1.21945 -8.96113,-0.85102 z m 26.35537,-2.41725 c -0.31797,-1.26689 -0.43905,-4.75439 -0.26906,-7.75 0.26703,-4.70549 0.60333,-5.48847 2.47172,-5.75465 1.98442,-0.28272 2.11778,0.0263 1.61833,3.75 -0.73354,5.46895 1.69647,5.5034 4.09893,0.0581 2.41486,-5.47339 5.61536,-5.61548 5.63111,-0.25 0.006,2.0625 0.28863,5.42953 0.62796,7.48228 0.48878,2.95682 0.26476,3.86743 -1.07822,4.38278 -2.07091,0.79469 -3.60821,-0.59498 -3.82376,-3.45657 -0.15275,-2.0278 -0.32251,-1.98331 -3.24669,0.85091 -3.70328,3.58937 -5.25747,3.76646 -6.03032,0.68715 z m -42.72708,-0.44655 c -2.79027,-3.09621 -3.05159,-6.57514 -0.71684,-9.54328 1.72085,-2.18772 2.94833,-2.70672 6.40153,-2.70672 7.53191,0 10.13997,6.17552 4.77769,11.31291 -3.27802,3.14054 -8.08838,3.57139 -10.46238,0.93709 z m 8.36222,-3.86462 c 1.14774,-1.38293 1.0148,-1.87795 -0.92642,-3.44986 -1.24654,-1.00938 -2.91944,-1.58466 -3.71757,-1.27839 -1.47038,0.56424 -2.0078,4.45287 -0.78446,5.6762 1.19974,1.19975 4.06065,0.70016 5.42845,-0.94795 z m 22.33364,3.18679 c -0.33514,-1.3353 -0.3135,-3.35995 0.0481,-4.49922 0.51486,-1.62218 0.0849,-2.28906 -1.98247,-3.07509 -1.72634,-0.65635 -2.52178,-1.60829 -2.29857,-2.75077 0.28428,-1.45502 1.42487,-1.73797 6.82277,-1.69255 5.7355,0.0483 6.48142,0.27844 6.48142,2 0,1.25617 -0.7972,2.05868 -2.25,2.26501 -1.98589,0.28204 -2.25,0.89829 -2.25,5.25 0,4.24798 -0.2742,4.93045 -1.98095,4.93045 -1.26332,0 -2.20169,-0.87952 -2.59029,-2.42783 z m -46.22876,-16.77217 c -1.67052,-1.67052 -1.49734,-3.74867 0.37217,-4.46607 1.59054,-0.61034 6.13851,-9.77983 6.47526,-13.05523 0.31341,-3.04832 -0.008,-4.2787 -1.11725,-4.2787 -0.98282,0 -9.77534,5.59647 -10.93018,6.9571 -0.275,0.324 -1.70436,1.35486 -3.17635,2.29079 -2.45632,1.5618 -2.59602,1.99263 -1.69929,5.24034 0.53739,1.94625 0.70269,3.98259 0.36734,4.52521 -1.0866,1.75814 -4.53433,1.04553 -5.32852,-1.10135 -0.69455,-1.87755 -0.90515,-1.92793 -2.09022,-0.5 -3.04939,3.67429 -7.21527,0.6638 -4.48179,-3.23879 1.26952,-1.8125 1.2484,-2.1637 -0.17818,-2.96205 -0.89016,-0.49816 -1.45358,-1.76199 -1.25204,-2.8085 0.28711,-1.49084 1.22941,-1.90275 4.35275,-1.90275 2.65571,0 3.90285,0.41724 3.7363,1.25 -0.35877,1.79386 0.80854,1.54292 3.18555,-0.68479 2.35317,-2.20537 7.54964,-6.06952 12.31296,-9.15604 1.78668,-1.15773 3.01709,-2.47942 2.73424,-2.93708 -0.72442,-1.17213 -10.83683,-2.31187 -13.37228,-1.50715 -1.1582,0.3676 -2.38164,1.76729 -2.71874,3.11042 -1.24572,4.96334 -8.39173,3.94335 -8.39173,-1.1978 0,-1.98667 -0.5043,-2.37756 -3.06739,-2.37756 -2.5674,0 -2.96827,0.31229 -2.45932,1.91584 0.74151,2.33631 -1.06227,3.67017 -2.90031,2.14473 -1.01071,-0.83882 -1.48307,-0.73724 -1.92481,0.41391 -0.61389,1.59976 -3.64817,2.15219 -3.64817,0.66419 0,-0.47373 -1.03482,-0.66351 -2.29959,-0.42173 -2.03979,0.38993 -2.31106,0.0351 -2.40109,-3.14079 -0.0558,-1.96921 0.35204,-3.86068 0.90636,-4.20327 0.63925,-0.39508 0.55622,-0.902 -0.22703,-1.38608 -1.67536,-1.03542 -0.31619,-2.9868 2.08037,-2.9868 1.06754,0 1.94098,-0.45 1.94098,-1 0,-1.62963 2.73312,-1.13787 3.40484,0.61262 0.49234,1.283 0.91406,1.36761 2.06319,0.41391 1.77584,-1.47382 3.649,-0.49509 2.88131,1.5055 -0.47939,1.24926 1.6087,1.46797 14.01508,1.46797 l 14.5784,0 0.8877,-3.25 c 0.7316,-2.67848 0.51681,-3.66723 -1.22141,-5.62265 -3.50683,-3.94501 -12.80139,-10.43005 -13.47684,-9.40312 -1.22594,1.86387 -6.87435,2.29148 -8.2573,0.62511 -1.08835,-1.31138 -0.99024,-1.79188 0.60391,-2.95755 1.04686,-0.76549 2.37987,-1.39347 2.96225,-1.39553 0.58238,-0.002 -0.44472,-0.92043 -2.28245,-2.04083 -2.23643,-1.36348 -3.14578,-2.54666 -2.75,-3.57805 0.32523,-0.84753 0.59132,-1.72915 0.59132,-1.95917 0,-1.25716 3.69189,-0.11684 5.68555,1.7561 l 2.31445,2.17432 0,-2.56733 c 0,-2.525 2.29517,-4.33495 4.09024,-3.22553 1.1507,0.71117 1.15445,4.50956 0.006,6.32235 -0.50849,0.8028 -1.40152,1.0514 -2.13919,0.59549 -0.78234,-0.48351 -1.01687,-0.37901 -0.61364,0.27343 0.35898,0.58083 3.17661,2.73134 6.26141,4.77892 3.0848,2.04757 7.11384,5.04437 8.95342,6.65954 2.79373,2.45293 3.68213,2.75609 5.3931,1.84041 1.6771,-0.89753 2.04846,-2.07712 2.04846,-6.50653 0,-4.91748 -0.25047,-5.5297 -2.75,-6.72177 -2.02501,-0.96576 -2.83261,-2.16649 -3.06336,-4.55456 -0.3215,-3.32728 0.36394,-3.77338 5.06336,-3.29535 1.3245,0.13474 1.75,-0.56669 1.75,-2.88484 0,-2.39619 -0.43532,-3.06286 -2,-3.06286 -2.21288,0 -2.71038,-2.43425 -0.75,-3.66978 0.82188,-0.51799 0.22251,-0.96969 -1.75,-1.31884 -3.56583,-0.63118 -4.05776,-3.36145 -0.69163,-3.83858 1.83635,-0.26029 2.07435,-0.60919 1.16391,-1.7062 -1.44265,-1.73829 -0.43171,-3.4666 2.02772,-3.4666 1.03508,0 2.16008,-0.45 2.5,-1 1.0609,-1.71658 3.33481,-1.09583 4.03195,1.10066 0.48513,1.52853 0.9665,1.80089 1.76739,1 2.07124,-2.07124 3.96527,-1.29107 3.30006,1.35933 -0.46335,1.84611 -0.10909,2.73205 1.4196,3.55018 2.53471,1.35653 1.67267,2.98983 -1.57802,2.98983 -2.66719,0 -3.09475,0.94623 -1.25765,2.78333 1.74767,1.74767 0.0389,2.83658 -2.22881,1.42034 -1.90438,-1.1893 -1.95452,-0.86182 -1.95452,12.7648 0,13.89778 0.016,13.99592 2.55724,15.66099 2.43661,1.59653 2.68426,1.573 5.25,-0.49871 1.48102,-1.19586 4.86298,-3.80521 7.51547,-5.79856 3.08638,-2.31942 4.40332,-3.88348 3.65783,-4.34421 -0.82957,-0.51271 -0.86788,-1.26226 -0.13311,-2.60396 0.56747,-1.03621 1.29252,-3.12152 1.61122,-4.63402 0.71533,-3.39485 4.43714,-3.86449 5.27371,-0.66547 0.29981,1.1465 0.82018,1.64148 1.15638,1.09995 1.21185,-1.95197 6.11126,-1.82169 6.11126,0.16251 0,1.64125 -2.94585,5.0865 -5,5.84763 -1.79491,0.66508 -17.57837,13.31416 -18.52543,14.84653 -0.36457,0.58988 -0.38692,2.17194 -0.0497,3.51569 0.562,2.2392 1.09687,2.44316 6.40705,2.44316 5.15097,0 6.11748,-0.33779 8.71046,-3.04428 3.93077,-4.10284 7.94102,-3.82979 7.99374,0.54428 0.0325,2.69484 0.35863,3 3.20631,3 2.84479,0 3.10847,-0.24572 2.56923,-2.39422 -0.541,-2.15553 -0.33474,-2.34334 2.06891,-1.88385 1.76526,0.33745 2.95815,-0.005 3.52082,-1.01027 1.14898,-2.05312 4.52495,-0.76518 3.69098,1.40811 -0.47077,1.22681 -0.20181,1.4334 1.14625,0.88048 3.11327,-1.27693 4.76102,-1.04252 4.77409,0.67917 0.007,0.92368 0.34452,2.01118 0.75,2.41667 1.29264,1.2926 0.79235,3.40391 -0.80655,3.40391 -0.91559,0 -1.42426,0.71214 -1.25,1.75 0.22393,1.33365 -0.33735,1.70837 -2.35915,1.57502 -1.86693,-0.12314 -2.80213,0.39537 -3.15638,1.75 -0.60743,2.32281 -3.69063,2.58847 -3.69063,0.31799 0,-0.95842 -0.55907,-1.39245 -1.38524,-1.07542 -0.76189,0.29236 -2.2761,-0.49301 -3.36492,-1.74526 -1.84562,-2.12265 -2.82065,-2.28717 -14.39884,-2.42955 l -12.41917,-0.15272 -3.87184,4.63197 -3.87185,4.63197 2.22039,6.8941 c 1.22122,3.79176 3.1492,7.75942 4.28441,8.81702 1.20909,1.12644 1.81308,2.5768 1.45821,3.50158 -0.88351,2.3024 -3.75449,3.10245 -5.04576,1.4061 -1.58738,-2.08536 -17.20616,-2.35556 -17.99064,-0.31124 -0.67186,1.75085 -2.78804,1.86515 -4.41475,0.23844 z m 19.7834,-5.78079 c -0.08,-2.50371 -5.0618,-13.52476 -6.12236,-13.54435 -1.27827,-0.0236 -6.8625,10.48661 -6.8598,12.911 7.8e-4,0.70246 2.40256,1.12124 6.5,1.13335 3.57432,0.0106 6.49129,-0.21444 6.48216,-0.5 z m -8.69534,-20.22272 c -1.21657,-0.58749 -2.64355,-2.24453 -3.17106,-3.68232 -0.52751,-1.43779 -0.99463,-1.9268 -1.03805,-1.08668 -0.11968,2.31553 2.81533,5.98127 4.72775,5.90483 1.30406,-0.0521 1.18483,-0.31322 -0.51864,-1.13583 z m 8.28337,-4.22506 c 2.08289,-2.08289 1.74973,-4.98955 -0.82143,-7.16644 l -2.25,-1.90499 1.84013,2.17834 c 2.40313,2.8448 1.37725,6.13003 -2.15678,6.90681 -4.54849,0.99975 -4.8077,1.254 -1.36192,1.3359 1.82678,0.0434 3.96428,-0.56391 4.75,-1.34962 z m -4.63711,-4.41576 c -1.4225,-0.48966 -3.93432,0.60773 -3.93432,1.71886 0,0.524 1.08796,0.4276 2.46731,-0.21862 1.35702,-0.63575 2.01718,-1.31086 1.46701,-1.50024 z m -5.93432,-0.17037 c 0,-0.55808 1.4625,-1.9064 3.25,-2.99626 2.07658,-1.26612 2.63457,-1.98291 1.54545,-1.9853 -0.9375,-0.002 -2.85,1.14172 -4.25,2.54172 -2.77049,2.77049 -3.07651,3.45454 -1.54545,3.45454 0.55,0 1,-0.45661 1,-1.0147 z m 33.37149,32.5404 c -0.31116,-0.81087 0.15296,-2.19301 1.03138,-3.07143 1.07526,-1.07525 1.59713,-3.39244 1.59713,-7.09144 0,-5.72843 1.41979,-9.83945 3.05017,-8.83182 0.52241,0.32286 0.94983,2.13547 0.94983,4.02801 0,2.73679 0.39633,3.44098 1.93664,3.44098 1.45399,0 2.01474,-0.80998 2.25,-3.25 0.20084,-2.08295 0.852,-3.25 1.81336,-3.25 1.18865,0 1.56029,1.71242 1.79044,8.25 0.15975,4.5375 -0.0652,8.24311 -0.5,8.23469 -1.72388,-0.0334 -3.10595,-1.60301 -3.43962,-3.90636 -0.54605,-3.76935 -2.61361,-3.58182 -4.27209,0.38749 -1.45927,3.49252 -3.80478,6.53418 -5.03869,6.53418 -0.33154,0 -0.85739,-0.66344 -1.16855,-1.4743 z m -11.50762,-1.19849 c -5.99848,-2.39252 -8.50857,-10.32113 -4.66741,-14.74297 3.07193,-3.53631 9.52196,-4.6898 11.45349,-2.04829 2.82557,3.86421 0.30609,10.46405 -3.99464,10.46405 -1.53733,0 -1.6728,0.274 -0.70939,1.43483 1.22307,1.47372 4.18113,1.51967 7.34721,0.11413 2.66347,-1.18241 3.37915,0.24561 1.15131,2.29725 -3.61025,3.32472 -6.66772,4.04165 -10.58057,2.481 z m 4.13613,-13.36239 c 0,-1.08065 -0.56675,-1.96482 -1.25945,-1.96482 -1.60025,0 -4.00163,3.76854 -3.21374,5.04338 0.95731,1.54896 4.47319,-0.87076 4.47319,-3.07856 z m 24.75,12.45643 c -0.4125,-0.41502 -0.75,-4.31258 -0.75,-8.66124 0,-6.99055 0.20277,-7.86801 1.75,-7.57312 0.9625,0.18345 1.88677,1.28781 2.05393,2.45414 0.23173,1.61684 1.24135,2.2705 4.25,2.7516 3.67931,0.58835 3.94607,0.85634 3.94607,3.9642 0,1.98975 -0.75611,4.01747 -1.87597,5.03093 -2.081,1.88328 -8.2033,3.21138 -9.37403,2.03349 z m 6.75,-6.03174 c 1.95876,-1.51499 1.95006,-1.54011 -0.42167,-1.2182 -1.33192,0.18078 -2.60692,0.89119 -2.83334,1.57869 -0.55267,1.67817 0.81502,1.5267 3.25501,-0.36049 z m -71.5,-26.30618 c 0,-1.05416 0.5625,-2.11287 1.25,-2.35269 2.05359,-0.71633 3.75,0.35867 3.75,2.37635 0,1.35254 -0.71377,1.89301 -2.5,1.89301 -1.7971,0 -2.5,-0.53889 -2.5,-1.91667 z m 32.625,0.11892 c -0.88064,-1.4249 1.12888,-3.51067 2.77408,-2.87935 2.2596,0.86709 1.99973,3.6771 -0.34006,3.6771 -1.06754,0 -2.16285,-0.35899 -2.43402,-0.79775 z m -9.63253,-9.71133 c -0.94408,-1.13754 -1.00451,-1.87888 -0.21731,-2.66608 1.51704,-1.51704 4.44197,-0.1883 4.04875,1.83927 -0.44906,2.31549 -2.26985,2.70841 -3.83144,0.82681 z m -12.99247,-1.49092 c 0,-1.33333 0.66667,-2 2,-2 1.33333,0 2,0.66667 2,2 0,1.33333 -0.66667,2 -2,2 -1.33333,0 -2,-0.66667 -2,-2 z m 36.75,-0.79583 c -3.59737,-0.44086 -3.48418,-1.77315 0.31768,-3.73917 3.94641,-2.04077 7.43232,-1.58908 7.43232,0.96305 0,2.14946 -3.27904,3.32404 -7.75,2.77612 z"
       id="path4184"
       inkscape:connector-curvature="0" />
    <path
       style="fill:#000000"
       d=""
       id="path4150"
       inkscape:connector-curvature="0" />
  </g>
  <g
     inkscape:groupmode="layer"
     id="layer2"
     inkscape:label="drawing">
    <path
       style="fill:#ff6600;stroke:none"
       d="m 336.68683,619.84122 c -1.70293,-1.19278 -2.22251,-2.54872 -2.22251,-5.8 0,-4.90009 1.32382,-6.6433 5.04501,-6.6433 3.31381,0 6.22006,3.09825 5.78535,6.16753 -0.26657,1.88208 -0.93997,2.33168 -3.48741,2.32836 -1.73638,-0.002 -2.94732,0.33524 -2.69098,0.75 0.98748,1.59778 5.10257,0.6443 7.29602,-1.69053 4.19698,-4.46747 0.49883,-9.55536 -6.94535,-9.55536 -1.71005,0 -3.32218,-0.71924 -3.92254,-1.75 -0.90226,-1.54909 -1.02277,-1.5617 -1.04969,-0.10986 -0.048,2.5918 -13.08901,2.55758 -15.44025,-0.0405 -1.66991,-1.84523 -1.76541,-1.83347 -4.10447,0.50559 -1.73708,1.73707 -3.50582,2.39477 -6.44024,2.39477 -3.97091,0 -4.04545,0.0657 -4.04545,3.56574 0,4.58019 -1.54914,7.43426 -4.03518,7.43426 -1.83596,0 -1.97136,-0.77062 -2.0645,-11.75 -0.0548,-6.4625 -0.41077,-10.625 -0.791,-9.25 -1.35842,4.91248 -7.66821,2.93849 -6.93608,-2.16993 0.52615,-3.67126 4.33701,-4.97606 13.243,-4.53426 7.41498,0.36783 8.17805,0.52355 10.76316,3.57894 l 2.84691,3.18625 0.93898,-2.4697 c 1.13824,-2.9938 3.88612,-4.5913 7.89754,-4.5913 3.68721,0 6.11443,2.27628 6.20745,5.82143 0.0387,1.47321 0.45703,3.57857 0.92972,4.67857 0.67835,1.57861 0.87746,1.15722 0.94503,-2 0.0471,-2.2 0.4162,-4.49513 0.82028,-5.1003 1.57485,-2.35855 5.42514,-3.54331 9.3566,-2.8791 l 3.97218,0.67109 -0.29705,5.58501 c -0.26407,4.96491 0.008,5.88947 2.45296,8.32723 2.07849,2.07261 2.75,3.71246 2.75,6.71555 0,7.73053 -10.41198,13.0824 -16.77749,8.62382 z m 2.77749,-0.82086 c 0,-0.20765 -0.7875,-0.99515 -1.75,-1.75 -1.58606,-1.24387 -1.62143,-1.2085 -0.37755,0.37756 1.30636,1.66575 2.12755,2.19548 2.12755,1.37244 z m 9.5,-2.62244 c 0.99549,-1.1 1.58498,-2 1.30998,-2 -0.275,0 -1.31449,0.9 -2.30998,2 -0.99549,1.1 -1.58498,2 -1.30998,2 0.275,0 1.31449,-0.9 2.30998,-2 z m -47.1733,-7.16003 0.1733,-5.33997 4.20009,0.31189 c 4.82947,0.35863 7.89383,-0.95709 8.78758,-3.77306 1.55029,-4.88453 -4.73054,-9.12841 -13.20555,-8.92283 -2.63017,0.0638 -3.99462,0.3218 -3.03212,0.57333 1.53974,0.40237 1.75,1.85027 1.75,12.05066 0,11.50935 0.99461,15.33274 1.3267,5.09998 z m 2.52449,-6.50981 c -2.41177,-0.64043 -3.4985,-7.38366 -1.43332,-8.89377 1.93145,-1.4123 6.45534,-0.72125 8.83213,1.34917 4.58689,3.99562 -0.6508,9.33651 -7.39881,7.5446 z m 7.14881,-4.33016 c 0,-1.15763 -3.3373,-3 -5.43426,-3 -2.23669,0 -2.07044,4.73843 0.18426,5.25183 2.04529,0.46572 5.25,-0.90885 5.25,-2.25183 z m 24.68311,14.8125 c -0.31922,-0.79773 -0.55618,-0.56078 -0.60416,0.60417 -0.0434,1.05416 0.19292,1.64479 0.52522,1.3125 0.33229,-0.3323 0.36781,-1.1948 0.079,-1.91667 z m 7.31689,-0.43494 c 0,-1.3288 -0.27149,-1.39713 -1.5,-0.37756 -0.825,0.68469 -1.5,1.41479 -1.5,1.62244 0,0.20766 0.675,0.37756 1.5,0.37756 0.825,0 1.5,-0.7301 1.5,-1.62244 z m 8,-1.97635 c 0,-1.5728 -1.13464,-3.65871 -2.87401,-5.28352 -2.62714,-2.45412 -2.83096,-3.13279 -2.37277,-7.90121 l 0.50124,-5.21648 -3.92723,0 c -3.85442,0 -6.35703,1.37117 -6.29682,3.45 0.0167,0.5775 0.48908,0.2625 1.04969,-0.7 2.07331,-3.55966 7.9199,-1.52957 7.9199,2.75 0,4.06281 -4.87145,6.0414 -8.00177,3.25 -1.19253,-1.06341 -1.20411,-0.98877 -0.0776,0.5 0.72832,0.9625 2.41646,1.75 3.75143,1.75 5.27324,0 9.32789,3.513 9.32789,8.08179 0,1.05501 0.225,1.91821 0.5,1.91821 0.275,0 0.5,-1.16946 0.5,-2.59879 z m -12.47354,-1.20808 c -0.30789,-0.30789 -1.11479,-6.4e-4 -1.79313,0.68278 -0.98026,0.98762 -0.8654,1.10248 0.5598,0.5598 0.98622,-0.37553 1.54122,-0.93469 1.23333,-1.24258 z m -16.52646,-6.57069 c 0,-0.20765 -0.7875,-0.99515 -1.75,-1.75 -1.58606,-1.24387 -1.62143,-1.2085 -0.37755,0.37756 1.30636,1.66575 2.12755,2.19548 2.12755,1.37244 z m 9.22437,-1.87244 c -0.2517,-0.9625 -0.5604,-1.75 -0.68601,-1.75 -0.12561,0 -0.94106,0.7875 -1.81211,1.75 -1.46412,1.61783 -1.41231,1.75 0.68601,1.75 1.66933,0 2.14869,-0.46293 1.81211,-1.75 z m -4.29145,-2 c 0.57572,-1.49154 0.45616,-2.68375 -0.35468,-3.53674 -2.523,-2.65417 -6.81998,1.5856 -4.47305,4.41349 1.70194,2.05071 3.84822,1.66094 4.82773,-0.87675 z m 15.56708,-1.25 c 0,-2.65478 -3.09578,-3.15374 -3.76194,-0.60633 -0.61776,2.36229 0.0925,3.28561 2.21318,2.8772 0.85182,-0.16404 1.54876,-1.18593 1.54876,-2.27087 z m -47.25525,-3 c 0.30812,-1.61184 0.0239,-2.5 -0.80009,-2.5 -1.48122,0 -2.35586,1.94034 -1.69036,3.75 0.75131,2.04304 1.97871,1.42699 2.49045,-1.25 z m 33.87934,-1.76667 c -0.98762,-0.98026 -1.10248,-0.8654 -0.5598,0.5598 0.37553,0.98622 0.93469,1.54122 1.24258,1.23333 0.30789,-0.30789 6.4e-4,-1.11479 -0.68278,-1.79313 z m -6.59763,-0.5402 c -0.30789,-0.30789 -1.11479,-6.4e-4 -1.79313,0.68278 -0.98026,0.98762 -0.8654,1.10248 0.5598,0.5598 0.98622,-0.37553 1.54122,-0.93469 1.23333,-1.24258 z m 4.20271,-0.7973 c -0.3323,-0.33229 -1.1948,-0.36781 -1.91667,-0.0789 -0.79773,0.31922 -0.56078,0.55618 0.60417,0.60416 1.05416,0.0434 1.64479,-0.19292 1.3125,-0.52522 z m 40.45939,12.56521 c -1.20371,-1.12142 -2.20224,-3.03392 -2.21897,-4.25 -0.0273,-1.98276 -0.13564,-2.03036 -1.0497,-0.46102 -1.16294,1.99664 -6.04111,4.74998 -8.41568,4.74998 -2.73498,0 -6.50421,-4.63606 -6.50421,-8 0,-3.84124 3.90102,-8 7.50421,-8 1.42731,0 3.92276,0.68656 5.54545,1.52568 2.30137,1.19009 2.96925,2.23491 3.03629,4.75 l 0.086,3.22432 0.89411,-2.99884 c 0.49176,-1.64936 1.66409,-3.56186 2.60518,-4.25 2.17122,-1.58764 6.56467,-1.61529 8.1288,-0.0512 0.93333,0.93333 1.2,0.82222 1.2,-0.5 0,-1.4381 1.07843,-1.7 7,-1.7 6.8,0 7,0.0714 7,2.5 0,1.83333 -0.53333,2.5 -2,2.5 -1.1,0 -2.03877,0.5625 -2.08615,1.25 -0.0474,0.6875 -0.15988,2.825 -0.25,4.75 -0.14167,3.02625 -0.53608,3.54283 -2.91385,3.81642 -2.67224,0.30748 -2.75,0.17645 -2.75,-4.63342 0,-4.5203 -0.22278,-4.99243 -2.56724,-5.4406 -3.218,-0.61517 -7.25023,1.1834 -8.0244,3.57926 -0.93214,2.88475 2.26771,5.69313 5.70372,5.00592 3.14068,-0.62813 3.42748,-0.20427 1.85274,2.73816 -1.46995,2.74663 -8.78554,2.68159 -11.77626,-0.1047 z m 3.97925,-1.55606 c -3.22389,-2.25809 -2.72468,-8.32707 0.83219,-10.11725 1.55723,-0.78375 1.89851,-1.26381 0.90499,-1.27299 -2.04811,-0.0189 -4.46802,2.77381 -5.24359,6.05143 -0.71067,3.00335 1.62353,6.93383 4.11781,6.93383 1.29886,0 1.16417,-0.35135 -0.6114,-1.59502 z m -17.59638,-2.97641 c -0.86429,-0.86428 -1.62363,-2.55178 -1.68743,-3.75 -0.0857,-1.60991 -0.23274,-1.73546 -0.56323,-0.48098 -0.52694,2.00015 1.29859,5.80241 2.78584,5.80241 0.56994,0 0.3291,-0.70714 -0.53518,-1.57143 z m 31.84657,-3.63049 c 0.0702,-3.59313 0.44286,-4.30027 2.582,-4.899 1.70837,-0.47815 0.7584,-0.68816 -3,-0.66322 -3.025,0.0201 -4.4875,0.23152 -3.25,0.46987 1.98237,0.38182 2.25,1.03966 2.25,5.53049 0,6.04881 1.29915,5.64739 1.418,-0.43814 z m -25.418,0.16232 c 0,-1.91797 -3.26642,-3.53181 -4.99105,-2.46593 -1.55972,0.96396 -1.19393,3.30263 0.68065,4.3517 2.25686,1.263 4.3104,0.36459 4.3104,-1.88577 z m 2.80687,0.51314 c -0.30789,-0.30789 -0.86705,0.24711 -1.24258,1.23333 -0.54268,1.4252 -0.42782,1.54006 0.5598,0.5598 0.68342,-0.67834 0.99067,-1.48524 0.68278,-1.79313 z m 0.19313,-2.81302 c 0,-1.50446 -4.19526,-3.70812 -6.79705,-3.57033 -0.93662,0.0496 -0.21928,0.51795 1.59408,1.04078 1.81337,0.52282 3.54902,1.60724 3.85699,2.40981 0.70011,1.82446 1.34598,1.88191 1.34598,0.11974 z m 31.5182,9.36893 c -1.16627,-1.88706 -1.03538,-13.90019 0.16458,-15.10624 2.26447,-2.27594 4.31624,-0.2423 4.33367,4.29541 l 0.0165,4.28138 2.23355,-3.90412 c 2.77069,-4.84301 5.41408,-6.69937 6.67071,-4.6846 0.48413,0.77621 0.91418,4.71371 0.95567,8.75 0.074,7.19401 0.0258,7.33872 -2.44092,7.33872 -1.6264,0 -2.7855,-0.72757 -3.27737,-2.05721 l -0.76101,-2.05721 -1.86175,2.05721 c -1.96315,2.16925 -5.02382,2.72049 -6.03358,1.08666 z m 5.55749,-3.7723 c 1.75948,-1.99066 1.85425,-2.26489 0.34557,-1 -2.70393,2.26701 -3.19409,2.20011 -3.71553,-0.50715 -0.31339,-1.6271 -0.47107,-1.35026 -0.56955,1 -0.16628,3.96832 0.77337,4.08929 3.93951,0.50715 z m 6.14942,-5.25715 -0.80248,-4.5 -1.59716,3.17481 c -1.27353,2.53151 -1.31635,3.06705 -0.21132,2.64301 0.98749,-0.37893 1.38585,0.31339 1.38585,2.40852 0,1.61718 0.3375,3.28305 0.75,3.70193 1.14257,1.16024 1.37068,-2.40624 0.47511,-7.42827 z m -9.56283,-2.25 c -0.27741,-0.6875 -0.50439,-0.125 -0.50439,1.25 0,1.375 0.22698,1.9375 0.50439,1.25 0.27741,-0.6875 0.27741,-1.8125 0,-2.5 z m -74.74561,-6.16667 c -1.28661,-1.2866 -0.64352,-3.57213 1.83333,-6.5157 1.375,-1.63409 2.5,-3.59629 2.5,-4.36043 0,-0.76414 0.73884,-2.93871 1.64187,-4.83238 0.90302,-1.89367 1.35488,-4.1909 1.00413,-5.10496 -0.70206,-1.82953 -1.456,-1.42655 -11.92333,6.37304 -4.65694,3.47005 3.16175,-2.45957 3.76919,1.59115 0.68238,4.5504 -0.32157,5.92243 -3.57743,4.88906 -1.17104,-0.37167 -2.00357,-1.53084 -2.02146,-2.81455 -0.0274,-1.96329 -5.53083,2.09698 -6.44769,3.67113 -1.28632,2.20848 -5.7761,2.28833 -6.6091,0.11753 -0.34455,-0.89785 -0.14015,-2.41115 0.45422,-3.36287 0.82774,-1.32543 0.69311,-2.11796 -0.57523,-3.3863 -2.31723,-2.31723 -2.95718,-3.00506 1.26284,-3.42089 4.50716,-0.44413 8.41984,-0.84902 5.97374,1.99509 -1.0595,1.2319 0.15017,0.45503 2.68817,-1.72637 2.53801,-2.18141 4.60353,-3.74588 7.67664,-5.94588 3.0731,-2.2 5.60906,-4.3375 5.63545,-4.75 0.0264,-0.4125 -3.09045,-0.75 -6.92633,-0.75 -8.19147,-2.38028 -4.38854,2.04764 -9.67015,1.57915 -2.79516,-0.27058 -3.42224,2.25257 -3.69649,-0.59184 -0.27167,-2.81763 -1.38007,-1.98731 -3.80581,-1.98731 -2.44527,0 -2.73773,0.31513 -2.32006,2.5 0.34431,1.80117 0.0425,2.5 -1.07966,2.5 -0.85665,0 -1.88322,-0.52694 -2.28126,-1.17097 -0.47953,-0.7759 -0.99465,-0.43852 -1.52679,1 -0.80762,2.18322 -3.86754,3.07498 -3.86754,1.12713 0,-0.57411 -0.5625,-0.97079 -1.25,-0.88151 -2.81479,0.36551 -3.86063,-0.16637 -3.58782,-1.82465 0.15835,-0.9625 -0.0649,-2.3125 -0.49616,-3 -0.43123,-0.6875 -0.43123,-1.8125 0,-2.5 0.43124,-0.6875 0.65451,-2.0375 0.49616,-3 -0.19762,-1.20123 0.36882,-1.75 1.80635,-1.75 1.15183,0 2.35326,-0.675 2.66984,-1.5 0.71679,-1.86792 3.24672,-1.96303 3.94311,-0.14825 0.3277,0.85395 1.47796,1.16838 3.12348,0.85382 2.26589,-0.43315 2.53174,-0.21873 2.04352,1.64825 -0.55464,2.12092 -3.17108,2.14618 10.94222,2.14618 l 14.28138,0 0.62863,-3.14316 c 0.73969,-3.69844 0.0682,-4.66581 -7.21933,-10.40068 -5.06733,-3.98769 -17.92374,-16.27775 -21.79194,-15.40863 -2.24227,0.50381 -4.67646,0.68593 -5.4093,0.40471 -2.13012,-0.8174 -1.60254,-4.69067 0.72172,-5.29848 2.00191,-0.52351 1.99555,-0.56638 -0.25,-1.68591 -3.19977,-1.59526 -3.1805,-5.96556 0.0283,-6.42004 1.28285,-0.18169 3.27166,0.49331 4.41956,1.5 1.76257,1.54575 12.62014,11.62183 12.12068,10.24685 -1.22342,-3.36801 4.67144,-5.54909 5.95529,-2.20343 0.35213,0.91762 -0.0384,2.85085 -0.86783,4.29606 -1.45593,2.53682 -1.39045,2.71247 1.89439,5.08158 1.87134,1.34967 7.39004,6.24326 10.12565,8.33587 6.64386,5.08223 8.89416,4.48856 8.89416,-2.34645 0,-4.43544 0.24884,-1.30528 -2.4498,-2.7008 -5.61721,-2.90477 -4.84776,-9.50749 1.10796,-9.50749 2.36703,0 2.87755,-0.42382 2.87755,-2.38889 0,-1.64219 -0.53503,-2.34548 -1.71169,-2.25 -2.10832,0.17107 -2.99017,-3.30137 -1.1367,-4.47597 0.9074,-0.57505 0.28549,-0.85952 -1.90161,-0.86983 -2.57823,-0.0121 -3.25,-0.42871 -3.25,-2.01531 0,-1.49601 0.69298,-2.01989 2.75,-2.07895 1.5125,-0.0434 2.1875,-0.30592 1.5,-0.58333 -1.79268,-0.72336 -1.54324,-4.28796 0.35092,-5.01482 0.88051,-0.33789 1.99862,0.0137 2.48469,0.78138 0.70739,1.11717 0.88682,1.04647 0.89908,-0.35428 0.0192,-2.19163 3.83807,-2.37546 4.66348,-0.22448 0.42155,1.09855 0.93707,1.23366 1.84186,0.48275 1.54864,-1.28525 4.50997,-0.27425 4.50997,1.5397 0,0.7337 -0.52694,1.65966 -1.17097,2.05769 -0.7759,0.47954 -0.43852,0.99466 1,1.5268 3.43014,1.26889 2.73873,3.86754 -1.02903,3.86754 -2.48889,0 -2.93333,0.26667 -2,1.2 2.14023,2.14023 1.43186,4.07748 -1.3,3.55525 l -2.5,-0.47791 0.0153,12.61133 c 0.0159,13.10721 -0.30738,10.34558 2.86645,12.08027 1.60777,0.87873 2.94247,0.17848 8.26347,-4.33547 1.21468,-1.7646 5.5132,-1.97168 3.94909,-2.97701 -1.10612,-0.70116 -1.08179,-1.59693 0.14217,-5.23469 1.20655,-3.58599 1.97776,-4.44897 4.21619,-4.7179 2.50687,-0.30118 2.85645,-0.0576 2.21016,2.44005 l -0.52936,2.76919 1.73142,-2.2954 c 1.029,-1.36419 2.50881,-2.14709 3.64766,-1.92983 2.48478,0.47401 3.15566,4.83128 0.98791,6.41637 -1.45488,1.06384 -4.98542,4.00458 -3.1664,4.48027 1.34674,0.35218 2.02327,1.36056 2.02327,3.01573 0,2.88215 -1.59207,3.70061 -7.19842,3.70061 -3.53618,0 -3.97051,-0.24602 -3.51428,-1.99063 0.44153,-1.68842 3.61313,-4.32621 0.93806,-1.91106 -12.70675,11.4719 -8.46554,7.33368 -7.19056,9.716 1.0269,1.91877 1.90962,2.19549 6.3564,1.99258 4.46275,-0.20363 23.45003,0.36754 26.18048,-2.6129 2.58651,-2.82334 3.63389,-3.32963 5.77593,-2.79201 2.08996,0.52454 2.61649,1.25656 2.61649,3.63764 0,2.50291 1.98418,0.89937 4.05692,0.89937 1.65228,0 2.2986,-0.44305 1.95449,-1.33979 -0.74109,-1.93123 2.34331,-4.29379 3.75833,-2.87877 0.79556,0.79556 1.56316,0.52059 2.79566,-1.00149 1.69148,-2.08889 4.0229,-1.77667 4.0229,0.53873 0,0.68967 1.38186,1.19654 3.24693,1.19099 2.91209,-0.009 3.26146,0.29971 3.38777,2.99033 0.21663,4.61478 -2.37768,9.71635 -4.58484,9.01582 -1.11424,-0.35364 -2.03927,0.0142 -2.40005,0.95438 -0.73688,1.92028 -4.64981,2.02414 -4.64981,0.12342 0,-0.9275 -0.70113,-1.22303 -2.05908,-0.86792 -1.51323,0.39572 -2.20688,-0.0267 -2.61663,-1.59362 -0.53571,-2.04856 -20.53709,-1.1195 -33.63636,-1.06003 l -13.63337,0.0619 -3.18092,4.36548 -3.18092,4.36549 1.88415,4.82261 c 1.83715,4.70234 1.88531,4.74043 1.93092,1.52717 0.0844,-5.94933 7.34666,-10.75583 12.62051,-8.3529 1.88383,0.85833 2.42626,1.87446 2.42626,4.54512 0,4.81751 -0.87282,6.58562 -3.88638,7.87276 l -2.61362,1.11632 2.70055,0.36872 c 1.4853,0.2028 3.5902,-0.1074 4.67755,-0.68933 1.08736,-0.58194 2.68461,-0.78654 3.54946,-0.45467 1.30828,0.50204 1.57501,-0.29652 1.58775,-4.75358 0.0174,-6.09325 1.06429,-8.42416 3.38377,-7.53409 1.05933,0.40651 1.60092,1.83718 1.60092,4.22905 0,2.38605 0.41179,3.47745 1.21149,3.21089 0.66632,-0.22211 1.22882,-1.72211 1.25,-3.33334 0.0318,-2.4164 0.47638,-2.94957 2.53851,-3.04412 1.375,-0.063 3.35257,-0.47365 4.39461,-0.91248 1.98207,-0.83469 4.60539,1.56809 4.60539,4.21823 0,0.76686 1.1595,1.30887 2.8,1.30887 5.54009,0 7.03106,5.25985 2.71453,9.57638 -2.23009,2.23009 -3.18052,2.4566 -9.25,2.20454 -6.59285,-0.27379 -6.77271,-0.35222 -7.08669,-3.09035 -0.42932,-3.74395 -3.25968,-3.21635 -4.33599,0.80827 -0.82837,3.0975 -3.24593,5.50116 -5.53298,5.50116 -1.52915,0 -1.77579,-3.59339 -0.30887,-4.5 0.55,-0.33992 0.98632,-1.15398 0.96959,-1.80902 -0.0167,-0.65504 -0.4915,-0.39917 -1.05505,0.5686 -1.06432,1.82772 -7.01963,4.74042 -9.69227,4.74042 -0.84342,0 -3.15096,-1.20814 -5.12788,-2.68476 -2.68601,-2.00627 -3.12998,-2.15143 -1.75674,-0.57441 2.52891,2.90419 1.79865,5.68375 -1.5962,6.07559 -1.5078,0.17403 -2.74145,-0.16347 -2.74145,-0.75 0,-0.67159 -3.14705,-1.06642 -8.5,-1.06642 -5,0 -8.5,0.41176 -8.5,1 0,1.11229 -4.28648,1.38019 -5.33333,0.33333 z m 3.33333,-2.33333 c 0,-1.55463 20.7222,-1.31118 21.27976,0.25 0.24554,0.6875 0.78434,0.9362 1.19734,0.55266 0.413,-0.38353 -0.15238,-1.84568 -1.2564,-3.24922 -1.64919,-2.09659 -2.11463,-2.27224 -2.60878,-0.98451 -0.49386,1.28698 -2.17575,1.52196 -9.40169,1.31351 -4.84013,-0.13963 -9.34249,0.0813 -10.00523,0.49087 -1.45874,0.90155 -1.59338,2.62669 -0.205,2.62669 0.55,0 1,-0.45 1,-1 z m -6.07662,-9.06503 c 0,-0.51754 -0.45,-1.2191 -1,-1.55902 -0.55,-0.33992 -1,0.0835 -1,0.94098 0,0.85746 0.45,1.55902 1,1.55902 0.55,0 1,-0.42344 1,-0.94098 z m 35.26629,4.48533 c -2.42115,-1.69584 -2.87192,-3.97834 -0.93967,-4.75802 0.78935,-0.31851 0.64452,-0.53348 -0.39301,-0.58333 -2.35331,-0.11308 -2.91544,-2.41239 -1.33469,-5.4593 1.28251,-2.47203 1.2486,-2.56741 -0.56732,-1.59556 -4.39482,2.35204 -3.64486,9.97763 1.27555,12.96991 3.64015,2.21371 5.26106,1.73905 1.95914,-0.5737 z m -44.84988,-4.37505 c 9.11658,-7.65509 10.61417,-9.19195 4.68559,-4.80847 -3.3,2.43996 -7.0125,4.97111 -8.25,5.62478 -2.0172,1.06553 -3.12679,3.11813 -1.68559,3.11813 0.31042,0 2.67292,-1.7705 5.25,-3.93444 z m 29.8303,-1.54525 c -1.40478,-3.575 -3.03253,-6.5 -3.61721,-6.5 -0.91342,0 -5.55288,10.2679 -5.55288,12.28945 0,0.3908 2.63795,0.71055 5.86212,0.71055 l 5.86212,0 z m 50.6074,4.9433 c 2.2176,-1.55327 2.98793,-4.85221 1.36697,-5.85402 -0.47055,-0.29082 -0.64706,0.56188 -0.39224,1.89488 0.37412,1.95709 -0.0383,2.54953 -2.14222,3.07759 -1.43304,0.35967 -3.28153,0.39454 -4.10776,0.0775 -2.12403,-0.81506 -1.92421,-4.62019 0.24776,-4.71818 1.39393,-0.0629 1.4448,-0.19512 0.25,-0.64994 -0.825,-0.31405 -1.83061,-1.06602 -2.23469,-1.67105 -0.40408,-0.60503 -0.74158,0.96244 -0.75,3.48327 -0.008,2.52084 0.28469,4.88334 0.65136,5.25 1.17231,1.17232 4.81786,0.71602 7.11082,-0.89003 z m -46.65542,-3.1183 c -1.17884,-2.02721 -1.46351,-1.37835 -0.49853,1.13634 0.34294,0.8937 0.83419,1.41426 1.09166,1.15679 0.25747,-0.25747 -0.009,-1.28938 -0.59313,-2.29313 z m -13.1527,-2.825 c 0,-0.55 -0.43621,-0.325 -0.96937,0.5 -0.53316,0.825 -0.96937,1.95 -0.96937,2.5 0,0.55 0.43621,0.325 0.96937,-0.5 0.53316,-0.825 0.96937,-1.95 0.96937,-2.5 z m 39.74821,-3.23625 c -0.22985,-1.52006 -0.42406,-0.51375 -0.43157,2.23625 -0.007,2.75 0.18056,3.99369 0.41792,2.76375 0.23736,-1.22994 0.24351,-3.47994 0.0136,-5 z m 18.78242,5.73625 c 1.92824,-0.82859 1.92138,-0.86195 -0.19098,-0.92971 -1.20504,-0.0387 -2.4691,0.37971 -2.80902,0.92971 -0.731,1.18278 0.24752,1.18278 3,0 z m -29.59738,-4.43071 c -0.26308,-0.26308 -1.07408,0.5137 -1.80223,1.72619 -1.26492,2.10631 -1.24361,2.12762 0.47833,0.47833 0.99123,-0.94941 1.58698,-1.94144 1.3239,-2.20452 z m 17.82655,2.82654 c -0.3323,-0.33229 -1.1948,-0.36781 -1.91667,-0.0789 -0.79773,0.31922 -0.56078,0.55618 0.60417,0.60416 1.05416,0.0434 1.64479,-0.19292 1.3125,-0.52522 z m -70.00379,-3.61614 c -0.93333,-0.93333 -1.46667,-0.93333 -2.4,0 -0.93333,0.93333 -0.66667,1.2 1.2,1.2 1.86667,0 2.13333,-0.26667 1.2,-1.2 z m 49.32241,0.13101 c 0.95762,-1.78933 0.85664,-2.03894 -0.70333,-1.73852 -1.00182,0.19293 -1.97216,1.13312 -2.1563,2.0893 -0.46613,2.4204 1.50601,2.17849 2.85963,-0.35078 z m -20.58877,-5.76058 c 1.04983,-0.20218 2.50103,0.44234 3.22488,1.43227 1.11117,1.51961 1.3161,1.55301 1.3161,0.21449 0,-0.87195 1.35,-3.03055 3,-4.79688 1.65,-1.76633 3,-3.83892 3,-4.60576 0,-1.13765 3.12865,-1.39424 17,-1.39424 9.35,0 36.44544,-0.65015 36.44544,-0.21015 0,0.44 -0.5625,1.4308 -1.25,2.20177 -1.04911,1.17649 -0.95136,1.17452 0.60821,-0.0122 1.62684,-1.23796 2.01679,-1.19717 3.13174,0.32762 1.09589,1.49872 1.35447,1.53068 1.85393,0.22911 0.37229,-0.97016 1.2215,-1.27215 2.36827,-0.84216 1.56952,0.58851 1.62025,0.46433 0.41541,-1.01686 -1.40458,-1.72672 -1.11461,-1.95494 2.37244,-1.86723 1.65018,0.0415 1.69391,-0.0386 0.25,-0.45817 -2.02025,-0.587 -2.34055,-2.95687 -0.5,-3.69955 0.90131,-0.36368 0.91777,-0.5264 0.059,-0.58333 -0.65502,-0.0434 -1.46908,0.37105 -1.809,0.92105 -1.02852,1.66417 -2.51242,1.12945 -3.46884,-1.25 l -0.90439,-2.25 -0.0634,2.25 c -0.0676,2.39835 -1.94552,2.96787 -3.77006,1.14333 -0.80889,-0.80889 -1.06451,-0.60708 -0.95,0.75 0.13353,1.58223 -0.58239,1.85667 -4.84331,1.85667 -4.85766,0 -6.58011,2.00328 -6.30045,-0.66842 0.3997,-3.8186 -2.72425,-3.67988 -5.62973,0.25 -2.0928,2.83066 -20.28719,3.44643 -26.81694,3.44643 -5.53586,0 -7.40632,-1.81263 -8.11822,-3.26786 -4.66266,-9.53111 -1.02217,-1.54805 -1.04969,0.37756 -0.0167,1.17015 -0.70541,2.68775 -1.53041,3.37244 -0.825,0.68469 -1.5,2.27903 -1.5,3.54299 0,2.70589 -4.10586,4.03194 -9.09274,2.93664 -5.86833,-1.2889 -7.91722,-11.45886 -2.62956,-15.52372 3.61191,-2.77663 10.40008,-1.27975 13.51775,1.83793 5.38237,2.41057 -10.79547,-12.8356 -17.1815,1.20612 -1.23523,4.20247 -1.58026,4.52897 -5.21832,4.93817 l -3.89563,0.43818 4.5,0.56182 c 6.41771,0.80126 6.60744,3.56841 0.54326,7.92337 -2.49879,1.79451 -4.54326,3.48773 -4.54326,3.76273 0,0.275 2.02155,-0.95176 4.49233,-2.72614 3.94757,-2.83493 4.79908,-3.08639 7.02192,-2.07359 2.08876,0.9517 2.42519,1.6338 1.93047,3.91401 l -0.59913,2.76145 1.35232,-2.49114 c 0.74378,-1.37013 2.21128,-2.65656 3.26111,-2.85875 z m 23.04098,1.84988 c -0.33992,-0.55 -1.60398,-0.95514 -2.80902,-0.90032 -2.03959,0.0928 -2.01824,0.155 0.30902,0.90032 1.375,0.44035 2.63906,0.8455 2.80902,0.90032 0.16996,0.0548 0.0309,-0.35032 -0.30902,-0.90032 z m -64.65253,-8 c 1.06175,0 1.96701,-0.3375 2.01169,-0.75 0.50596,-4.67088 0.36959,-6.10083 -0.499,-5.23224 -1.55989,1.55989 -3.57163,1.14225 -3.69824,-0.76776 -0.10536,-1.58951 -0.15924,-1.58277 -0.58747,0.0734 -0.26538,1.0264 -1.0615,1.59701 -1.82135,1.30543 -1.50489,-0.57749 -2.25971,1.71782 -1.66078,5.05023 0.24685,1.37345 0.90812,1.98089 1.78862,1.64301 0.86606,-0.33234 1.44874,0.16967 1.53316,1.32092 0.10293,1.40356 0.242,1.3076 0.56955,-0.39302 0.27094,-1.40665 1.15695,-2.25 2.36382,-2.25 z m 45.8817,2.39583 c -0.3323,-0.33229 -1.1948,-0.36782 -1.91667,-0.079 -0.79773,0.31923 -0.56078,0.55619 0.60417,0.60417 1.05416,0.0434 1.64479,-0.19293 1.3125,-0.52522 z m -8.38409,-1.93896 c -0.32569,-0.84872 -0.80663,-1.32866 -1.06875,-1.06653 -0.26213,0.26213 -0.17998,0.95654 0.18255,1.54313 0.98605,1.59546 1.56238,1.28551 0.8862,-0.4766 z m 10.10255,-3.39901 c 0.96669,-1.06817 1.52196,-2.53067 1.23394,-3.25 -0.3498,-0.87361 -0.54989,-0.74563 -0.60262,0.38544 -0.0434,0.93131 -1.07908,2.39381 -2.30146,3.25 -1.22237,0.85618 -5.22426,2.71741 -4.63712,2.71741 0.58713,0 5.34058,-2.03467 6.30726,-3.10285 z m -11.78535,-2.30786 c -0.27741,-0.6875 -0.50439,-0.125 -0.50439,1.25 0,1.375 1.03055,4.88393 1.30796,4.19643 0.27741,-0.6875 -0.52616,-4.75893 -0.80357,-5.44643 z m 7.9776,-3.40774 c -0.3323,-0.33229 -3.60551,2.57861 -4.32738,2.86743 -0.79773,0.31923 2.83208,-1.49738 3.99703,-1.4494 1.05416,0.0434 3.25193,0.87849 2.91964,0.5462 z m 4.36012,0.28018 c -0.0361,-0.20448 -0.7875,-0.99515 -1.75,-1.75 -1.58606,-1.24387 -1.62139,-1.20853 -0.37756,0.37756 1.3064,1.66588 2.62441,4.1829 2.12756,1.37244 z m -31.65476,0.46089 c -0.36667,-0.36666 -0.66667,-1.71666 -0.66667,-3 0,-2.72289 3.0148,-3.22535 5,-0.83333 2.03312,2.44976 -2.07914,6.08753 -4.33333,3.83333 z m 39.06312,-0.46154 c -0.80937,-2.10919 0.3267,-3.62179 2.72021,-3.62179 1.51073,0 1.93109,0.5568 1.69098,2.23978 -0.37294,2.61398 -3.55579,3.61115 -4.41119,1.38201 z m -22.04673,-10.12179 c -0.95843,-2.49761 0.32607,-4.39443 2.5772,-3.80575 2.42856,0.63509 2.75409,3.82587 0.47938,4.69876 -2.21712,0.85079 -2.40893,0.79475 -3.05658,-0.89301 z m 19.75492,-3.39668 c -0.36667,-0.36666 -0.66667,-1.49166 -0.66667,-2.5 0,-1.28889 0.74242,-1.83333 2.5,-1.83333 2,0 2.5,0.5 2.5,2.5 0,1.75758 -0.54444,2.5 -1.83333,2.5 -1.00834,0 -2.13334,-0.3 -2.5,-0.66667 z"
       id="path4152"
       inkscape:connector-curvature="0"
       sodipodi:nodetypes="sssscsssscsssssssssscsscsssscscsssssssssssscsssssssssssssscccccssssscsscscssscsssccssssssssssssssssssssssssssssssssscccccccsssssccssssssscsssssssccsscsssscsssssssssssssssssssssscsccssssscsccsssssscssssssssscssssssscscsssssscccssssssssscsssscssscssssssssssssssssssscscsscssssssssscssccssscsssssssssssssssssscssssssscccssssscsssssscccssssssssscssssssssccsssssscssssssssssssssssssssssscscssscssscccccsscsssssccsccscsssssscccccsssssssssssssssscssssscscsscsscssssscssssccscsssssscssssscscssscssssscccccccscsssscssssssscccccsssscsscsssssssscssssc" />
    <circle
       r="0.98214287"
       cy="506.64795"
       cx="327.32141"
       id="circle4158"
       style="opacity:1;fill:#ff6600;fill-opacity:1;stroke:none;stroke-width:1;stroke-linejoin:round;stroke-miterlimit:4;stroke-dasharray:none;stroke-opacity:1" />
    <circle
       r="0.98214287"
       cy="501.20151"
       cx="330.80356"
       id="circle4160"
       style="opacity:1;fill:#ff6600;fill-opacity:1;stroke:none;stroke-width:1;stroke-linejoin:round;stroke-miterlimit:4;stroke-dasharray:none;stroke-opacity:1" />
    <circle
       r="0.98214287"
       cy="501.2908"
       cx="344.37497"
       id="circle4162"
       style="opacity:1;fill:#ff6600;fill-opacity:1;stroke:none;stroke-width:1;stroke-linejoin:round;stroke-miterlimit:4;stroke-dasharray:none;stroke-opacity:1" />
    <circle
       r="0.98214287"
       cy="507.80865"
       cx="348.12497"
       id="circle4164"
       style="opacity:1;fill:#ff6600;fill-opacity:1;stroke:none;stroke-width:1;stroke-linejoin:round;stroke-miterlimit:4;stroke-dasharray:none;stroke-opacity:1" />
    <circle
       r="0.98214287"
       cy="516.38007"
       cx="348.03571"
       id="circle4166"
       style="opacity:1;fill:#ff6600;fill-opacity:1;stroke:none;stroke-width:1;stroke-linejoin:round;stroke-miterlimit:4;stroke-dasharray:none;stroke-opacity:1" />
    <circle
       r="0.98214287"
       cy="520.93365"
       cx="341.51785"
       id="circle4168"
       style="opacity:1;fill:#ff6600;fill-opacity:1;stroke:none;stroke-width:1;stroke-linejoin:round;stroke-miterlimit:4;stroke-dasharray:none;stroke-opacity:1" />
    <circle
       r="0.98214287"
       cy="499.95151"
       cx="337.94641"
       id="circle4170"
       style="opacity:1;fill:#ff6600;fill-opacity:1;stroke:none;stroke-width:1;stroke-linejoin:round;stroke-miterlimit:4;stroke-dasharray:none;stroke-opacity:1" />
    <circle
       r="0.98214287"
       cy="516.38007"
       cx="328.48212"
       id="circle4172"
       style="opacity:1;fill:#ff6600;fill-opacity:1;stroke:none;stroke-width:1;stroke-linejoin:round;stroke-miterlimit:4;stroke-dasharray:none;stroke-opacity:1" />
    <circle
       r="0.98214287"
       cy="523.96936"
       cx="363.92856"
       id="circle4174"
       style="opacity:1;fill:#ff6600;fill-opacity:1;stroke:none;stroke-width:1;stroke-linejoin:round;stroke-miterlimit:4;stroke-dasharray:none;stroke-opacity:1" />
    <circle
       r="0.98214287"
       cy="548.16577"
       cx="392.32141"
       id="circle4176"
       style="opacity:1;fill:#ff6600;fill-opacity:1;stroke:none;stroke-width:1;stroke-linejoin:round;stroke-miterlimit:4;stroke-dasharray:none;stroke-opacity:1" />
    <circle
       r="0.98214287"
       cy="526.02295"
       cx="296.96426"
       id="circle4178"
       style="opacity:1;fill:#ff6600;fill-opacity:1;stroke:none;stroke-width:1;stroke-linejoin:round;stroke-miterlimit:4;stroke-dasharray:none;stroke-opacity:1" />
    <circle
       r="0.98214287"
       cy="551.02295"
       cx="302.14285"
       id="circle4180"
       style="opacity:1;fill:#ff6600;fill-opacity:1;stroke:none;stroke-width:1;stroke-linejoin:round;stroke-miterlimit:4;stroke-dasharray:none;stroke-opacity:1" />
    <circle
       r="0.98214287"
       cy="566.99713"
       cx="311.89346"
       id="circle4182"
       style="opacity:1;fill:#ff6600;fill-opacity:1;stroke:none;stroke-width:1;stroke-linejoin:round;stroke-miterlimit:4;stroke-dasharray:none;stroke-opacity:1" />
    <circle
       style="opacity:1;fill:#ff6600;fill-opacity:1;stroke:none;stroke-width:1;stroke-linejoin:round;stroke-miterlimit:4;stroke-dasharray:none;stroke-opacity:1"
       id="path4156"
       cx="313.91379"
       cy="577.47748"
       r="0.98214287" />
  </g>
</svg>
